<svg xmlns="http://www.w3.org/2000/svg" xmlns:xlink="http://www.w3.org/1999/xlink" width="0" height="0" style="display:none;"><symbol id="icon-arrow-down"></symbol><symbol id="icon-arrow-right"></symbol><symbol viewBox="0 0 24.938 19" id="icon-mail">
    <g fill="none" fill-rule="evenodd">
        <g fill="#FFF" fill-rule="nonzero">
            <path d="M22.938 0c1.104 0 2 .895 2 2v15c0 1.105-.896 2-2 2H2c-1.105 0-2-.895-2-2V2C0 .895.895 0 2 0h20.938zm-1.001 4.595l-8.528 6.499c-.49.373-1.154.406-1.675.096l-.128-.085L3 4.723V16h18.937V4.595zM19.079 3H5.714l6.773 5.023L19.079 3z"></path>
        </g>
    </g>
</symbol><symbol id="icon-phone"></symbol><symbol id="icon-play-icon"></symbol><symbol id="icon-plus"></symbol><symbol id="icon-search"></symbol><symbol viewBox="0 0 256 256" id="icon-volume-off"><path d="M163.51,24.81a8,8,0,0,0-8.42.88L85.25,80H40A16,16,0,0,0,24,96v64a16,16,0,0,0,16,16H85.25l69.84,54.31A8,8,0,0,0,168,224V32A8,8,0,0,0,163.51,24.81ZM152,207.64,92.91,161.69A7.94,7.94,0,0,0,88,160H40V96H88a7.94,7.94,0,0,0,4.91-1.69L152,48.36Zm101.66-61.3a8,8,0,0,1-11.32,11.32L224,139.31l-18.34,18.35a8,8,0,0,1-11.32-11.32L212.69,128l-18.35-18.34a8,8,0,0,1,11.32-11.32L224,116.69l18.34-18.35a8,8,0,0,1,11.32,11.32L235.31,128Z"></path></symbol><symbol viewBox="0 0 256 256" id="icon-volume-on"><path d="M163.51,24.81a8,8,0,0,0-8.42.88L85.25,80H40A16,16,0,0,0,24,96v64a16,16,0,0,0,16,16H85.25l69.84,54.31A8,8,0,0,0,168,224V32A8,8,0,0,0,163.51,24.81ZM152,207.64,92.91,161.69A7.94,7.94,0,0,0,88,160H40V96H88a7.94,7.94,0,0,0,4.91-1.69L152,48.36ZM208,104v48a8,8,0,0,1-16,0V104a8,8,0,0,1,16,0Zm32-16v80a8,8,0,0,1-16,0V88a8,8,0,0,1,16,0Z"></path></symbol></svg>