<?xml version="1.0" standalone="no"?>
<!DOCTYPE svg PUBLIC "-//W3C//DTD SVG 20010904//EN"
 "http://www.w3.org/TR/2001/REC-SVG-20010904/DTD/svg10.dtd">
<svg version="1.0" xmlns="http://www.w3.org/2000/svg"
 width="700.000000pt" height="700.000000pt" viewBox="0 0 700.000000 700.000000"
 preserveAspectRatio="xMidYMid meet">
<metadata>
Created by potrace 1.14, written by Peter Selinger 2001-2017
</metadata>
<g transform="translate(0.000000,700.000000) scale(0.100000,-0.100000)"
fill="#000000" stroke="none">
<path d="M3219 6946 c-2 -3 -40 -8 -84 -11 -44 -3 -87 -8 -95 -10 -8 -2 -35
-7 -60 -10 -461 -61 -995 -266 -1399 -538 -97 -64 -247 -174 -286 -208 -234
-205 -349 -322 -492 -497 -207 -252 -387 -551 -503 -832 -23 -58 -48 -118 -55
-135 -42 -98 -128 -401 -149 -520 -3 -16 -8 -41 -11 -55 -40 -195 -54 -385
-50 -685 2 -154 6 -296 9 -315 3 -19 8 -55 12 -80 11 -83 13 -95 18 -120 3
-13 8 -42 11 -65 4 -22 21 -103 40 -180 131 -542 394 -1046 764 -1465 85 -96
239 -250 320 -320 36 -30 69 -60 75 -65 42 -40 263 -198 370 -265 372 -232
775 -389 1221 -474 76 -15 215 -33 320 -42 154 -14 622 -8 710 10 11 2 45 7
75 10 45 6 197 33 285 52 11 2 31 6 45 9 76 14 323 93 472 151 258 100 638
316 828 471 8 6 53 42 100 80 111 88 365 342 467 466 293 356 532 807 653
1232 34 119 39 137 46 175 2 14 7 31 10 39 2 8 7 30 10 50 3 20 9 52 14 71 9
37 16 79 26 158 3 26 7 58 9 72 33 241 23 707 -20 930 -3 13 -7 42 -11 65 -19
131 -75 348 -134 520 -116 335 -275 634 -507 954 -102 141 -250 300 -479 517
-95 90 -340 270 -504 369 -398 242 -927 426 -1355 471 -27 3 -61 8 -75 11 -29
7 -635 15 -641 9z m456 -230 c169 -10 368 -36 382 -50 10 -10 -20 -100 -56
-169 -77 -146 -237 -262 -403 -292 -94 -17 -207 -7 -306 29 -161 58 -302 214
-346 384 -14 51 -14 52 7 56 12 3 33 7 47 10 14 3 52 8 85 11 33 3 71 8 85 11
14 2 79 7 145 10 66 4 121 7 122 8 3 2 135 -2 238 -8z m-965 -111 c0 -8 13
-52 28 -99 85 -252 313 -460 571 -520 33 -8 62 -11 65 -8 3 3 6 -526 6 -1176
l0 -1182 -392 0 -392 0 64 46 c94 67 249 230 317 332 124 185 197 379 229 610
7 51 7 257 0 312 -56 421 -275 769 -624 995 -120 77 -287 149 -407 176 -55 13
-75 17 -110 25 -55 11 -329 16 -382 6 -29 -5 -53 -6 -53 -1 0 11 288 199 304
199 2 0 30 15 63 33 97 55 330 153 473 200 226 74 240 77 240 52z m1790 -45
c589 -192 1104 -545 1505 -1030 82 -99 285 -392 285 -411 0 -5 -566 -9 -1338
-9 l-1339 0 0 430 0 430 26 6 c310 61 547 280 636 587 17 58 17 58 48 51 18
-3 97 -28 177 -54z m-2420 -684 c170 -40 341 -120 474 -225 55 -44 169 -166
216 -232 91 -130 162 -294 191 -444 15 -77 18 -299 6 -385 -24 -171 -115 -383
-222 -518 -50 -65 -164 -176 -229 -224 -140 -105 -359 -194 -521 -214 -166
-20 -356 -3 -507 47 -92 30 -219 89 -249 115 -8 8 -19 14 -24 14 -12 0 -133
100 -189 156 -67 67 -154 185 -198 269 -38 74 -95 225 -103 278 -3 18 -8 43
-10 57 -16 78 -21 241 -10 327 33 261 163 517 352 693 154 144 364 254 548
286 17 3 46 9 65 14 62 14 328 5 410 -14z m4333 -1062 c-6 -167 -94 -430 -205
-613 -91 -150 -261 -330 -404 -428 -146 -99 -325 -182 -453 -208 -9 -2 -37 -8
-62 -14 -159 -36 -395 -33 -566 9 -526 127 -920 524 -1057 1065 -28 113 -46
243 -34 247 4 2 632 2 1395 2 l1388 -1 -2 -59z m-5939 -229 c13 -78 17 -101
32 -158 51 -197 150 -390 281 -545 71 -82 110 -120 203 -194 41 -33 77 -62 79
-64 2 -2 -179 -4 -403 -4 l-407 0 6 58 c2 31 7 85 10 120 8 102 31 247 59 387
20 97 125 450 132 442 1 -1 5 -20 8 -42z m6161 -305 c19 -74 37 -148 40 -165
2 -16 7 -39 9 -50 2 -11 7 -45 11 -75 4 -30 9 -62 10 -70 3 -16 16 -134 21
-190 4 -50 4 -406 -1 -460 -6 -84 -16 -175 -20 -200 -35 -217 -50 -290 -108
-500 -75 -270 -265 -661 -443 -910 -95 -133 -108 -150 -111 -146 -2 2 -5 50
-7 107 -6 154 -35 274 -99 409 -96 200 -276 379 -482 476 -41 20 -75 39 -75
41 0 3 11 15 24 27 14 11 41 48 61 81 119 198 95 451 -58 620 l-46 50 77 21
c114 31 196 63 299 116 386 198 669 523 829 952 21 59 20 61 69 -134z m-2962
-253 c132 -203 316 -379 533 -509 138 -84 262 -134 470 -193 7 -2 -10 -27 -36
-55 -174 -188 -179 -493 -11 -682 l42 -47 -76 -36 c-518 -246 -733 -868 -477
-1380 102 -204 281 -380 481 -472 70 -31 195 -72 231 -75 36 -3 31 -10 -17
-30 -21 -9 -65 -27 -98 -41 -70 -30 -246 -89 -345 -116 l-69 -19 -103 135
c-57 75 -108 141 -113 147 -6 6 -56 70 -110 141 -55 72 -105 137 -112 145 -29
36 -230 296 -238 310 -9 13 -17 2860 -9 2860 1 0 27 -37 57 -83z m-302 -650
c3 -4 2 -34 -3 -65 -4 -31 -10 -70 -13 -87 -16 -108 -72 -286 -126 -400 -160
-338 -432 -610 -765 -765 -72 -34 -248 -94 -299 -103 -17 -3 -55 -10 -85 -16
-160 -30 -389 -30 -525 -1 -22 5 -53 11 -70 14 -101 18 -287 88 -405 153 -162
88 -356 249 -467 388 -176 218 -300 504 -340 780 -7 48 -10 98 -7 105 4 9
3099 5 3105 -3z m1763 -196 c129 -56 195 -190 162 -322 -26 -99 -91 -171 -184
-203 -53 -19 -148 -14 -203 11 -173 78 -220 308 -91 448 79 86 210 113 316 66z
m-1754 -1255 l0 -664 -165 -213 c-414 -538 -522 -674 -536 -672 -8 0 -60 15
-117 32 -885 268 -1627 917 -2014 1761 l-39 85 57 -55 c77 -73 77 -74 153
-134 162 -129 350 -229 566 -301 257 -86 603 -104 897 -45 223 44 518 175 688
306 196 152 378 349 474 517 16 26 30 47 32 47 2 0 4 -299 4 -664z m1789 430
c252 -59 438 -202 549 -421 55 -111 74 -188 78 -325 5 -174 -24 -287 -110
-434 -132 -222 -381 -365 -646 -371 -215 -4 -414 76 -565 229 -409 413 -242
1114 310 1296 85 28 154 38 255 35 58 -2 116 -6 129 -9z m-1393 -1679 c150
-194 271 -353 270 -354 -1 -1 -20 -5 -42 -8 -21 -4 -66 -10 -99 -16 -187 -29
-636 -32 -796 -4 -13 2 -53 9 -88 14 -35 6 -65 12 -67 14 -3 3 397 529 469
617 7 8 25 32 41 53 16 20 31 37 35 37 3 -1 128 -159 277 -353z"/>
</g>
</svg>
