<?xml version="1.0" standalone="no"?>
<!DOCTYPE svg PUBLIC "-//W3C//DTD SVG 1.1//EN" "http://www.w3.org/Graphics/SVG/1.1/DTD/svg11.dtd" >
<svg xmlns="http://www.w3.org/2000/svg" xmlns:xlink="http://www.w3.org/1999/xlink" version="1.1">
<metadata>
Created by FontForge 20170731 at Tue Jun 29 17:22:40 2021
 By Aleksey,,,
Copyright 1990-1992 as an unpublished work by Bitstream Inc.  All rights reserved.  Confidential.
</metadata>
<defs>
<font id="Swiss721BT-Italic" horiz-adv-x="1024" >
  <font-face 
    font-family="Swiss 721"
    font-weight="400"
    font-style="italic"
    font-stretch="normal"
    units-per-em="2048"
    panose-1="2 0 5 3 0 0 0 0 0 0"
    ascent="1638"
    descent="-410"
    x-height="1071"
    cap-height="1473"
    bbox="-342 -483 2515 1972"
    underline-thickness="108"
    underline-position="-321"
    slope="-12"
    unicode-range="U+0020-FFFD"
  />
<missing-glyph horiz-adv-x="561" 
 />
    <glyph glyph-name=".notdef" unicode="&#xfffd;" horiz-adv-x="561" 
 />
    <glyph glyph-name=".null" horiz-adv-x="0" 
 />
    <glyph glyph-name="nonmarkingreturn" horiz-adv-x="682" 
 />
    <glyph glyph-name="space" unicode=" " horiz-adv-x="561" 
 />
    <glyph glyph-name="exclam" unicode="!" horiz-adv-x="657" 
d="M72 0l47 223h221l-51 -223h-217zM195 373l186 1100h203l-277 -1100h-112z" />
    <glyph glyph-name="quotedbl" unicode="&#x22;" horiz-adv-x="614" 
d="M229 1436v-555h-139v555h139zM524 1436v-555h-139v555h139z" />
    <glyph glyph-name="numbersign" unicode="#" horiz-adv-x="1574" 
d="M924 1458l-162 -454h256l164 454h164l-160 -454h301l-51 -146h-303l-93 -264h322l-51 -145h-322l-162 -453h-165l161 453h-258l-162 -453h-165l159 453h-309l53 145h310l92 264h-330l51 146h332l162 454h166zM969 858h-260l-93 -264h261z" />
    <glyph glyph-name="dollar" unicode="$" horiz-adv-x="1124" 
d="M301 -199l39 174q-160 38 -243 143.5t-83 272.5v25h179q3 -247 182 -281l112 512q-165 62 -239 152.5t-74 234.5q0 168 128.5 283t334.5 115h22l23 114h104l-26 -123q151 -25 229 -115.5t78 -242.5v-29h-172q-5 102 -44.5 159t-125.5 75l-102 -477q185 -68 265.5 -152
t80.5 -225q0 -206 -140 -329t-387 -124l-34 -162h-107zM528 831l97 447h-9q-115 0 -183 -70.5t-68 -185.5q0 -70 39 -115t124 -76zM477 123h27q122 0 196 72.5t74 187.5q0 85 -43.5 136t-148.5 89z" />
    <glyph glyph-name="percent" unicode="%" horiz-adv-x="1730" 
d="M365 -41l876 1473h125l-877 -1473h-124zM72 1036q0 149 102.5 252t251.5 103q146 0 250 -103.5t104 -251.5t-103 -252t-251 -104q-149 0 -251.5 103.5t-102.5 252.5zM221 1036q0 -87 59 -146t146 -59q85 0 145 59.5t60 145.5t-60 145.5t-145 59.5q-86 0 -145.5 -59.5
t-59.5 -145.5zM948 356q0 149 103 252t252 103q147 0 251.5 -104t104.5 -251q0 -148 -104 -252t-252 -104q-149 0 -252 103.5t-103 252.5zM1098 356q0 -88 59 -147t146 -59q85 0 144.5 60t59.5 146t-59.5 145.5t-144.5 59.5q-86 0 -145.5 -59.5t-59.5 -145.5z" />
    <glyph glyph-name="ampersand" unicode="&#x26;" horiz-adv-x="1361" 
d="M594 938q112 60 164.5 118.5t52.5 131.5t-41.5 112t-118.5 39q-73 0 -115 -41t-42 -114q0 -64 51 -156zM940 0l-70 117q-196 -158 -421 -158q-183 0 -303.5 116t-120.5 298q0 165 99.5 283t309.5 212l-37 72q-40 75 -60 131.5t-20 114.5q0 134 96 217.5t255 83.5
q146 0 231.5 -81t85.5 -216q0 -121 -76 -213.5t-235 -173.5l246 -412q89 118 114 268h168q-29 -250 -194 -415l145 -244h-213zM512 733q-162 -80 -232.5 -156t-70.5 -186q0 -119 72.5 -192.5t191.5 -73.5q165 0 320 131z" />
    <glyph glyph-name="quotesingle" unicode="'" horiz-adv-x="317" 
d="M229 1436v-555h-139v555h139z" />
    <glyph glyph-name="parenleft" unicode="(" horiz-adv-x="688" 
d="M307 -436q-176 403 -176 770q0 303 134 580.5t409 555.5h139q-259 -310 -381.5 -606.5t-122.5 -636.5q0 -319 109 -663h-111z" />
    <glyph glyph-name="parenright" unicode=")" horiz-adv-x="688" 
d="M303 1473q174 -399 174 -773q0 -303 -133 -580.5t-407 -555.5h-140q259 309 381.5 606.5t122.5 638.5q0 323 -108 664h110z" />
    <glyph glyph-name="asterisk" unicode="*" 
d="M582 950l-174 -252l-140 93l197 245l-287 78l53 158l275 -94v295h151v-295l275 94l55 -158l-289 -78l197 -243l-135 -101z" />
    <glyph glyph-name="plus" unicode="+" horiz-adv-x="1705" 
d="M924 1221v-541h528v-139h-528v-541h-142v541h-528v139h528v541h142z" />
    <glyph glyph-name="comma" unicode="," horiz-adv-x="561" 
d="M-27 -317l21 98q62 22 99 74.5t54 144.5h-106l45 219h221l-45 -219q-58 -274 -289 -317z" />
    <glyph glyph-name="hyphen" unicode="-" horiz-adv-x="638" 
d="M18 461l37 162h494l-37 -162h-494z" />
    <glyph glyph-name="period" unicode="." horiz-adv-x="561" 
d="M31 0l47 221h221l-45 -221h-223z" />
    <glyph glyph-name="slash" unicode="/" horiz-adv-x="616" 
d="M-2 -190l494 1701h126l-497 -1701h-123z" />
    <glyph glyph-name="zero" unicode="0" horiz-adv-x="1124" 
d="M47 489q0 200 59.5 390.5t167.5 337.5q156 215 390 215q197 0 305 -132t108 -378q0 -185 -54 -371.5t-151 -339.5q-161 -252 -409 -252q-203 0 -309.5 134.5t-106.5 395.5zM657 1272q-161 0 -266 -205q-153 -301 -153 -610q0 -336 231 -336q153 0 254 186
q75 138 117.5 305.5t42.5 323.5q0 336 -226 336z" />
    <glyph glyph-name="one" unicode="1" horiz-adv-x="1124" 
d="M399 0l230 1081q-150 -47 -396 -53l31 135q198 6 317.5 70.5t174.5 198.5h129l-305 -1432h-181z" />
    <glyph glyph-name="two" unicode="2" horiz-adv-x="1124" 
d="M6 0q21 232 156 373q42 44 103.5 91t100.5 72.5t128 81.5q49 31 72 45.5t63 41t58.5 41.5t47.5 39.5t42.5 42.5t31 43t25 48.5t13 52.5t5.5 60q0 109 -61.5 171.5t-167.5 62.5q-136 0 -211 -76.5t-95 -233.5h-190q29 233 155.5 354.5t338.5 121.5q195 0 310.5 -108
t115.5 -286q0 -158 -86 -268.5t-277 -230.5q-34 -21 -104.5 -64.5t-101 -62.5t-81 -55t-76 -61.5t-52.5 -61t-42 -72.5h709l-33 -162h-897z" />
    <glyph glyph-name="three" unicode="3" horiz-adv-x="1124" 
d="M35 465h188q-8 -47 -8 -98q0 -120 62.5 -182t183.5 -62q148 0 234.5 87t86.5 236q0 102 -69.5 157.5t-200.5 55.5q-35 0 -53 -2l33 152q23 -2 63 -2q151 0 231 65.5t80 186.5q0 97 -62.5 155t-170.5 58q-243 0 -287 -283h-186q29 214 153.5 328.5t327.5 114.5
q190 0 301 -99.5t111 -265.5q0 -244 -234 -344q154 -95 154 -285q0 -210 -142 -344.5t-370 -134.5q-206 0 -319 104t-113 289q0 52 6 113z" />
    <glyph glyph-name="four" unicode="4" horiz-adv-x="1124" 
d="M528 0l76 358h-608l37 156l815 877h158l-187 -877h205l-33 -156h-207l-75 -358h-181zM217 514h422l129 604z" />
    <glyph glyph-name="five" unicode="5" horiz-adv-x="1124" 
d="M43 401h176v-22q0 -123 62.5 -188.5t179.5 -65.5q160 0 255 109t95 292q0 271 -254 271q-199 0 -278 -152h-170l221 746h725l-33 -160h-573l-109 -367q98 88 266 88q179 0 286 -115t107 -309q0 -251 -154 -411t-390 -160q-193 0 -302.5 109.5t-109.5 304.5v30z" />
    <glyph glyph-name="six" unicode="6" horiz-adv-x="1124" 
d="M303 809q142 133 332 133q175 0 279 -111.5t104 -298.5q0 -254 -144 -412.5t-380 -158.5q-202 0 -313 131t-111 377q0 212 59.5 409.5t157.5 331.5q80 109 192.5 166.5t247.5 57.5q175 0 269 -96t94 -275v-23h-181q0 117 -48.5 174.5t-149.5 57.5q-288 0 -408 -463z
M578 788q-140 0 -231 -106t-91 -276q0 -142 65.5 -219.5t186.5 -77.5q136 0 227.5 115.5t91.5 289.5q0 130 -66.5 202t-182.5 72z" />
    <glyph glyph-name="seven" unicode="7" horiz-adv-x="1124" 
d="M182 0q39 296 214 592t497 633h-739l36 166h949l-31 -152q-327 -341 -505 -643.5t-214 -595.5h-207z" />
    <glyph glyph-name="eight" unicode="8" horiz-adv-x="1124" 
d="M326 768q-142 86 -142 254q0 172 128.5 287.5t328.5 115.5q187 0 297.5 -96t110.5 -252q0 -115 -59.5 -201.5t-168.5 -130.5q158 -103 158 -296q0 -210 -143.5 -348t-368.5 -138q-201 0 -314.5 103.5t-113.5 283.5q0 145 73 250.5t214 167.5zM637 1270
q-121 0 -194.5 -65.5t-73.5 -174.5q0 -97 60 -152t169 -55q118 0 191 68.5t73 171.5q0 95 -61 151t-164 56zM539 672q-135 0 -221.5 -87t-86.5 -225q0 -119 63.5 -181t184.5 -62q134 0 220.5 93t86.5 234q0 107 -64.5 167.5t-182.5 60.5z" />
    <glyph glyph-name="nine" unicode="9" horiz-adv-x="1124" 
d="M213 350q0 -117 48 -174t149 -57q289 0 409 463q-142 -133 -334 -133q-175 0 -278 110.5t-103 298.5q0 254 144.5 413t380.5 159q201 0 312.5 -132.5t111.5 -377.5q0 -210 -60 -409t-157 -331q-79 -109 -192.5 -166t-248.5 -57q-175 0 -268.5 96t-93.5 275v22h180z
M612 1282q-136 0 -226.5 -114.5t-90.5 -288.5q0 -131 66 -204t182 -73q140 0 231.5 107t91.5 278q0 141 -67 218t-187 77z" />
    <glyph glyph-name="colon" unicode=":" horiz-adv-x="608" 
d="M55 0l47 221h222l-48 -221h-221zM229 819l47 221h222l-47 -221h-222z" />
    <glyph glyph-name="semicolon" unicode=";" horiz-adv-x="608" 
d="M-14 -317l22 98q63 22 100 75t54 144h-109l45 219h224l-48 -219q-58 -274 -288 -317zM227 819l47 221h222l-45 -221h-224z" />
    <glyph glyph-name="less" unicode="&#x3c;" horiz-adv-x="1705" 
d="M1442 1006l-969 -396l969 -393v-154l-1178 484v129l1178 483v-153z" />
    <glyph glyph-name="equal" unicode="=" horiz-adv-x="1705" 
d="M1452 879v-140h-1198v140h1198zM1452 481v-139h-1198v139h1198z" />
    <glyph glyph-name="greater" unicode="&#x3e;" horiz-adv-x="1705" 
d="M1442 676v-129l-1178 -484v154l971 393l-971 396v153z" />
    <glyph glyph-name="question" unicode="?" horiz-adv-x="1075" 
d="M340 375q7 115 54.5 199.5t140.5 152.5q36 26 86.5 60t82.5 56.5t50 41.5q92 100 92 217q0 102 -63.5 160.5t-178.5 58.5q-122 0 -197 -78t-92 -225h-178q13 218 139.5 340.5t333.5 122.5q197 0 313.5 -102t116.5 -271q0 -123 -58 -218.5t-183 -182.5q-33 -23 -88 -57
t-89 -59t-55 -52q-42 -53 -55 -164h-172zM260 0l45 213h207l-43 -213h-209z" />
    <glyph glyph-name="at" unicode="@" horiz-adv-x="2048" 
d="M1190 475l59 236q-17 89 -68.5 136.5t-129.5 47.5q-90 0 -165 -59.5t-118 -163t-43 -226.5q0 -106 48.5 -162.5t137.5 -56.5q96 0 173.5 68t105.5 180zM1284 854l57 115h132l-146 -576q-8 -33 -8 -59q0 -94 100 -94q101 0 209 102q79 75 124.5 185.5t45.5 234.5
q0 257 -189 419t-501 162q-266 0 -457 -114t-296 -299.5t-105 -409.5q0 -177 61.5 -307.5t192.5 -230.5q99 -75 234.5 -117.5t289.5 -42.5q169 0 329 49t292 141l55 -82q-296 -223 -664 -223q-382 0 -628 187q-306 236 -306 628q0 335 203 582q145 177 350.5 269.5
t456.5 92.5q166 0 312.5 -46t250.5 -126q129 -100 197 -231t68 -283q0 -175 -63 -315.5t-185 -235.5q-139 -112 -316 -112q-200 0 -200 157v19q-108 -174 -301 -174q-152 0 -233 85.5t-81 246.5q0 156 63.5 283t172.5 198.5t241 71.5q170 0 242 -150z" />
    <glyph glyph-name="A" unicode="A" horiz-adv-x="1236" 
d="M-150 0l793 1473h246l246 -1473h-199l-66 416h-587l-220 -416h-213zM373 588h469l-107 682z" />
    <glyph glyph-name="B" unicode="B" horiz-adv-x="1376" 
d="M4 0l311 1473h549q212 0 320 -91t108 -266q0 -131 -62.5 -220.5t-182.5 -129.5q188 -84 188 -301q0 -157 -88 -279q-74 -105 -177.5 -145.5t-264.5 -40.5h-701zM373 842h342q194 0 287.5 60t93.5 196q0 114 -63 158t-204 44h-360zM229 174h359q91 0 134 1.5t95.5 12
t87.5 31.5q59 37 94 103t35 143q0 121 -72.5 167t-236.5 46h-389z" />
    <glyph glyph-name="C" unicode="C" horiz-adv-x="1447" 
d="M1139 524h188q-58 -265 -239 -417t-431 -152q-268 0 -418.5 167t-150.5 468q0 355 197 622q213 291 571 291q248 0 390 -136t155 -386h-197q-8 164 -103.5 254t-264.5 90q-256 0 -402 -227q-147 -230 -147 -506q0 -229 101.5 -348t293.5 -119q157 0 272.5 100.5
t184.5 298.5z" />
    <glyph glyph-name="D" unicode="D" horiz-adv-x="1460" 
d="M4 0l315 1473h420q322 0 472.5 -145.5t150.5 -465.5q0 -188 -50.5 -347t-142.5 -273q-82 -104 -202 -170q-83 -45 -176 -58.5t-236 -13.5h-551zM236 166h282q177 0 283 34t184 136q164 212 164 534q0 237 -101.5 336t-334.5 99h-234z" />
    <glyph glyph-name="E" unicode="E" horiz-adv-x="1204" 
d="M4 0l311 1473h891l-39 -181h-696l-94 -446h674l-37 -174h-674l-107 -492h752l-39 -180h-942z" />
    <glyph glyph-name="F" unicode="F" horiz-adv-x="1103" 
d="M4 0l309 1473h848l-37 -179h-651l-96 -448h629l-39 -180h-627l-143 -666h-193z" />
    <glyph glyph-name="G" unicode="G" horiz-adv-x="1542" 
d="M1122 0l13 158q-184 -199 -463 -199q-275 0 -428.5 167t-153.5 470q0 195 61 368t171 302q211 243 542 243q263 0 412 -132t162 -376h-197q-11 160 -110.5 247t-272.5 87q-129 0 -229.5 -54t-182.5 -167q-73 -101 -115 -240t-42 -286q0 -218 111 -337.5t315 -119.5
q180 0 309 122t186 349h-462l32 160h654l-160 -762h-152z" />
    <glyph glyph-name="H" unicode="H" horiz-adv-x="1433" 
d="M4 0l311 1473h197l-129 -605h725l127 605h195l-314 -1473h-194l147 696h-723l-149 -696h-193z" />
    <glyph glyph-name="I" unicode="I" horiz-adv-x="532" 
d="M8 0l311 1473h205l-313 -1473h-203z" />
    <glyph glyph-name="J" unicode="J" horiz-adv-x="1011" 
d="M-25 479h193q-27 -111 -27 -176q0 -168 170 -168q66 0 112 20.5t78.5 68t53 108.5t41.5 157l209 984h196l-227 -1061q-51 -237 -158.5 -346t-306.5 -109q-168 0 -262 88t-94 242q0 79 22 192z" />
    <glyph glyph-name="K" unicode="K" horiz-adv-x="1265" 
d="M8 0l316 1473h192l-156 -744l770 744h248l-637 -607l443 -866h-205l-377 739l-299 -274l-100 -465h-195z" />
    <glyph glyph-name="L" unicode="L" horiz-adv-x="1138" 
d="M8 0l311 1473h195l-272 -1291h764l-39 -182h-959z" />
    <glyph glyph-name="M" unicode="M" horiz-adv-x="1726" 
d="M4 0l311 1473h283l162 -1217l667 1217h295l-313 -1473h-184l239 1124q19 87 47 150l-704 -1274h-189l-174 1292v-22q0 -49 -10 -107l-241 -1163h-189z" />
    <glyph glyph-name="N" unicode="N" horiz-adv-x="1431" 
d="M4 0l311 1473h193l481 -1162l246 1162h192l-311 -1473h-188l-486 1153l-245 -1153h-193z" />
    <glyph glyph-name="O" unicode="O" horiz-adv-x="1570" 
d="M80 584q0 185 64.5 362.5t181.5 313.5q104 123 247.5 187t311.5 64q281 0 440.5 -168.5t159.5 -463.5q0 -185 -65.5 -362t-186.5 -316q-100 -116 -243.5 -179t-309.5 -63q-279 0 -439.5 168t-160.5 457zM866 1339q-117 0 -220 -50.5t-179 -145.5q-86 -107 -136 -255.5
t-50 -299.5q0 -215 110.5 -336t304.5 -121q111 0 210.5 46t174.5 132q95 110 148 263t53 323q0 204 -112.5 324t-303.5 120z" />
    <glyph glyph-name="P" unicode="P" horiz-adv-x="1259" 
d="M4 0l313 1473h490q202 0 307 -99.5t105 -286.5q0 -232 -144.5 -351.5t-429.5 -119.5h-313l-133 -616h-195zM369 786h290q189 0 278 71t89 226q0 117 -61 169.5t-191 52.5h-295z" />
    <glyph glyph-name="Q" unicode="Q" horiz-adv-x="1570" 
d="M1133 -197l-187 203q-146 -47 -254 -47q-295 0 -454.5 162t-159.5 459q0 187 64 364.5t180 312.5q104 123 248 188.5t309 65.5q282 0 443 -171t161 -474q0 -244 -100 -448t-285 -336l155 -170zM700 274l121 109l156 -170q143 98 223 271t80 384q0 220 -111.5 343.5
t-306.5 123.5q-117 0 -220 -50.5t-179 -145.5q-87 -108 -137 -258t-50 -308q0 -215 105 -329.5t297 -114.5q50 0 141 16z" />
    <glyph glyph-name="R" unicode="R" horiz-adv-x="1355" 
d="M4 0l315 1473h504q106 0 175 -12.5t128 -51.5q72 -47 111 -125t39 -176q0 -148 -67.5 -250t-196.5 -149q62 -33 86 -82.5t24 -134.5q0 -45 -2 -70l-8 -148q-4 -58 -4 -92q0 -58 8 -90.5t33 -52.5v-39h-234q-18 52 -18 109q0 37 6 114l12 166q3 30 3 55q0 119 -56 157
t-213 38h-315l-139 -639h-191zM371 811h356q173 0 263.5 73.5t90.5 209.5q0 206 -262 206h-346z" />
    <glyph glyph-name="S" unicode="S" horiz-adv-x="1222" 
d="M10 457h185v-27q0 -141 86.5 -220t240.5 -79q153 0 241.5 76t88.5 199q0 21 -2.5 39.5t-10 35t-14 29.5t-21 26.5t-24.5 23t-31.5 22t-34.5 20t-41 20t-43.5 19.5t-49.5 21q-65 28 -107.5 47.5t-89 45t-74.5 48.5t-55 52.5t-41 62.5t-22.5 75t-8.5 92q0 190 139 308
t371 118q230 0 357 -115.5t127 -326.5v-18h-191v6q0 291 -305 291q-141 0 -223 -68t-82 -182q0 -24 3 -44t13 -38t18 -30.5t28.5 -27.5t32.5 -23.5t43.5 -24t47 -22.5t57.5 -25t62 -27q100 -45 163 -81.5t114.5 -84.5t74.5 -106.5t23 -135.5q0 -217 -147.5 -344t-407.5 -127
q-224 0 -358 125t-134 336q0 6 1 19.5t1 19.5z" />
    <glyph glyph-name="T" unicode="T" horiz-adv-x="1107" 
d="M307 0l277 1305h-449l35 168h1055l-37 -168h-408l-276 -1305h-197z" />
    <glyph glyph-name="U" unicode="U" horiz-adv-x="1411" 
d="M313 1473h195l-203 -961q-16 -73 -16 -127q0 -115 80.5 -178.5t226.5 -63.5q177 0 274 83t134 261l208 986h195l-211 -996q-30 -138 -70 -225t-120 -154q-164 -139 -418 -139q-228 0 -362 113.5t-134 298.5q0 50 29 198z" />
    <glyph glyph-name="V" unicode="V" horiz-adv-x="1132" 
d="M338 0l-248 1473h193l192 -1223l586 1223h201l-719 -1473h-205z" />
    <glyph glyph-name="W" unicode="W" horiz-adv-x="1701" 
d="M246 0l-109 1473h182l80 -1133l453 1133h195l112 -1147l447 1147h188l-575 -1473h-197l-117 1171l-463 -1171h-196z" />
    <glyph glyph-name="X" unicode="X" horiz-adv-x="1071" 
d="M-111 0l547 754l-342 719h207l258 -564l391 564h226l-533 -736l348 -737h-207l-266 582l-405 -582h-224z" />
    <glyph glyph-name="Y" unicode="Y" horiz-adv-x="1054" 
d="M276 0l125 610l-331 863h204l254 -682l455 682h223l-614 -893l-119 -580h-197z" />
    <glyph glyph-name="Z" unicode="Z" horiz-adv-x="1175" 
d="M-41 0l37 174l938 1124h-729l39 175h962l-35 -175l-933 -1122h768l-39 -176h-1008z" />
    <glyph glyph-name="bracketleft" unicode="[" horiz-adv-x="724" 
d="M10 -406l396 1879h350l-23 -140h-182l-346 -1607h192l-26 -132h-361z" />
    <glyph glyph-name="backslash" unicode="\" horiz-adv-x="616" 
d="M313 -190l-135 1701h119l139 -1701h-123z" />
    <glyph glyph-name="bracketright" unicode="]" horiz-adv-x="724" 
d="M631 1473l-398 -1879h-348l21 138h184l344 1607h-190l24 134h363z" />
    <glyph glyph-name="asciicircum" unicode="^" horiz-adv-x="2048" 
d="M1116 1458l510 -557h-180l-422 420l-424 -420h-180l510 557h186z" />
    <glyph glyph-name="underscore" unicode="_" 
d="M1024 -340v-143h-1024v143h1024z" />
    <glyph glyph-name="grave" unicode="`" 
d="M762 1214h-109l-301 349h201z" />
    <glyph glyph-name="a" unicode="a" horiz-adv-x="1081" 
d="M655 121q-142 -154 -340 -154q-156 0 -243.5 87t-87.5 241q0 178 113.5 257.5t363.5 94.5q168 11 214 24q67 20 84 76q7 25 7 62q0 71 -49.5 103t-153.5 32q-141 0 -201.5 -35t-87.5 -149h-178q56 338 467 338q188 0 288.5 -66t100.5 -184q0 -25 -20 -127l-98 -455
q-11 -48 -11 -88q0 -59 74 -59q21 0 45 6l-27 -125q-47 -12 -114 -12q-146 0 -146 133zM711 539q-79 -29 -214.5 -40t-174.5 -20q-154 -37 -154 -184q0 -79 48 -125.5t130 -46.5q153 0 246.5 105t118.5 311z" />
    <glyph glyph-name="b" unicode="b" horiz-adv-x="1208" 
d="M653 944q-158 0 -262 -137q-59 -78 -93 -184.5t-34 -210.5q0 -136 69.5 -210.5t194.5 -74.5q108 0 197.5 69.5t141 192.5t51.5 273q0 134 -70 208t-195 74zM-6 2l315 1471h174l-106 -523q132 154 328 154q187 0 296 -116.5t109 -319.5q0 -131 -43.5 -264t-120.5 -238
q-71 -95 -170.5 -146t-216.5 -51q-129 0 -219.5 52.5t-136.5 152.5l-39 -172h-170z" />
    <glyph glyph-name="c" unicode="c" horiz-adv-x="1138" 
d="M797 397h178q-42 -198 -182.5 -315t-329.5 -117q-211 0 -318.5 120t-107.5 355q0 279 174 478q165 186 414 186q192 0 298.5 -102t110.5 -291h-182q0 112 -64.5 174.5t-177.5 62.5q-75 0 -144.5 -40t-122.5 -108t-84.5 -165t-31.5 -205q0 -144 65 -220.5t187 -76.5
q106 0 191.5 70t126.5 194z" />
    <glyph glyph-name="d" unicode="d" horiz-adv-x="1208" 
d="M864 655q0 133 -69 210t-189 77q-161 0 -275 -153.5t-114 -387.5q0 -135 66.5 -211.5t179.5 -76.5q171 0 286 153.5t115 388.5zM758 0l22 133q-149 -168 -348 -168q-191 0 -296 117.5t-105 331.5q0 137 41.5 261.5t117.5 219.5q77 96 183 148.5t217 52.5q225 0 342 -203
l119 580h174l-305 -1473h-162z" />
    <glyph glyph-name="e" unicode="e" horiz-adv-x="1134" 
d="M971 350q-38 -181 -172 -283t-328 -102q-211 0 -323.5 120.5t-112.5 346.5q0 197 72 351t200 238.5t289 84.5q199 0 316.5 -118t117.5 -316q0 -75 -16 -187h-793q-4 -50 -4 -67q0 -144 72 -220.5t207 -76.5q108 0 186 61t106 168h183zM250 631h588q2 16 2 47
q0 127 -65.5 198.5t-178.5 71.5q-128 0 -218.5 -82t-127.5 -235z" />
    <glyph glyph-name="f" unicode="f" horiz-adv-x="544" 
d="M14 0l187 924h-148l29 147h147l35 168q25 129 87 184.5t184 55.5q39 0 122 -11l-30 -161q-39 8 -84 8q-56 0 -74.5 -26t-33.5 -96l-3 -15l-24 -107h182l-29 -147h-184l-187 -924h-176z" />
    <glyph glyph-name="g" unicode="g" horiz-adv-x="1204" 
d="M-18 -106h178v-17q0 -74 64 -119t173 -45q175 0 252 88.5t119 321.5q-121 -139 -313 -139q-196 0 -306 119.5t-110 336.5q0 143 43.5 267.5t118 211.5t177.5 137t218 50q244 0 334 -211l39 176h174l-228 -1089q-46 -220 -173 -323t-351 -103q-194 0 -301.5 88.5
t-107.5 244.5v5zM602 950q-166 0 -270.5 -145.5t-104.5 -380.5q0 -138 67 -212.5t189 -74.5q171 0 277 147t106 390q0 129 -70 202.5t-194 73.5z" />
    <glyph glyph-name="h" unicode="h" horiz-adv-x="1140" 
d="M-6 0l313 1473h178l-116 -551q165 168 376 168q287 0 287 -234q0 -60 -16 -131l-154 -725h-182l149 698q17 80 17 127q0 50 -43.5 81.5t-118.5 31.5q-153 0 -253.5 -101t-141.5 -300l-113 -537h-182z" />
    <glyph glyph-name="i" unicode="i" horiz-adv-x="473" 
d="M-8 0l225 1071h180l-227 -1071h-178zM260 1257l45 216h178l-45 -216h-178z" />
    <glyph glyph-name="j" unicode="j" horiz-adv-x="481" 
d="M-190 -422l26 160q12 -2 35 -2q49 0 69 19.5t31 72.5l265 1243h180l-269 -1264q-27 -125 -85.5 -180t-176.5 -55q-35 0 -75 6zM276 1260l46 213h178l-45 -213h-179z" />
    <glyph glyph-name="k" unicode="k" horiz-adv-x="1011" 
d="M-4 0l309 1473h178l-188 -881l534 479h254l-465 -401l248 -670h-194l-199 545l-229 -199l-76 -346h-172z" />
    <glyph glyph-name="l" unicode="l" horiz-adv-x="473" 
d="M0 0l313 1473h179l-312 -1473h-180z" />
    <glyph glyph-name="m" unicode="m" horiz-adv-x="1697" 
d="M-14 0l225 1071h170l-41 -180q157 194 371 194q232 0 235 -192q173 194 367 194q131 0 203.5 -62.5t72.5 -170.5q0 -42 -14 -113l-160 -741h-190l168 762q8 36 8 61q0 103 -135 103q-112 0 -214 -91.5t-134 -242.5l-130 -592h-184l164 770q8 33 8 59q0 45 -30.5 71
t-86.5 26q-127 0 -227 -89t-131 -227l-135 -610h-180z" />
    <glyph glyph-name="n" unicode="n" horiz-adv-x="1130" 
d="M-14 0l227 1071h164l-35 -160q176 179 391 179q142 0 215.5 -59t73.5 -173q0 -54 -18 -133l-152 -725h-182l149 698q15 77 15 119q0 57 -42 89t-118 32q-153 0 -253.5 -101t-141.5 -300l-113 -537h-180z" />
    <glyph glyph-name="o" unicode="o" horiz-adv-x="1175" 
d="M31 424q0 197 75.5 353t210 242.5t304.5 86.5q205 0 323.5 -122t118.5 -333q0 -299 -166 -489.5t-424 -190.5q-211 0 -326.5 119t-115.5 334zM602 948q-169 0 -272 -151q-51 -76 -81 -181t-30 -206q0 -136 67.5 -209.5t192.5 -73.5q172 0 282.5 152t110.5 393
q0 135 -69 205.5t-201 70.5z" />
    <glyph glyph-name="p" unicode="p" horiz-adv-x="1208" 
d="M-86 -428l301 1499h166l-31 -153q141 178 346 178q184 0 290 -117t106 -328q0 -138 -42.5 -263.5t-119.5 -223.5q-76 -96 -176 -146.5t-211 -50.5q-218 0 -338 193l-121 -588h-170zM659 946q-106 0 -196 -70t-142.5 -195.5t-52.5 -277.5q0 -134 66.5 -208t185.5 -74
q105 0 193 69.5t140 195t52 280.5q0 133 -65.5 206.5t-180.5 73.5z" />
    <glyph glyph-name="q" unicode="q" horiz-adv-x="1208" 
d="M1145 1071l-316 -1499h-178l115 549q-138 -144 -328 -144q-186 0 -294.5 119t-108.5 324q0 133 42.5 261t119.5 228q154 201 385 201q257 0 358 -203l37 164h168zM487 135q157 0 267 144q57 75 91 177t34 199q0 147 -67 222t-198 75q-174 0 -276 -153q-52 -78 -81.5 -179
t-29.5 -202q0 -135 68.5 -209t191.5 -74z" />
    <glyph glyph-name="r" unicode="r" horiz-adv-x="667" 
d="M-8 0l225 1071h172l-45 -199q84 119 152 172.5t151 53.5q35 0 82 -8l-45 -203q-40 4 -59 4q-133 0 -218 -93.5t-126 -283.5l-111 -514h-178z" />
    <glyph glyph-name="s" unicode="s" horiz-adv-x="1007" 
d="M-18 375h170q-2 -12 -2 -37q0 -111 71.5 -169t210.5 -58q103 0 162 44.5t59 118.5q0 63 -40 97t-144 82q-166 78 -198 97q-101 57 -133 129q-21 48 -21 112q0 140 106 226.5t287 86.5q187 0 290 -93.5t103 -260.5v-23h-166v6q0 219 -233 219q-99 0 -155 -39t-56 -104
q0 -20 4.5 -36.5t18.5 -31.5t24.5 -24.5t39 -24.5t44.5 -22.5t57 -26.5q60 -27 91 -42t76 -38.5t67.5 -40.5t49.5 -42.5t39 -50.5t21 -57.5t9 -70.5q0 -151 -116.5 -244.5t-314.5 -93.5q-196 0 -309.5 99.5t-113.5 271.5q0 27 2 41z" />
    <glyph glyph-name="t" unicode="t" horiz-adv-x="542" 
d="M385 0q-81 -23 -125 -23q-225 0 -225 173q0 40 18 131l137 643h-155l33 147h153l62 291h180l-62 -291h185l-31 -147h-186l-140 -662q-12 -52 -12 -76q0 -61 82 -61q51 0 115 12z" />
    <glyph glyph-name="u" unicode="u" horiz-adv-x="1130" 
d="M1067 1071l-225 -1071h-164l33 162q-175 -178 -392 -178q-286 0 -286 229q0 62 16 133l154 725h182l-149 -696q-17 -87 -17 -119q0 -57 43 -90t119 -33q153 0 253.5 101.5t141.5 300.5l113 536h178z" />
    <glyph glyph-name="v" unicode="v" horiz-adv-x="946" 
d="M215 0l-168 1071h174l125 -881l449 881h196l-577 -1071h-199z" />
    <glyph glyph-name="w" unicode="w" horiz-adv-x="1505" 
d="M193 0l-138 1071h174l97 -840l370 840h199l45 -850l422 850h194l-573 -1071h-184l-47 819l-377 -819h-182z" />
    <glyph glyph-name="x" unicode="x" horiz-adv-x="905" 
d="M-147 0l462 557l-260 514h201l180 -381l307 381h211l-438 -532l262 -539h-196l-189 397l-325 -397h-215z" />
    <glyph glyph-name="y" unicode="y" horiz-adv-x="946" 
d="M221 -55l-176 1126h193l116 -901l445 901h198l-696 -1329q-51 -97 -118.5 -139.5t-170.5 -42.5q-38 0 -96 18l39 160q34 -12 70 -12q70 0 108 65z" />
    <glyph glyph-name="z" unicode="z" horiz-adv-x="913" 
d="M-86 0l31 141l696 772h-561l31 158h809l-31 -131l-707 -780h606l-34 -160h-840z" />
    <glyph glyph-name="braceleft" unicode="{" 
d="M866 1327h-41q-125 0 -163.5 -46.5t-38.5 -182.5v-242q0 -150 -41 -222.5t-160 -103.5q121 -31 161 -102.5t40 -222.5v-242q0 -70 7.5 -110t29.5 -69t61.5 -39.5t105.5 -10.5h39v-148h-43q-98 0 -162 10t-110 39q-63 38 -81.5 107t-18.5 201v245q0 147 -54 209t-186 62
q-7 0 -21.5 -1t-21.5 -1v149q8 0 23 -1t22 -1q131 0 184.5 60.5t53.5 207.5v246q0 132 18.5 200.5t81.5 106.5q86 52 278 52h37v-150z" />
    <glyph glyph-name="bar" unicode="|" 
d="M588 1565v-2048h-150v2048h150z" />
    <glyph glyph-name="braceright" unicode="}" 
d="M575 1118v-246q0 -147 53.5 -207.5t184.5 -60.5q7 0 22 1t23 1v-149q-7 0 -22 1t-21 1q-134 0 -187 -61.5t-53 -209.5v-245q0 -132 -18.5 -201t-81.5 -107q-46 -29 -110 -39t-162 -10h-43v148h39q126 0 165 47.5t39 183.5v240q0 150 40.5 222t160.5 103
q-119 31 -160 103.5t-41 222.5v242q0 135 -39 182t-165 47h-39v150h37q194 0 278 -52q63 -38 81.5 -106.5t18.5 -200.5z" />
    <glyph glyph-name="asciitilde" unicode="~" horiz-adv-x="1705" 
d="M1530 614q-203 -141 -389 -141q-22 0 -43 2t-44.5 6.5t-39 8t-43 12.5t-38 12.5t-42.5 14.5t-39 14q-66 23 -99 33t-87.5 21t-102.5 11q-88 0 -180 -38.5t-205 -118.5v155q212 144 387 144q118 0 291 -62q10 -4 56.5 -20.5t63 -21.5t51.5 -15t61.5 -13.5t54.5 -3.5
q92 0 184 38.5t203 117.5v-156z" />
    <glyph glyph-name="exclamdown" unicode="&#xa1;" horiz-adv-x="657" 
d="M584 1473l-47 -224h-220l50 224h217zM461 1100l-187 -1100h-202l276 1100h113z" />
    <glyph glyph-name="cent" unicode="&#xa2;" horiz-adv-x="1124" 
d="M780 397h181q-45 -199 -184.5 -313.5t-330.5 -114.5q-39 0 -59 2l-68 -229h-86l74 242q-142 37 -215.5 148.5t-73.5 293.5q0 194 78 349t217.5 242t315.5 87h18l58 192h86l-62 -204q139 -32 212.5 -129t76.5 -252h-182q-3 175 -154 227l-244 -805q5 0 15.5 -1t15.5 -1
q105 0 186 69t125 197zM600 948q-160 -2 -274.5 -152t-114.5 -366q0 -218 147 -278z" />
    <glyph glyph-name="sterling" unicode="&#xa3;" horiz-adv-x="1124" 
d="M76 -25l-35 175q213 155 213 401q0 55 -8 102h-189l27 103h145q-28 123 -28 211q0 226 134 364.5t349 138.5q178 0 282.5 -93.5t104.5 -243.5q0 -69 -12 -148h-185q13 86 13 117q0 101 -53 154t-154 53q-133 0 -210 -88t-77 -248q0 -79 23 -217h358l-24 -103h-324
q4 -40 4 -59q0 -236 -229 -449q130 50 217 50q65 0 185 -30t171 -30q91 0 197 80l-58 -215q-79 -33 -163 -33q-66 0 -213 40t-226 40q-103 0 -235 -72z" />
    <glyph glyph-name="currency" unicode="&#xa4;" horiz-adv-x="1241" 
d="M367 1219q115 86 254 86q141 0 256 -86l204 204l82 -80l-205 -206q82 -110 82 -252q0 -143 -82 -252l205 -205l-82 -82l-204 205q-117 -86 -254 -86q-141 0 -256 86l-205 -205l-82 82l207 205q-84 106 -84 252q0 139 84 252l-207 206l82 80zM926 887q0 125 -88.5 214
t-214.5 89t-215 -89t-89 -214q0 -126 89 -215.5t215 -89.5t214.5 89.5t88.5 215.5z" />
    <glyph glyph-name="yen" unicode="&#xa5;" horiz-adv-x="1169" 
d="M340 0l115 559h-475l18 92h432l-53 135h-350l20 93h295l-199 512h187l248 -654l438 654h203l-355 -512h318l-21 -93h-360l-92 -135h424l-19 -92h-477l-113 -559h-184z" />
    <glyph glyph-name="brokenbar" unicode="&#xa6;" 
d="M588 1432v-758h-150v758h150zM588 408v-758h-150v758h150z" />
    <glyph glyph-name="section" unicode="&#xa7;" 
d="M35 115h182q9 -77 51.5 -117.5t112.5 -40.5q82 0 130 43.5t48 112.5q0 24 -8 46t-15 35t-31.5 36t-34 30.5t-46.5 36.5l-176 139q-87 68 -126.5 126t-39.5 128q0 167 205 281q-60 89 -60 198q0 135 98.5 226.5t243.5 91.5q161 0 249.5 -78t88.5 -221q0 -5 -1 -16.5
t-1 -16.5h-184q0 90 -37.5 131t-120.5 41q-67 0 -108 -37t-41 -96q0 -55 35.5 -99t115.5 -106l158 -121q87 -66 128.5 -131t41.5 -143q0 -186 -205 -295q57 -75 57 -182q0 -138 -101 -233t-253 -95q-175 0 -265.5 83t-90.5 243zM584 401q135 61 135 156q0 44 -26 82.5
t-81 79.5l-217 164q-133 -51 -133 -164q0 -38 26.5 -71t88.5 -81z" />
    <glyph glyph-name="dieresis" unicode="&#xa8;" 
d="M371 1274l45 209h182l-43 -209h-184zM700 1274l45 209h183l-43 -209h-185z" />
    <glyph glyph-name="copyright" unicode="&#xa9;" horiz-adv-x="1705" 
d="M852 1464q309 0 524 -215q103 -103 159 -238t56 -284q0 -150 -55 -282t-158 -234q-109 -106 -245 -163.5t-281 -57.5q-146 0 -279 56.5t-239 162.5t-161.5 239t-55.5 279q0 147 56 281.5t163 242.5q103 103 235.5 158t280.5 55zM1493 727q0 130 -47.5 247t-136.5 206
q-188 188 -455 188q-264 0 -448 -184q-93 -93 -143 -211.5t-50 -245.5q0 -126 49 -242.5t141 -208.5q188 -188 451 -188q126 0 242.5 49t212.5 142q184 181 184 448zM1053 907q-12 77 -65.5 118.5t-139.5 41.5q-103 0 -164 -89t-61 -251q0 -158 62.5 -245t172.5 -87
q82 0 137 46.5t68 129.5h145q-9 -131 -107 -211.5t-249 -80.5q-181 0 -285 119.5t-104 334.5q0 201 109.5 323t285.5 122q142 0 236.5 -75.5t105.5 -195.5h-147z" />
    <glyph glyph-name="ordfeminine" unicode="&#xaa;" horiz-adv-x="811" 
d="M492 805q-104 -107 -254 -107q-118 0 -184 61t-66 169q0 124 85 179.5t273 66.5q137 8 172 21q50 17 56 70q1 10 1 21q0 50 -37 73t-116 23q-105 0 -150.5 -24.5t-64.5 -104.5h-135q43 236 350 236q141 0 217 -46t76 -128q0 -17 -17 -90l-73 -318q-7 -29 -7 -61
q0 -41 56 -41q21 0 33 4l-21 -88q-39 -8 -86 -8q-108 0 -108 92zM532 1098q-59 -20 -160.5 -27.5t-129.5 -13.5q-115 -27 -115 -129q0 -57 35.5 -89t97.5 -32q115 0 184 73.5t88 217.5z" />
    <glyph glyph-name="guillemotleft" unicode="&#xab;" horiz-adv-x="909" 
d="M35 473l33 160l389 244l-37 -177l-258 -161l184 -185l-35 -159zM444 473l33 160l389 244l-37 -177l-258 -161l185 -185l-35 -159z" />
    <glyph glyph-name="logicalnot" unicode="&#xac;" horiz-adv-x="1705" 
d="M1452 860v-502h-137v363h-1061v139h1198z" />
    <glyph glyph-name="registered" unicode="&#xae;" horiz-adv-x="1705" 
d="M852 1464q151 0 285.5 -56t240.5 -163q102 -104 157.5 -237.5t55.5 -280.5q0 -309 -215 -518q-109 -106 -244 -162.5t-280 -56.5q-147 0 -280.5 57t-239.5 164q-105 106 -160 238t-55 278t58 282.5t165 245.5q206 209 512 209zM1493 721q0 275 -182 457
q-187 190 -457 190q-267 0 -446 -182q-94 -95 -144.5 -214t-50.5 -245q0 -257 188 -448q90 -92 206.5 -141.5t240.5 -49.5q265 0 459 188q90 87 138 202t48 243zM872 1159q349 0 349 -229q0 -89 -50 -147.5t-141 -77.5l187 -381h-177l-170 356h-155v-356h-158v835h315z
M844 1057h-129v-277h133q110 0 160.5 30.5t50.5 102.5q0 76 -52 110t-163 34z" />
    <glyph glyph-name="macron" unicode="&#xaf;" 
d="M365 1307l30 141h539l-29 -141h-540z" />
    <glyph glyph-name="degree" unicode="&#xb0;" horiz-adv-x="673" 
d="M338 1456q119 0 203 -84.5t84 -204.5q0 -118 -83.5 -202t-205.5 -84q-121 0 -204 83t-83 203q0 121 85 205t204 84zM530 1169q0 80 -55.5 136.5t-136.5 56.5q-80 0 -137.5 -56t-57.5 -137q0 -82 56.5 -139t138.5 -57t137 57.5t55 138.5z" />
    <glyph glyph-name="plusminus" unicode="&#xb1;" horiz-adv-x="1705" 
d="M924 1192v-340h528v-139h-528v-340h-142v340h-528v139h528v340h142zM1452 170v-141h-1198v141h1198z" />
    <glyph glyph-name="twosuperior" unicode="&#xb2;" horiz-adv-x="741" 
d="M4 557q15 142 102 223q61 59 220 148q43 24 61.5 35t50.5 31.5t45.5 32t33 31t27 35.5t13.5 37.5t6 45.5q0 66 -41 103.5t-110 37.5q-90 0 -139.5 -46.5t-63.5 -140.5h-125q19 139 102.5 212t223.5 73q128 0 204 -64.5t76 -170.5q0 -95 -56.5 -161t-182.5 -138
q-22 -13 -68 -39t-66.5 -38t-53.5 -33.5t-50 -37t-35 -37t-28 -43.5h468l-22 -96h-592z" />
    <glyph glyph-name="threesuperior" unicode="&#xb3;" horiz-adv-x="741" 
d="M23 836h124q-6 -30 -6 -60q0 -145 164 -145q97 0 154 52.5t57 141.5q0 61 -45.5 94t-132.5 33h-35l21 90q16 -2 43 -2q99 0 151.5 39.5t52.5 112.5q0 59 -41 94t-112 35q-162 0 -189 -170h-125q20 128 102.5 196t217.5 68q124 0 197 -59t73 -158q0 -148 -153 -207
q102 -58 102 -172q0 -125 -94 -206t-244 -81q-137 0 -212 62.5t-75 173.5q0 5 5 68z" />
    <glyph glyph-name="acute" unicode="&#xb4;" 
d="M600 1214h-121l232 349h190z" />
    <glyph glyph-name="paragraph" unicode="&#xb6;" 
d="M958 1393h-120v-1393h-111v1393h-178v-1393h-111v782q-172 7 -272 102t-100 246q0 156 106.5 252.5t286.5 96.5h499v-86z" />
    <glyph glyph-name="periodcentered" unicode="&#xb7;" horiz-adv-x="561" 
d="M154 702q0 53 36.5 90t90.5 37t91.5 -36.5t37.5 -90.5t-37.5 -91.5t-91.5 -37.5q-53 0 -90 38t-37 91z" />
    <glyph glyph-name="cedilla" unicode="&#xb8;" 
d="M63 -422l37 98q149 -45 211 -45q71 0 104.5 23t33.5 76q0 45 -42 62.5t-137 17.5h-22l65 190h78l-35 -102h23q213 0 213 -166q0 -98 -64 -151.5t-186 -53.5q-95 0 -279 51z" />
    <glyph glyph-name="onesuperior" unicode="&#xb9;" horiz-adv-x="741" 
d="M264 557l150 649q-101 -29 -260 -32l20 81q256 6 324 160h86l-201 -858h-119z" />
    <glyph glyph-name="ordmasculine" unicode="&#xba;" horiz-adv-x="882" 
d="M23 1018q0 209 124 343t318 134q155 0 243.5 -85t88.5 -232q0 -210 -124.5 -344t-318.5 -134q-157 0 -244 83.5t-87 234.5zM453 1384q-130 0 -205 -106q-38 -54 -61 -127t-23 -143q0 -95 51 -147t145 -52q129 0 212 107.5t83 275.5q0 94 -52 143t-150 49z" />
    <glyph glyph-name="guillemotright" unicode="&#xbb;" horiz-adv-x="909" 
d="M401 600l-32 -162l-389 -243l36 176l258 161l-184 185l35 160zM813 600l-35 -162l-389 -243l37 176l258 161l-182 185l35 160z" />
    <glyph glyph-name="onequarter" unicode="&#xbc;" horiz-adv-x="1757" 
d="M252 612l143 607q-103 -28 -248 -31l19 76q125 3 200 39t109 110h82l-192 -801h-113zM367 -41l899 1473h125l-899 -1473h-125zM1384 0l48 201h-383l22 88l514 489h98l-116 -489h129l-21 -88h-131l-47 -201h-113zM1188 289h266l80 338z" />
    <glyph glyph-name="onehalf" unicode="&#xbd;" horiz-adv-x="1757" 
d="M252 612l143 607q-103 -28 -248 -31l19 76q125 3 200 39t109 110h82l-192 -801h-113zM367 -41l899 1473h125l-899 -1473h-125zM1055 0q12 132 98 209q10 10 22 20t22 17.5t26 18t24.5 16t28.5 17t27 15.5t30 17t29 16q56 32 79 45.5t59 39t50 44t25.5 45.5t11.5 58
q0 61 -38.5 96t-104.5 35q-87 0 -134 -42t-59 -130h-121q19 130 98.5 197t213.5 67q123 0 195.5 -60t72.5 -159q0 -89 -54.5 -151.5t-174.5 -129.5q-22 -12 -65.5 -36t-63 -35t-51 -31t-48 -34t-33.5 -34t-26 -41h446l-20 -90h-565z" />
    <glyph glyph-name="threequarters" unicode="&#xbe;" horiz-adv-x="1759" 
d="M23 872h118q-6 -27 -6 -55q0 -66 40 -100.5t116 -34.5q93 0 148 48.5t55 131.5q0 57 -44 88t-128 31h-33l20 84h41q95 0 145 36.5t50 104.5q0 54 -39.5 86.5t-106.5 32.5q-155 0 -182 -160h-117q19 120 97 184t206 64q120 0 190.5 -55t70.5 -148q0 -135 -148 -192
q96 -56 96 -160q0 -118 -88.5 -193t-232.5 -75q-130 0 -201.5 58t-71.5 161q0 34 5 63zM367 -41l899 1473h125l-899 -1473h-125zM1384 0l48 201h-383l22 88l514 489h98l-116 -489h129l-21 -88h-131l-47 -201h-113zM1188 289h266l80 338z" />
    <glyph glyph-name="questiondown" unicode="&#xbf;" horiz-adv-x="1075" 
d="M764 1446l-45 -213h-207l43 213h209zM684 1071q-14 -222 -195 -354q-36 -27 -86.5 -59.5t-82.5 -55t-50 -41.5q-92 -100 -92 -217q0 -102 63.5 -160.5t178.5 -58.5q122 0 197 78t92 225h178q-13 -219 -139.5 -342t-333.5 -123q-197 0 -313.5 102.5t-116.5 272.5
q0 123 58 217t183 182q31 22 87.5 57t90 60.5t54.5 52.5q42 53 55 164h172z" />
    <glyph glyph-name="Agrave" unicode="&#xc0;" horiz-adv-x="1236" 
d="M-150 0l793 1473h246l246 -1473h-199l-66 416h-587l-220 -416h-213zM373 588h469l-107 682zM928 1620h-109l-301 348h201z" />
    <glyph glyph-name="Aacute" unicode="&#xc1;" horiz-adv-x="1236" 
d="M-150 0l793 1473h246l246 -1473h-199l-66 416h-587l-220 -416h-213zM373 588h469l-107 682zM766 1620h-121l232 348h190z" />
    <glyph glyph-name="Acircumflex" unicode="&#xc2;" horiz-adv-x="1236" 
d="M-150 0l793 1473h246l246 -1473h-199l-66 416h-587l-220 -416h-213zM373 588h469l-107 682zM1071 1620h-108l-134 219l-225 -219h-121l267 348h184z" />
    <glyph glyph-name="Atilde" unicode="&#xc3;" horiz-adv-x="1236" 
d="M-150 0l793 1473h246l246 -1473h-199l-66 416h-587l-220 -416h-213zM373 588h469l-107 682zM1114 1903q-28 -103 -78 -152t-129 -49q-33 0 -57 8l-88 29q-27 8 -55 8q-68 0 -86 -80h-103q50 209 201 209q31 0 69 -10l89 -27q24 -8 47 -8q34 0 55 17t33 55h102z" />
    <glyph glyph-name="Adieresis" unicode="&#xc4;" horiz-adv-x="1236" 
d="M-150 0l793 1473h246l246 -1473h-199l-66 416h-587l-220 -416h-213zM373 588h469l-107 682zM537 1679l45 209h182l-43 -209h-184zM866 1679l45 209h183l-43 -209h-185z" />
    <glyph glyph-name="Aring" unicode="&#xc5;" horiz-adv-x="1236" 
d="M-150 0l793 1473h246l246 -1473h-199l-66 416h-587l-220 -416h-213zM373 588h469l-107 682zM557 1747q0 95 66 160t161 65t159.5 -65t64.5 -160q0 -94 -64.5 -159.5t-159.5 -65.5q-94 0 -160.5 65.5t-66.5 159.5zM668 1747q0 -49 33 -82t81 -33q49 0 82 33.5t33 81.5
q0 47 -34 81t-81 34q-48 0 -81 -33t-33 -82z" />
    <glyph glyph-name="AE" unicode="&#xc6;" horiz-adv-x="1914" 
d="M-182 0l895 1473h1204l-37 -181h-696l-94 -446h673l-34 -174h-676l-107 -492h750l-39 -180h-940l90 416h-526l-248 -416h-215zM383 588h459l153 710h-188z" />
    <glyph glyph-name="Ccedilla" unicode="&#xc7;" horiz-adv-x="1447" 
d="M1139 524h188q-58 -265 -239 -417t-431 -152q-268 0 -418.5 167t-150.5 468q0 355 197 622q213 291 571 291q248 0 390 -136t155 -386h-197q-8 164 -103.5 254t-264.5 90q-256 0 -402 -227q-147 -230 -147 -506q0 -229 101.5 -348t293.5 -119q157 0 272.5 100.5
t184.5 298.5zM379 -422l37 98q149 -45 211 -45q71 0 104 23t33 76q0 45 -41.5 62.5t-136.5 17.5h-23l66 190h78l-35 -102h22q213 0 213 -166q0 -98 -64 -151.5t-186 -53.5q-94 0 -278 51z" />
    <glyph glyph-name="Egrave" unicode="&#xc8;" horiz-adv-x="1204" 
d="M4 0l311 1473h891l-39 -181h-696l-94 -446h674l-37 -174h-674l-107 -492h752l-39 -180h-942zM934 1620h-109l-301 348h201z" />
    <glyph glyph-name="Eacute" unicode="&#xc9;" horiz-adv-x="1204" 
d="M4 0l311 1473h891l-39 -181h-696l-94 -446h674l-37 -174h-674l-107 -492h752l-39 -180h-942zM772 1620h-121l232 348h190z" />
    <glyph glyph-name="Ecircumflex" unicode="&#xca;" horiz-adv-x="1204" 
d="M4 0l311 1473h891l-39 -181h-696l-94 -446h674l-37 -174h-674l-107 -492h752l-39 -180h-942zM1077 1620h-108l-133 219l-226 -219h-121l267 348h184z" />
    <glyph glyph-name="Edieresis" unicode="&#xcb;" horiz-adv-x="1204" 
d="M4 0l311 1473h891l-39 -181h-696l-94 -446h674l-37 -174h-674l-107 -492h752l-39 -180h-942zM543 1679l45 209h182l-43 -209h-184zM872 1679l46 209h182l-43 -209h-185z" />
    <glyph glyph-name="Igrave" unicode="&#xcc;" horiz-adv-x="532" 
d="M8 0l311 1473h205l-313 -1473h-203zM598 1620h-109l-301 348h201z" />
    <glyph glyph-name="Iacute" unicode="&#xcd;" horiz-adv-x="532" 
d="M8 0l311 1473h205l-313 -1473h-203zM436 1620h-121l232 348h190z" />
    <glyph glyph-name="Icircumflex" unicode="&#xce;" horiz-adv-x="532" 
d="M8 0l311 1473h205l-313 -1473h-203zM741 1620h-108l-133 219l-226 -219h-120l266 348h184z" />
    <glyph glyph-name="Idieresis" unicode="&#xcf;" horiz-adv-x="532" 
d="M8 0l311 1473h205l-313 -1473h-203zM207 1679l45 209h182l-43 -209h-184zM537 1679l45 209h182l-43 -209h-184z" />
    <glyph glyph-name="Eth" unicode="&#xd0;" horiz-adv-x="1470" 
d="M12 0l156 719h-168l27 127h170l133 627h420q321 0 470.5 -145t149.5 -466q0 -189 -49 -347.5t-141 -272.5q-80 -101 -205 -170q-83 -45 -176 -58.5t-236 -13.5h-551zM362 719l-118 -553h282q177 0 283 34t184 136q166 215 166 534q0 237 -102.5 336t-335.5 99h-234
l-96 -459h385l-26 -127h-388z" />
    <glyph glyph-name="Ntilde" unicode="&#xd1;" horiz-adv-x="1431" 
d="M4 0l311 1473h193l481 -1162l246 1162h192l-311 -1473h-188l-486 1153l-245 -1153h-193zM1233 1903q-28 -103 -78 -152t-129 -49q-33 0 -57 8l-88 29q-27 8 -56 8q-68 0 -86 -80h-102q50 209 201 209q31 0 69 -10l88 -27q24 -8 47 -8q34 0 55 17t33 55h103z" />
    <glyph glyph-name="Ograve" unicode="&#xd2;" horiz-adv-x="1570" 
d="M80 584q0 185 64.5 362.5t181.5 313.5q104 123 247.5 187t311.5 64q281 0 440.5 -168.5t159.5 -463.5q0 -185 -65.5 -362t-186.5 -316q-100 -116 -243.5 -179t-309.5 -63q-279 0 -439.5 168t-160.5 457zM866 1339q-117 0 -220 -50.5t-179 -145.5q-86 -107 -136 -255.5
t-50 -299.5q0 -215 110.5 -336t304.5 -121q111 0 210.5 46t174.5 132q95 110 148 263t53 323q0 204 -112.5 324t-303.5 120zM1081 1620h-108l-301 348h200z" />
    <glyph glyph-name="Oacute" unicode="&#xd3;" horiz-adv-x="1570" 
d="M80 584q0 185 64.5 362.5t181.5 313.5q104 123 247.5 187t311.5 64q281 0 440.5 -168.5t159.5 -463.5q0 -185 -65.5 -362t-186.5 -316q-100 -116 -243.5 -179t-309.5 -63q-279 0 -439.5 168t-160.5 457zM866 1339q-117 0 -220 -50.5t-179 -145.5q-86 -107 -136 -255.5
t-50 -299.5q0 -215 110.5 -336t304.5 -121q111 0 210.5 46t174.5 132q95 110 148 263t53 323q0 204 -112.5 324t-303.5 120zM920 1620h-121l231 348h191z" />
    <glyph glyph-name="Ocircumflex" unicode="&#xd4;" horiz-adv-x="1570" 
d="M80 584q0 185 64.5 362.5t181.5 313.5q104 123 247.5 187t311.5 64q281 0 440.5 -168.5t159.5 -463.5q0 -185 -65.5 -362t-186.5 -316q-100 -116 -243.5 -179t-309.5 -63q-279 0 -439.5 168t-160.5 457zM866 1339q-117 0 -220 -50.5t-179 -145.5q-86 -107 -136 -255.5
t-50 -299.5q0 -215 110.5 -336t304.5 -121q111 0 210.5 46t174.5 132q95 110 148 263t53 323q0 204 -112.5 324t-303.5 120zM1225 1620h-109l-133 219l-225 -219h-121l266 348h184z" />
    <glyph glyph-name="Otilde" unicode="&#xd5;" horiz-adv-x="1570" 
d="M80 584q0 185 64.5 362.5t181.5 313.5q104 123 247.5 187t311.5 64q281 0 440.5 -168.5t159.5 -463.5q0 -185 -65.5 -362t-186.5 -316q-100 -116 -243.5 -179t-309.5 -63q-279 0 -439.5 168t-160.5 457zM866 1339q-117 0 -220 -50.5t-179 -145.5q-86 -107 -136 -255.5
t-50 -299.5q0 -215 110.5 -336t304.5 -121q111 0 210.5 46t174.5 132q95 110 148 263t53 323q0 204 -112.5 324t-303.5 120zM1268 1903q-28 -103 -78 -152t-129 -49q-33 0 -57 8l-89 29q-27 8 -55 8q-68 0 -86 -80h-102q50 209 200 209q32 0 70 -10l88 -27q24 -8 47 -8
q34 0 55 17t33 55h103z" />
    <glyph glyph-name="Odieresis" unicode="&#xd6;" horiz-adv-x="1570" 
d="M80 584q0 185 64.5 362.5t181.5 313.5q104 123 247.5 187t311.5 64q281 0 440.5 -168.5t159.5 -463.5q0 -185 -65.5 -362t-186.5 -316q-100 -116 -243.5 -179t-309.5 -63q-279 0 -439.5 168t-160.5 457zM866 1339q-117 0 -220 -50.5t-179 -145.5q-86 -107 -136 -255.5
t-50 -299.5q0 -215 110.5 -336t304.5 -121q111 0 210.5 46t174.5 132q95 110 148 263t53 323q0 204 -112.5 324t-303.5 120zM690 1679l45 209h183l-44 -209h-184zM1020 1679l45 209h182l-43 -209h-184z" />
    <glyph glyph-name="multiply" unicode="&#xd7;" horiz-adv-x="1705" 
d="M860 709l469 469l98 -99l-469 -469l469 -469l-98 -96l-469 467l-469 -467l-98 96l469 469l-469 469l98 99z" />
    <glyph glyph-name="Oslash" unicode="&#xd8;" horiz-adv-x="1570" 
d="M137 -39l-69 59l133 148q-125 173 -125 405q0 189 65 369.5t181 314.5q104 123 248 188.5t311 65.5q244 0 411 -145l127 139l70 -61l-131 -146q125 -172 125 -428q0 -192 -63.5 -364t-184.5 -307q-212 -238 -565 -238q-257 0 -408 137zM1163 1219q-118 112 -307 112
q-235 0 -389 -192q-88 -109 -138 -262.5t-50 -319.5q0 -133 57 -244zM389 240q105 -111 305 -111q237 0 393 176q89 102 143 253.5t54 313.5q0 149 -67 277z" />
    <glyph glyph-name="Ugrave" unicode="&#xd9;" horiz-adv-x="1411" 
d="M313 1473h195l-203 -961q-16 -73 -16 -127q0 -115 80.5 -178.5t226.5 -63.5q177 0 274 83t134 261l208 986h195l-211 -996q-30 -138 -70 -225t-120 -154q-164 -139 -418 -139q-228 0 -362 113.5t-134 298.5q0 50 29 198zM1026 1620h-108l-302 348h201z" />
    <glyph glyph-name="Uacute" unicode="&#xda;" horiz-adv-x="1411" 
d="M313 1473h195l-203 -961q-16 -73 -16 -127q0 -115 80.5 -178.5t226.5 -63.5q177 0 274 83t134 261l208 986h195l-211 -996q-30 -138 -70 -225t-120 -154q-164 -139 -418 -139q-228 0 -362 113.5t-134 298.5q0 50 29 198zM864 1620h-121l232 348h190z" />
    <glyph glyph-name="Ucircumflex" unicode="&#xdb;" horiz-adv-x="1411" 
d="M313 1473h195l-203 -961q-16 -73 -16 -127q0 -115 80.5 -178.5t226.5 -63.5q177 0 274 83t134 261l208 986h195l-211 -996q-30 -138 -70 -225t-120 -154q-164 -139 -418 -139q-228 0 -362 113.5t-134 298.5q0 50 29 198zM1169 1620h-108l-133 219l-226 -219h-120l266 348
h184z" />
    <glyph glyph-name="Udieresis" unicode="&#xdc;" horiz-adv-x="1411" 
d="M313 1473h195l-203 -961q-16 -73 -16 -127q0 -115 80.5 -178.5t226.5 -63.5q177 0 274 83t134 261l208 986h195l-211 -996q-30 -138 -70 -225t-120 -154q-164 -139 -418 -139q-228 0 -362 113.5t-134 298.5q0 50 29 198zM635 1679l45 209h182l-43 -209h-184zM965 1679
l45 209h182l-43 -209h-184z" />
    <glyph glyph-name="Yacute" unicode="&#xdd;" horiz-adv-x="1054" 
d="M276 0l125 610l-331 863h204l254 -682l455 682h223l-614 -893l-119 -580h-197zM696 1620h-121l232 348h190z" />
    <glyph glyph-name="Thorn" unicode="&#xde;" horiz-adv-x="1232" 
d="M6 0l313 1473h193l-59 -285h297q203 0 307 -91t104 -266q0 -436 -571 -436h-305l-84 -395h-195zM319 563h283q193 0 280 64t87 213q0 100 -59.5 141t-192.5 41h-299z" />
    <glyph glyph-name="germandbls" unicode="&#xdf;" horiz-adv-x="1142" 
d="M-10 0l243 1126q37 173 154 266t297 93q185 0 289 -93.5t104 -258.5q0 -116 -59.5 -204t-171.5 -132q162 -104 162 -293q0 -226 -154 -374t-399 -148q-65 0 -142 18l37 162q76 -17 119 -17q149 0 245.5 96.5t96.5 239.5q0 129 -70 191.5t-213 62.5q-38 0 -61 -2l35 144
q30 -3 57 -3q330 0 330 261q0 88 -57.5 139t-157.5 51q-104 0 -171.5 -57t-90.5 -166l-240 -1102h-182z" />
    <glyph glyph-name="agrave" unicode="&#xe0;" horiz-adv-x="1081" 
d="M655 121q-142 -154 -340 -154q-156 0 -243.5 87t-87.5 241q0 178 113.5 257.5t363.5 94.5q168 11 214 24q67 20 84 76q7 25 7 62q0 71 -49.5 103t-153.5 32q-141 0 -201.5 -35t-87.5 -149h-178q56 338 467 338q188 0 288.5 -66t100.5 -184q0 -25 -20 -127l-98 -455
q-11 -48 -11 -88q0 -59 74 -59q21 0 45 6l-27 -125q-47 -12 -114 -12q-146 0 -146 133zM711 539q-79 -29 -214.5 -40t-174.5 -20q-154 -37 -154 -184q0 -79 48 -125.5t130 -46.5q153 0 246.5 105t118.5 311zM772 1214h-108l-302 349h201z" />
    <glyph glyph-name="aacute" unicode="&#xe1;" horiz-adv-x="1081" 
d="M655 121q-142 -154 -340 -154q-156 0 -243.5 87t-87.5 241q0 178 113.5 257.5t363.5 94.5q168 11 214 24q67 20 84 76q7 25 7 62q0 71 -49.5 103t-153.5 32q-141 0 -201.5 -35t-87.5 -149h-178q56 338 467 338q188 0 288.5 -66t100.5 -184q0 -25 -20 -127l-98 -455
q-11 -48 -11 -88q0 -59 74 -59q21 0 45 6l-27 -125q-47 -12 -114 -12q-146 0 -146 133zM711 539q-79 -29 -214.5 -40t-174.5 -20q-154 -37 -154 -184q0 -79 48 -125.5t130 -46.5q153 0 246.5 105t118.5 311zM610 1214h-121l232 349h190z" />
    <glyph glyph-name="acircumflex" unicode="&#xe2;" horiz-adv-x="1081" 
d="M655 121q-142 -154 -340 -154q-156 0 -243.5 87t-87.5 241q0 178 113.5 257.5t363.5 94.5q168 11 214 24q67 20 84 76q7 25 7 62q0 71 -49.5 103t-153.5 32q-141 0 -201.5 -35t-87.5 -149h-178q56 338 467 338q188 0 288.5 -66t100.5 -184q0 -25 -20 -127l-98 -455
q-11 -48 -11 -88q0 -59 74 -59q21 0 45 6l-27 -125q-47 -12 -114 -12q-146 0 -146 133zM711 539q-79 -29 -214.5 -40t-174.5 -20q-154 -37 -154 -184q0 -79 48 -125.5t130 -46.5q153 0 246.5 105t118.5 311zM915 1214h-108l-133 220l-225 -220h-121l266 349h184z" />
    <glyph glyph-name="atilde" unicode="&#xe3;" horiz-adv-x="1081" 
d="M655 121q-142 -154 -340 -154q-156 0 -243.5 87t-87.5 241q0 178 113.5 257.5t363.5 94.5q168 11 214 24q67 20 84 76q7 25 7 62q0 71 -49.5 103t-153.5 32q-141 0 -201.5 -35t-87.5 -149h-178q56 338 467 338q188 0 288.5 -66t100.5 -184q0 -25 -20 -127l-98 -455
q-11 -48 -11 -88q0 -59 74 -59q21 0 45 6l-27 -125q-47 -12 -114 -12q-146 0 -146 133zM711 539q-79 -29 -214.5 -40t-174.5 -20q-154 -37 -154 -184q0 -79 48 -125.5t130 -46.5q153 0 246.5 105t118.5 311zM958 1497q-28 -103 -77.5 -152t-128.5 -49q-31 0 -58 9l-88 28
q-27 8 -55 8q-68 0 -86 -79h-103q49 208 201 208q32 0 70 -10l88 -26q27 -9 47 -9q34 0 55 17t33 55h102z" />
    <glyph glyph-name="adieresis" unicode="&#xe4;" horiz-adv-x="1081" 
d="M655 121q-142 -154 -340 -154q-156 0 -243.5 87t-87.5 241q0 178 113.5 257.5t363.5 94.5q168 11 214 24q67 20 84 76q7 25 7 62q0 71 -49.5 103t-153.5 32q-141 0 -201.5 -35t-87.5 -149h-178q56 338 467 338q188 0 288.5 -66t100.5 -184q0 -25 -20 -127l-98 -455
q-11 -48 -11 -88q0 -59 74 -59q21 0 45 6l-27 -125q-47 -12 -114 -12q-146 0 -146 133zM711 539q-79 -29 -214.5 -40t-174.5 -20q-154 -37 -154 -184q0 -79 48 -125.5t130 -46.5q153 0 246.5 105t118.5 311zM381 1274l45 209h182l-43 -209h-184zM711 1274l45 209h182
l-43 -209h-184z" />
    <glyph glyph-name="aring" unicode="&#xe5;" horiz-adv-x="1081" 
d="M711 539q-79 -29 -214.5 -40t-174.5 -20q-154 -37 -154 -184q0 -79 48 -125.5t130 -46.5q153 0 246.5 105t118.5 311zM655 121q-142 -154 -340 -154q-156 0 -243.5 87t-87.5 241q0 178 113.5 257.5t363.5 94.5q168 11 214 24q67 20 84 76q7 25 7 62q0 71 -49.5 103
t-153.5 32q-141 0 -201.5 -35t-87.5 -149h-178q56 338 467 338q188 0 288.5 -66t100.5 -184q0 -25 -20 -127l-98 -455q-11 -48 -11 -88q0 -59 74 -59q21 0 45 6l-27 -125q-47 -12 -114 -12q-146 0 -146 133zM403 1370q0 95 66 160t162 65q95 0 159 -65t64 -160
q0 -94 -64 -159.5t-159 -65.5q-94 0 -161 66t-67 159zM514 1370q0 -49 33.5 -82t81.5 -33q49 0 81.5 33.5t32.5 81.5q0 47 -33.5 81t-80.5 34q-48 0 -81.5 -33t-33.5 -82z" />
    <glyph glyph-name="ae" unicode="&#xe6;" horiz-adv-x="1771" 
d="M733 215q-177 -248 -418 -248q-154 0 -242.5 86.5t-88.5 235.5q0 99 30 165t96 106.5t154 60.5t221 30q157 12 199 24q67 19 84 74q8 27 8 66q0 63 -58 98t-169 35q-130 0 -190.5 -38.5t-84.5 -145.5h-178q56 338 457 338q254 0 360 -135q153 135 363 135
q171 0 279 -121.5t108 -321.5q0 -46 -14 -165h-772q-5 -63 -5 -68q0 -146 69 -224.5t192 -78.5q110 0 190.5 60.5t106.5 166.5h180q-40 -180 -170.5 -281.5t-321.5 -101.5q-151 0 -250.5 64.5t-134.5 183.5zM725 551q-78 -32 -165.5 -44.5t-159.5 -16.5t-107 -17
q-65 -23 -95 -66.5t-30 -113.5q0 -79 50 -124.5t136 -45.5q146 0 248 114t123 314zM909 637h568v37q0 274 -232 274q-124 0 -218.5 -86t-117.5 -225z" />
    <glyph glyph-name="ccedilla" unicode="&#xe7;" horiz-adv-x="1138" 
d="M797 397h178q-42 -198 -182.5 -315t-329.5 -117q-211 0 -318.5 120t-107.5 355q0 279 174 478q165 186 414 186q192 0 298.5 -102t110.5 -291h-182q0 112 -64.5 174.5t-177.5 62.5q-75 0 -144.5 -40t-122.5 -108t-84.5 -165t-31.5 -205q0 -144 65 -220.5t187 -76.5
q106 0 191.5 70t126.5 194zM178 -422l37 98q149 -45 211 -45q70 0 103.5 23t33.5 76q0 45 -41.5 62.5t-136.5 17.5h-23l66 190h78l-35 -102h23q213 0 213 -166q0 -98 -64 -151.5t-186 -53.5q-95 0 -279 51z" />
    <glyph glyph-name="egrave" unicode="&#xe8;" horiz-adv-x="1134" 
d="M971 350q-38 -181 -172 -283t-328 -102q-211 0 -323.5 120.5t-112.5 346.5q0 197 72 351t200 238.5t289 84.5q199 0 316.5 -118t117.5 -316q0 -75 -16 -187h-793q-4 -50 -4 -67q0 -144 72 -220.5t207 -76.5q108 0 186 61t106 168h183zM250 631h588q2 16 2 47
q0 127 -65.5 198.5t-178.5 71.5q-128 0 -218.5 -82t-127.5 -235zM764 1214h-109l-301 349h201z" />
    <glyph glyph-name="eacute" unicode="&#xe9;" horiz-adv-x="1134" 
d="M971 350q-38 -181 -172 -283t-328 -102q-211 0 -323.5 120.5t-112.5 346.5q0 197 72 351t200 238.5t289 84.5q199 0 316.5 -118t117.5 -316q0 -75 -16 -187h-793q-4 -50 -4 -67q0 -144 72 -220.5t207 -76.5q108 0 186 61t106 168h183zM250 631h588q2 16 2 47
q0 127 -65.5 198.5t-178.5 71.5q-128 0 -218.5 -82t-127.5 -235zM602 1214h-121l232 349h190z" />
    <glyph glyph-name="ecircumflex" unicode="&#xea;" horiz-adv-x="1134" 
d="M971 350q-38 -181 -172 -283t-328 -102q-211 0 -323.5 120.5t-112.5 346.5q0 197 72 351t200 238.5t289 84.5q199 0 316.5 -118t117.5 -316q0 -75 -16 -187h-793q-4 -50 -4 -67q0 -144 72 -220.5t207 -76.5q108 0 186 61t106 168h183zM250 631h588q2 16 2 47
q0 127 -65.5 198.5t-178.5 71.5q-128 0 -218.5 -82t-127.5 -235zM907 1214h-108l-133 220l-226 -220h-121l267 349h184z" />
    <glyph glyph-name="edieresis" unicode="&#xeb;" horiz-adv-x="1134" 
d="M971 350q-38 -181 -172 -283t-328 -102q-211 0 -323.5 120.5t-112.5 346.5q0 197 72 351t200 238.5t289 84.5q199 0 316.5 -118t117.5 -316q0 -75 -16 -187h-793q-4 -50 -4 -67q0 -144 72 -220.5t207 -76.5q108 0 186 61t106 168h183zM250 631h588q2 16 2 47
q0 127 -65.5 198.5t-178.5 71.5q-128 0 -218.5 -82t-127.5 -235zM373 1274l45 209h182l-43 -209h-184zM702 1274l46 209h182l-43 -209h-185z" />
    <glyph glyph-name="igrave" unicode="&#xec;" horiz-adv-x="473" 
d="M-8 0l225 1071h180l-227 -1071h-178zM487 1214h-108l-301 349h201z" />
    <glyph glyph-name="iacute" unicode="&#xed;" horiz-adv-x="473" 
d="M-8 0l225 1071h180l-227 -1071h-178zM326 1214h-121l231 349h191z" />
    <glyph glyph-name="icircumflex" unicode="&#xee;" horiz-adv-x="473" 
d="M-8 0l225 1071h180l-227 -1071h-178zM631 1214h-109l-133 220l-225 -220h-121l266 349h185z" />
    <glyph glyph-name="idieresis" unicode="&#xef;" horiz-adv-x="473" 
d="M-8 0l225 1071h180l-227 -1071h-178zM96 1274l45 209h183l-43 -209h-185zM426 1274l45 209h182l-43 -209h-184z" />
    <glyph glyph-name="eth" unicode="&#xf0;" horiz-adv-x="1175" 
d="M604 913q-172 0 -276 -147q-49 -70 -79 -171t-30 -198q0 -131 66.5 -199.5t193.5 -68.5q174 0 283.5 145t109.5 373q0 127 -70 196.5t-198 69.5zM819 985q-66 149 -178 236l-250 -113l-43 88l203 96q-108 60 -215 105l53 110q189 -60 326 -149l278 129l41 -90l-227 -109
q254 -248 254 -624q0 -312 -162.5 -501.5t-423.5 -189.5q-212 0 -327 114t-115 321q0 184 71 333t193.5 232.5t271.5 83.5t250 -72z" />
    <glyph glyph-name="ntilde" unicode="&#xf1;" horiz-adv-x="1130" 
d="M-14 0l227 1071h164l-35 -160q176 179 391 179q142 0 215.5 -59t73.5 -173q0 -54 -18 -133l-152 -725h-182l149 698q15 77 15 119q0 57 -42 89t-118 32q-153 0 -253.5 -101t-141.5 -300l-113 -537h-180zM1001 1497q-28 -103 -77.5 -152t-128.5 -49q-31 0 -58 9l-88 28
q-27 8 -55 8q-68 0 -86 -79h-102q49 208 200 208q32 0 70 -10l88 -26q27 -9 47 -9q34 0 55 17t33 55h102z" />
    <glyph glyph-name="ograve" unicode="&#xf2;" horiz-adv-x="1175" 
d="M31 424q0 197 75.5 353t210 242.5t304.5 86.5q205 0 323.5 -122t118.5 -333q0 -299 -166 -489.5t-424 -190.5q-211 0 -326.5 119t-115.5 334zM602 948q-169 0 -272 -151q-51 -76 -81 -181t-30 -206q0 -136 67.5 -209.5t192.5 -73.5q172 0 282.5 152t110.5 393
q0 135 -69 205.5t-201 70.5zM778 1214h-108l-301 349h200z" />
    <glyph glyph-name="oacute" unicode="&#xf3;" horiz-adv-x="1175" 
d="M31 424q0 197 75.5 353t210 242.5t304.5 86.5q205 0 323.5 -122t118.5 -333q0 -299 -166 -489.5t-424 -190.5q-211 0 -326.5 119t-115.5 334zM602 948q-169 0 -272 -151q-51 -76 -81 -181t-30 -206q0 -136 67.5 -209.5t192.5 -73.5q172 0 282.5 152t110.5 393
q0 135 -69 205.5t-201 70.5zM616 1214h-120l231 349h191z" />
    <glyph glyph-name="ocircumflex" unicode="&#xf4;" horiz-adv-x="1175" 
d="M31 424q0 197 75.5 353t210 242.5t304.5 86.5q205 0 323.5 -122t118.5 -333q0 -299 -166 -489.5t-424 -190.5q-211 0 -326.5 119t-115.5 334zM602 948q-169 0 -272 -151q-51 -76 -81 -181t-30 -206q0 -136 67.5 -209.5t192.5 -73.5q172 0 282.5 152t110.5 393
q0 135 -69 205.5t-201 70.5zM922 1214h-109l-133 220l-225 -220h-121l266 349h184z" />
    <glyph glyph-name="otilde" unicode="&#xf5;" horiz-adv-x="1175" 
d="M31 424q0 197 75.5 353t210 242.5t304.5 86.5q205 0 323.5 -122t118.5 -333q0 -299 -166 -489.5t-424 -190.5q-211 0 -326.5 119t-115.5 334zM602 948q-169 0 -272 -151q-51 -76 -81 -181t-30 -206q0 -136 67.5 -209.5t192.5 -73.5q172 0 282.5 152t110.5 393
q0 135 -69 205.5t-201 70.5zM965 1497q-28 -103 -78 -152t-129 -49q-31 0 -58 9l-88 28q-27 8 -55 8q-68 0 -86 -79h-102q49 208 200 208q32 0 70 -10l88 -26q27 -9 47 -9q34 0 55 17t33 55h103z" />
    <glyph glyph-name="odieresis" unicode="&#xf6;" horiz-adv-x="1175" 
d="M31 424q0 197 75.5 353t210 242.5t304.5 86.5q205 0 323.5 -122t118.5 -333q0 -299 -166 -489.5t-424 -190.5q-211 0 -326.5 119t-115.5 334zM602 948q-169 0 -272 -151q-51 -76 -81 -181t-30 -206q0 -136 67.5 -209.5t192.5 -73.5q172 0 282.5 152t110.5 393
q0 135 -69 205.5t-201 70.5zM387 1274l45 209h182l-43 -209h-184zM717 1274l45 209h182l-43 -209h-184z" />
    <glyph glyph-name="divide" unicode="&#xf7;" horiz-adv-x="1705" 
d="M854 1106q51 0 88 -37.5t37 -89.5q0 -51 -36.5 -88t-88.5 -37t-88.5 36t-36.5 89q0 52 37 89.5t88 37.5zM1452 680v-139h-1198v139h1198zM854 367q51 0 88 -36.5t37 -88.5q0 -51 -36.5 -88t-88.5 -37q-54 0 -89.5 36t-35.5 89q0 52 37 88.5t88 36.5z" />
    <glyph glyph-name="oslash" unicode="&#xf8;" horiz-adv-x="1175" 
d="M240 279l561 600q-63 69 -199 69q-163 0 -275 -149t-112 -371q0 -79 25 -149zM285 201q66 -82 184 -82q173 0 288 154.5t115 388.5q0 80 -20 141zM51 -49l-65 57l123 133q-78 115 -78 275q0 200 75.5 357.5t210.5 245t306 87.5q175 0 299 -100l102 110l66 -59l-111 -117
q84 -121 84 -287q0 -198 -74.5 -353.5t-209 -242t-306.5 -86.5q-191 0 -305 105z" />
    <glyph glyph-name="ugrave" unicode="&#xf9;" horiz-adv-x="1130" 
d="M1067 1071l-225 -1071h-164l33 162q-175 -178 -392 -178q-286 0 -286 229q0 62 16 133l154 725h182l-149 -696q-17 -87 -17 -119q0 -57 43 -90t119 -33q153 0 253.5 101.5t141.5 300.5l113 536h178zM799 1214h-109l-301 349h201z" />
    <glyph glyph-name="uacute" unicode="&#xfa;" horiz-adv-x="1130" 
d="M1067 1071l-225 -1071h-164l33 162q-175 -178 -392 -178q-286 0 -286 229q0 62 16 133l154 725h182l-149 -696q-17 -87 -17 -119q0 -57 43 -90t119 -33q153 0 253.5 101.5t141.5 300.5l113 536h178zM637 1214h-121l232 349h190z" />
    <glyph glyph-name="ucircumflex" unicode="&#xfb;" horiz-adv-x="1130" 
d="M1067 1071l-225 -1071h-164l33 162q-175 -178 -392 -178q-286 0 -286 229q0 62 16 133l154 725h182l-149 -696q-17 -87 -17 -119q0 -57 43 -90t119 -33q153 0 253.5 101.5t141.5 300.5l113 536h178zM942 1214h-108l-134 220l-225 -220h-121l267 349h184z" />
    <glyph glyph-name="udieresis" unicode="&#xfc;" horiz-adv-x="1130" 
d="M1067 1071l-225 -1071h-164l33 162q-175 -178 -392 -178q-286 0 -286 229q0 62 16 133l154 725h182l-149 -696q-17 -87 -17 -119q0 -57 43 -90t119 -33q153 0 253.5 101.5t141.5 300.5l113 536h178zM408 1274l45 209h182l-43 -209h-184zM737 1274l45 209h183l-43 -209
h-185z" />
    <glyph glyph-name="yacute" unicode="&#xfd;" horiz-adv-x="946" 
d="M221 -55l-176 1126h193l116 -901l445 901h198l-696 -1329q-51 -97 -118.5 -139.5t-170.5 -42.5q-38 0 -96 18l39 160q34 -12 70 -12q70 0 108 65zM561 1214h-121l232 349h190z" />
    <glyph glyph-name="thorn" unicode="&#xfe;" horiz-adv-x="1208" 
d="M-86 -428l383 1901h172l-113 -555q60 86 148 132t192 46q186 0 291 -117t105 -328q0 -138 -42.5 -263.5t-119.5 -223.5q-76 -96 -176 -146.5t-211 -50.5q-218 0 -338 193l-121 -588h-170zM659 946q-106 0 -196 -70t-142.5 -195.5t-52.5 -277.5q0 -134 66.5 -208
t185.5 -74q105 0 193 69.5t140 195t52 280.5q0 133 -65.5 206.5t-180.5 73.5z" />
    <glyph glyph-name="ydieresis" unicode="&#xff;" horiz-adv-x="946" 
d="M221 -55l-176 1126h193l116 -901l445 901h198l-696 -1329q-51 -97 -118.5 -139.5t-170.5 -42.5q-38 0 -96 18l39 160q34 -12 70 -12q70 0 108 65zM332 1274l45 209h182l-43 -209h-184zM662 1274l45 209h182l-43 -209h-184z" />
    <glyph glyph-name="dotlessi" unicode="&#x131;" horiz-adv-x="473" 
d="M-8 0l225 1071h180l-227 -1071h-178z" />
    <glyph glyph-name="Lslash" unicode="&#x141;" horiz-adv-x="1146" 
d="M18 0l132 614l-154 -88l-66 115l256 147l146 685h192l-125 -590l375 215l66 -115l-478 -276l-110 -529h764l-37 -178h-961z" />
    <glyph glyph-name="lslash" unicode="&#x142;" horiz-adv-x="493" 
d="M0 0l133 631l-121 -66l-57 103l213 123l145 682h179l-127 -599l118 70l62 -102l-213 -121l-152 -721h-180z" />
    <glyph glyph-name="OE" unicode="&#x152;" horiz-adv-x="2217" 
d="M971 0l26 117q-169 -156 -389 -156q-237 0 -382.5 169.5t-145.5 451.5q0 186 64 363t180 312q103 120 241.5 186t286.5 66q128 0 226 -43.5t175 -136.5l31 144h936l-37 -181h-743l-97 -446h721l-34 -174h-723l-105 -492h797l-37 -180h-991zM1030 283l193 897
q-120 163 -340 163q-253 0 -418 -204q-85 -106 -135.5 -254t-50.5 -295q0 -215 104.5 -340t282.5 -125q193 0 364 158z" />
    <glyph glyph-name="oe" unicode="&#x153;" horiz-adv-x="1923" 
d="M889 172q-156 -205 -424 -205q-201 0 -317.5 126.5t-116.5 346.5q0 194 74.5 346t207.5 236t301 84q269 0 371 -193q164 193 406 193q199 0 310 -112.5t111 -315.5q0 -19 -12 -191h-780q-6 -43 -6 -81q0 -135 69.5 -209t194.5 -74q109 0 189.5 60.5t107.5 166.5h180
q-41 -183 -172 -283t-332 -100q-242 0 -362 205zM606 956q-165 0 -276 -144t-111 -370q0 -156 68.5 -237.5t197.5 -81.5q169 0 273 140t104 380q0 153 -65.5 233t-190.5 80zM1042 633h584q0 6 1 18.5t1 18.5q0 135 -64.5 209.5t-181.5 74.5q-121 0 -210.5 -84t-129.5 -237z
" />
    <glyph glyph-name="Scaron" unicode="&#x160;" horiz-adv-x="1222" 
d="M10 457h185v-27q0 -141 86.5 -220t240.5 -79q153 0 241.5 76t88.5 199q0 21 -2.5 39.5t-10 35t-14 29.5t-21 26.5t-24.5 23t-31.5 22t-34.5 20t-41 20t-43.5 19.5t-49.5 21q-65 28 -107.5 47.5t-89 45t-74.5 48.5t-55 52.5t-41 62.5t-22.5 75t-8.5 92q0 190 139 308
t371 118q230 0 357 -115.5t127 -326.5v-18h-191v6q0 291 -305 291q-141 0 -223 -68t-82 -182q0 -24 3 -44t13 -38t18 -30.5t28.5 -27.5t32.5 -23.5t43.5 -24t47 -22.5t57.5 -25t62 -27q100 -45 163 -81.5t114.5 -84.5t74.5 -106.5t23 -135.5q0 -217 -147.5 -344t-407.5 -127
q-224 0 -358 125t-134 336q0 6 1 19.5t1 19.5zM565 1968h109l133 -219l225 219h121l-266 -348h-182z" />
    <glyph glyph-name="scaron" unicode="&#x161;" horiz-adv-x="1007" 
d="M-18 375h170q-2 -12 -2 -37q0 -111 71.5 -169t210.5 -58q103 0 162 44.5t59 118.5q0 63 -40 97t-144 82q-166 78 -198 97q-101 57 -133 129q-21 48 -21 112q0 140 106 226.5t287 86.5q187 0 290 -93.5t103 -260.5v-23h-166v6q0 219 -233 219q-99 0 -155 -39t-56 -104
q0 -20 4.5 -36.5t18.5 -31.5t24.5 -24.5t39 -24.5t44.5 -22.5t57 -26.5q60 -27 91 -42t76 -38.5t67.5 -40.5t49.5 -42.5t39 -50.5t21 -57.5t9 -70.5q0 -151 -116.5 -244.5t-314.5 -93.5q-196 0 -309.5 99.5t-113.5 271.5q0 27 2 41zM377 1563h108l133 -220l226 220h121
l-267 -349h-182z" />
    <glyph glyph-name="Ydieresis" unicode="&#x178;" horiz-adv-x="1054" 
d="M276 0l125 610l-331 863h204l254 -682l455 682h223l-614 -893l-119 -580h-197zM467 1679l45 209h182l-43 -209h-184zM797 1679l45 209h182l-43 -209h-184z" />
    <glyph glyph-name="Zcaron" unicode="&#x17d;" horiz-adv-x="1175" 
d="M-41 0l37 174l938 1124h-729l39 175h962l-35 -175l-933 -1122h768l-39 -176h-1008zM543 1968h108l133 -219l226 219h120l-266 -348h-182z" />
    <glyph glyph-name="zcaron" unicode="&#x17e;" horiz-adv-x="913" 
d="M-86 0l31 141l696 772h-561l31 158h809l-31 -131l-707 -780h606l-34 -160h-840zM330 1563h108l133 -220l226 220h121l-267 -349h-182z" />
    <glyph glyph-name="florin" unicode="&#x192;" horiz-adv-x="1124" 
d="M-29 -377l49 160q58 -37 121 -37q80 0 115.5 68t67.5 243l137 744h-213v147h244q53 304 134.5 433.5t241.5 129.5q87 0 176 -45l-45 -151q-65 33 -114 33q-37 0 -64 -16.5t-46.5 -44t-36 -81.5t-28 -110t-26.5 -148h229v-147h-256l-122 -660q-22 -122 -44 -205.5
t-53 -156t-69.5 -114.5t-92.5 -65.5t-124 -23.5q-95 0 -181 47z" />
    <glyph glyph-name="circumflex" unicode="&#x2c6;" 
d="M905 1214h-108l-133 220l-226 -220h-121l267 349h184z" />
    <glyph glyph-name="caron" unicode="&#x2c7;" 
d="M385 1563h109l133 -220l225 220h121l-266 -349h-183z" />
    <glyph glyph-name="breve" unicode="&#x2d8;" 
d="M391 1530h103v-19q0 -66 33.5 -95.5t109.5 -29.5q87 0 142.5 35t86.5 109h109q-80 -283 -348 -283q-238 0 -238 234q0 31 2 49z" />
    <glyph glyph-name="dotaccent" unicode="&#x2d9;" 
d="M526 1268l47 221h193l-47 -221h-193z" />
    <glyph glyph-name="ring" unicode="&#x2da;" 
d="M410 1450q0 106 74 179t180 73t178.5 -73t72.5 -179t-73 -180t-178 -74q-106 0 -180 74t-74 180zM520 1448q0 -60 42 -100.5t102 -40.5t100.5 40.5t40.5 100.5t-41 101.5t-100 41.5q-60 0 -102 -41.5t-42 -101.5z" />
    <glyph glyph-name="ogonek" unicode="&#x2db;" 
d="M391 0q-135 -120 -135 -221q0 -44 20.5 -61t73.5 -17h101l-31 -143h-72q-225 0 -225 168q0 68 45.5 133t140.5 141h82z" />
    <glyph glyph-name="tilde" unicode="&#x2dc;" 
d="M948 1497q-28 -103 -78 -152t-129 -49q-30 0 -57 9l-88 28q-27 8 -55 8q-68 0 -86 -79h-103q49 208 201 208q32 0 70 -10l88 -26q27 -9 47 -9q34 0 55 17t33 55h102z" />
    <glyph glyph-name="hungarumlaut" unicode="&#x2dd;" 
d="M588 1565h168l-226 -351h-96zM870 1565h168l-254 -351h-96z" />
    <glyph glyph-name="mu" unicode="&#x3bc;" horiz-adv-x="1150" 
d="M385 1071l-129 -600q-14 -63 -14 -133q0 -99 52 -153t148 -54q135 0 211 96t121 308l115 536h178l-156 -731q-22 -108 -22 -133q0 -37 17 -52.5t55 -15.5q20 0 32 2l-30 -143q-49 -10 -109 -10q-64 0 -97 29.5t-52 99.5q-88 -131 -271 -131q-82 0 -143 27.5t-113 88.5
l-110 -530h-181l318 1499h180z" />
    <glyph glyph-name="endash" unicode="&#x2013;" 
d="M-49 487l24 109h1024l-24 -109h-1024z" />
    <glyph glyph-name="emdash" unicode="&#x2014;" horiz-adv-x="2048" 
d="M-25 596h2048l-24 -109h-2048z" />
    <glyph glyph-name="quoteleft" unicode="&#x2018;" horiz-adv-x="514" 
d="M528 1505l-18 -92q-103 -35 -127 -168h98l-45 -209h-209l47 209q25 109 91 177t163 83z" />
    <glyph glyph-name="quoteright" unicode="&#x2019;" horiz-adv-x="514" 
d="M207 1001l18 93q103 35 127 168h-98l45 211h209l-47 -211q-25 -109 -91.5 -177.5t-162.5 -83.5z" />
    <glyph glyph-name="quotesinglbase" unicode="&#x201a;" horiz-adv-x="514" 
d="M-49 -260l18 94q55 18 85 58.5t42 109.5h-96l43 209h209l-47 -209q-25 -109 -91.5 -178t-162.5 -84z" />
    <glyph glyph-name="quotedblleft" unicode="&#x201c;" horiz-adv-x="845" 
d="M528 1505l-18 -92q-103 -35 -127 -168h98l-45 -209h-209l47 209q25 109 91 177t163 83zM860 1505l-18 -92q-103 -35 -127 -168h98l-45 -209h-209l47 209q25 109 91 177t163 83z" />
    <glyph glyph-name="quotedblright" unicode="&#x201d;" horiz-adv-x="845" 
d="M207 1001l18 93q103 35 127 168h-98l45 211h209l-47 -211q-25 -109 -91.5 -177.5t-162.5 -83.5zM539 1001l18 93q103 35 127 168h-98l45 211h209l-47 -211q-25 -109 -91.5 -177.5t-162.5 -83.5z" />
    <glyph glyph-name="quotedblbase" unicode="&#x201e;" horiz-adv-x="845" 
d="M-49 -260l18 94q55 18 85 58.5t42 109.5h-96l43 209h209l-47 -209q-25 -109 -91.5 -178t-162.5 -84zM283 -260l18 94q55 18 85 58.5t42 109.5h-98l45 209h209l-47 -209q-25 -109 -91.5 -178t-162.5 -84z" />
    <glyph glyph-name="dagger" unicode="&#x2020;" 
d="M260 -213l197 1128h-338l28 146h338l72 412h164l-70 -412h334l-22 -146h-336l-201 -1128h-166z" />
    <glyph glyph-name="daggerdbl" unicode="&#x2021;" 
d="M256 -213l70 410h-338l28 147h338l99 571h-338l26 146h338l74 412h164l-72 -412h336l-23 -146h-337l-101 -571h336l-25 -147h-335l-74 -410h-166z" />
    <glyph glyph-name="bullet" unicode="&#x2022;" horiz-adv-x="1208" 
d="M307 762q0 123 87 209t210 86q122 0 208.5 -86t86.5 -209q0 -122 -87 -209.5t-210 -87.5t-209 87t-86 210z" />
    <glyph glyph-name="ellipsis" unicode="&#x2026;" horiz-adv-x="2048" 
d="M92 0l47 221h221l-45 -221h-223zM774 0l47 221h221l-45 -221h-223zM1458 0l47 221h221l-45 -221h-223z" />
    <glyph glyph-name="perthousand" unicode="&#x2030;" horiz-adv-x="2586" 
d="M365 -41l876 1473h125l-877 -1473h-124zM72 1036q0 149 102.5 252t251.5 103q146 0 250 -103.5t104 -251.5t-103 -252t-251 -104q-149 0 -251.5 103.5t-102.5 252.5zM221 1036q0 -87 59 -146t146 -59q85 0 145 59.5t60 145.5t-60 145.5t-145 59.5q-86 0 -145.5 -59.5
t-59.5 -145.5zM948 356q0 149 103 252t252 103q147 0 251.5 -104t104.5 -251q0 -148 -104 -252t-252 -104q-149 0 -252 103.5t-103 252.5zM1098 356q0 -88 59 -147t146 -59q85 0 144.5 60t59.5 146t-59.5 145.5t-144.5 59.5q-86 0 -145.5 -59.5t-59.5 -145.5zM1804 356
q0 149 103 252t252 103q147 0 251.5 -104t104.5 -251q0 -148 -104 -252t-252 -104q-149 0 -252 103.5t-103 252.5zM1954 356q0 -88 59 -147t146 -59q85 0 144.5 60t59.5 146t-59.5 145.5t-144.5 59.5q-86 0 -145.5 -59.5t-59.5 -145.5z" />
    <glyph glyph-name="guilsinglleft" unicode="&#x2039;" horiz-adv-x="499" 
d="M35 473l33 160l389 244l-37 -177l-258 -161l184 -185l-35 -159z" />
    <glyph glyph-name="guilsinglright" unicode="&#x203a;" horiz-adv-x="499" 
d="M401 600l-32 -162l-389 -243l36 176l258 161l-184 185l35 160z" />
    <glyph glyph-name="fraction" unicode="&#x2044;" horiz-adv-x="342" 
d="M-342 -41l899 1473h125l-899 -1473h-125z" />
    <glyph glyph-name="trademark" unicode="&#x2122;" horiz-adv-x="1705" 
d="M694 1458v-80h-172v-458h-108v458h-172v80h452zM963 1458l151 -385l141 385h150v-538h-98v444l-166 -444h-56l-174 444v-444h-98v538h150z" />
    <glyph glyph-name="minus" unicode="&#x2212;" horiz-adv-x="1705" 
d="M1452 682v-141h-1198v141h1198z" />
    <glyph glyph-name="fi" unicode="&#xfb01;" horiz-adv-x="995" 
d="M12 0l189 924h-148l29 147h149l33 168q26 129 88.5 184.5t184.5 55.5q37 0 120 -11l-30 -161q-39 8 -84 8q-56 0 -78 -30.5t-37 -106.5l-20 -107h182l-29 -147h-184l-189 -924h-176zM778 1257l45 216h178l-45 -216h-178zM510 0l227 1071h178l-227 -1071h-178z" />
    <glyph glyph-name="fl" unicode="&#xfb02;" horiz-adv-x="993" 
d="M12 0l189 924h-148l29 147h149l33 168q26 129 88.5 184.5t184.5 55.5q37 0 120 -11l-30 -161q-39 8 -82 8q-56 0 -78 -30.5t-37 -106.5l-22 -107h182l-27 -147h-186l-187 -924h-178zM512 0l313 1473h176l-313 -1473h-176z" />
    </font>
</defs>
</svg>
