<?xml version="1.0" standalone="no"?>
<!DOCTYPE svg PUBLIC "-//W3C//DTD SVG 1.1//EN" "http://www.w3.org/Graphics/SVG/1.1/DTD/svg11.dtd" >
<svg xmlns="http://www.w3.org/2000/svg" xmlns:xlink="http://www.w3.org/1999/xlink" version="1.1">
<metadata>
Created by FontForge 20170731 at Tue Jun 29 17:22:41 2021
 By Aleksey,,,
Copyright 1990 as an unpublished work by Bitstream Inc.  All rights reserved.  Confidential.
</metadata>
<defs>
<font id="Swiss721BT-Bold" horiz-adv-x="1024" >
  <font-face 
    font-family="Swiss 721"
    font-weight="700"
    font-stretch="normal"
    units-per-em="2048"
    panose-1="2 0 8 3 0 0 0 0 0 0"
    ascent="1638"
    descent="-410"
    x-height="1087"
    cap-height="1473"
    bbox="-346 -483 2566 1972"
    underline-thickness="221"
    underline-position="-437"
    unicode-range="U+0020-FFFD"
  />
<missing-glyph horiz-adv-x="581" 
 />
    <glyph glyph-name=".notdef" unicode="&#xfffd;" horiz-adv-x="581" 
 />
    <glyph glyph-name=".null" horiz-adv-x="0" 
 />
    <glyph glyph-name="nonmarkingreturn" horiz-adv-x="682" 
 />
    <glyph glyph-name="space" unicode=" " horiz-adv-x="581" 
 />
    <glyph glyph-name="exclam" unicode="!" horiz-adv-x="675" 
d="M188 0v295h297v-295h-297zM262 410l-78 663v400h308v-400l-78 -663h-152z" />
    <glyph glyph-name="quotedbl" unicode="&#x22;" horiz-adv-x="677" 
d="M80 1438h192v-559h-192v559zM406 1438h192v-559h-192v559z" />
    <glyph glyph-name="numbersign" unicode="#" horiz-adv-x="1574" 
d="M709 1464h221l-146 -415h242l148 415h221l-148 -415h283l-74 -201h-280l-84 -242h290l-71 -200h-291l-148 -416h-221l148 416h-244l-149 -416h-220l146 416h-287l76 200h282l86 242h-299l74 201h297zM709 848l-88 -242h251l86 242h-249z" />
    <glyph glyph-name="dollar" unicode="$" horiz-adv-x="1161" 
d="M522 -225v192q-450 27 -450 469h268q9 -215 182 -250v414q-228 58 -328 152t-100 262q0 182 115 294.5t313 116.5v129h119v-129q196 -9 304.5 -117t119.5 -302h-272q-12 186 -152 198v-364q239 -74 344 -172.5t105 -264.5q0 -191 -117 -305t-332 -133v-190h-119zM522 870
v340q-78 -10 -119 -54t-41 -116q0 -62 38.5 -102.5t121.5 -67.5zM641 186q82 10 125 58.5t43 128.5q0 72 -41 118t-127 72v-377z" />
    <glyph glyph-name="percent" unicode="%" horiz-adv-x="1761" 
d="M66 1059q0 157 107.5 265t264.5 108q154 0 262.5 -109.5t108.5 -263.5t-108.5 -262.5t-262.5 -108.5q-157 0 -264.5 107t-107.5 264zM283 1059q0 -66 44.5 -111t110.5 -45q64 0 110 45.5t46 110.5q0 64 -45.5 109.5t-110.5 45.5q-66 0 -110.5 -44.5t-44.5 -110.5z
M371 -41l854 1473h161l-854 -1473h-161zM952 332q0 156 108 263t265 107q154 0 262.5 -108t108.5 -262t-108.5 -263.5t-262.5 -109.5q-157 0 -265 108t-108 265zM1169 332q0 -66 45 -112t111 -46q64 0 110 46.5t46 111.5q0 64 -45.5 109.5t-110.5 45.5q-66 0 -111 -44.5
t-45 -110.5z" />
    <glyph glyph-name="ampersand" unicode="&#x26;" horiz-adv-x="1435" 
d="M408 825l-58 76q-84 113 -84 223q0 158 101 253.5t280 95.5q170 0 267.5 -88t97.5 -234q0 -113 -58 -201.5t-180 -165.5l211 -260q60 99 72 246h260q-21 -258 -172 -444l268 -326h-340l-100 123q-179 -164 -414 -164q-204 0 -333.5 121.5t-129.5 308.5q0 142 74 242.5
t238 193.5zM633 958l35 25q94 64 94 168q0 51 -31.5 81t-85.5 30q-55 0 -87 -30t-32 -83q0 -56 60 -131zM553 643l-76 -55q-92 -65 -92 -178q0 -84 57.5 -142.5t145.5 -58.5q130 0 231 104z" />
    <glyph glyph-name="quotesingle" unicode="'" horiz-adv-x="352" 
d="M80 1438h192v-559h-192v559z" />
    <glyph glyph-name="parenleft" unicode="(" horiz-adv-x="757" 
d="M739 1473q-272 -445 -272 -951q0 -505 272 -950h-211q-356 485 -356 950q0 466 356 951h211z" />
    <glyph glyph-name="parenright" unicode=")" horiz-adv-x="757" 
d="M23 1473h213q176 -240 265 -482t89 -469q0 -468 -354 -950h-213q274 448 274 950q0 503 -274 951z" />
    <glyph glyph-name="asterisk" unicode="*" 
d="M512 889l-176 -248l-170 119l192 241l-280 78l65 203l269 -96v287h198v-287l269 94l67 -203l-280 -76l190 -239l-174 -125z" />
    <glyph glyph-name="plus" unicode="+" horiz-adv-x="1705" 
d="M752 1221h202v-510h498v-199h-498v-512h-202v512h-498v199h498v510z" />
    <glyph glyph-name="comma" unicode="," horiz-adv-x="581" 
d="M139 -346v117q84 25 124 74.5t40 129.5v25h-164v301h303v-289q0 -302 -303 -358z" />
    <glyph glyph-name="hyphen" unicode="-" horiz-adv-x="684" 
d="M61 408v274h562v-274h-562z" />
    <glyph glyph-name="period" unicode="." horiz-adv-x="581" 
d="M139 0v301h301v-301h-301z" />
    <glyph glyph-name="slash" unicode="/" horiz-adv-x="649" 
d="M8 -190l496 1701h137l-498 -1701h-135z" />
    <glyph glyph-name="zero" unicode="0" horiz-adv-x="1161" 
d="M63 696q0 736 517 736q518 0 518 -738q0 -369 -128.5 -551t-389.5 -182q-517 0 -517 735zM360 696q0 -256 51.5 -376.5t168.5 -120.5t169 120.5t52 376.5t-52 376t-169 120t-168.5 -120t-51.5 -376z" />
    <glyph glyph-name="one" unicode="1" horiz-adv-x="1161" 
d="M504 0v979h-342v201h22q184 0 271 57t102 195h229v-1432h-282z" />
    <glyph glyph-name="two" unicode="2" horiz-adv-x="1161" 
d="M47 0q2 138 44 243.5t118 185.5t205 167q30 20 75 49t70 45t60 41t54 42.5t41.5 43t33.5 50t18.5 55t7.5 65.5q0 94 -57 149.5t-156 55.5q-107 0 -166 -67t-59 -193v-12h-264q0 247 132 379.5t376 132.5q222 0 353.5 -121.5t131.5 -319.5q0 -67 -15 -123.5t-40.5 -102.5
t-69.5 -91.5t-92 -83.5t-119 -86q-42 -29 -115.5 -76t-105 -68.5t-64 -53.5t-43.5 -62h650v-244h-1004z" />
    <glyph glyph-name="three" unicode="3" horiz-adv-x="1161" 
d="M57 436h275q3 -241 227 -241q108 0 166.5 57t58.5 162q0 106 -68.5 160.5t-203.5 54.5q-7 0 -21.5 -1t-21.5 -1v198h31q124 0 183.5 48.5t59.5 148.5q0 84 -50.5 132t-137.5 48q-94 0 -146.5 -55.5t-52.5 -159.5v-12h-270q4 220 129 337.5t352 117.5q216 0 341.5 -106
t125.5 -282q0 -191 -172 -282q223 -96 223 -334q0 -215 -140.5 -341t-385.5 -126q-241 0 -371.5 122.5t-130.5 348.5v6z" />
    <glyph glyph-name="four" unicode="4" horiz-adv-x="1161" 
d="M651 0v309h-604v252l528 830h355v-854h166v-228h-166v-309h-279zM657 530v613l-389 -613h389z" />
    <glyph glyph-name="five" unicode="5" horiz-adv-x="1161" 
d="M51 385h281q7 -94 63 -145.5t150 -51.5q116 0 177.5 68t61.5 195q0 119 -62.5 187.5t-174.5 68.5q-125 0 -189 -99l-258 15l93 768h823v-242h-621l-37 -287q93 74 244 74q215 0 346 -130t131 -341q0 -231 -145 -368.5t-389 -137.5q-222 0 -353.5 114t-140.5 312z" />
    <glyph glyph-name="six" unicode="6" horiz-adv-x="1161" 
d="M365 829q101 101 272 101q211 0 337 -127.5t126 -341.5q0 -226 -138 -365t-364 -139q-261 0 -396.5 180t-135.5 527q0 374 145.5 571t417.5 197q190 0 306.5 -99t127.5 -268h-291q-18 139 -176 139q-216 0 -231 -375zM369 455q0 -124 62 -195.5t167 -71.5q99 0 155 70
t56 195q0 116 -58 179.5t-163 63.5q-103 0 -161 -63.5t-58 -177.5z" />
    <glyph glyph-name="seven" unicode="7" horiz-adv-x="1161" 
d="M569 0h-299q30 586 500 1147h-704v244h1015v-215q-236 -260 -362.5 -549.5t-149.5 -626.5z" />
    <glyph glyph-name="eight" unicode="8" horiz-adv-x="1161" 
d="M276 752q-92 51 -131 118t-39 170q0 183 125.5 288.5t348.5 105.5q225 0 351 -105t126 -289q0 -200 -172 -288q211 -97 211 -346q0 -208 -137 -327.5t-379 -119.5q-245 0 -379.5 118.5t-134.5 328.5q0 124 50.5 207t159.5 139zM379 1030q0 -82 51.5 -127t149.5 -45
t150 45t52 127q0 79 -54 125.5t-148 46.5q-93 0 -147 -47.5t-54 -124.5zM356 416q0 -105 59 -162t167 -57q104 0 163.5 58t59.5 161q0 99 -61 159t-162 60t-163.5 -61t-62.5 -158z" />
    <glyph glyph-name="nine" unicode="9" horiz-adv-x="1161" 
d="M791 561q-100 -100 -271 -100q-211 0 -338 127t-127 340q0 226 138 365t364 139q261 0 398 -180t137 -527q0 -373 -146.5 -570.5t-419.5 -197.5q-190 0 -305.5 99t-126.5 268h289q18 -138 178 -138q215 0 230 375zM786 934q0 124 -62 195t-167 71q-99 0 -155 -68.5
t-56 -193.5q0 -117 58.5 -181.5t162.5 -64.5q103 0 161 64t58 178z" />
    <glyph glyph-name="colon" unicode=":" horiz-adv-x="628" 
d="M162 0v301h303v-301h-303zM162 766v303h303v-303h-303z" />
    <glyph glyph-name="semicolon" unicode=";" horiz-adv-x="628" 
d="M164 -346v117q84 25 124 74.5t40 129.5v25h-166v301h303v-289q0 -303 -301 -358zM164 766v303h301v-303h-301z" />
    <glyph glyph-name="less" unicode="&#x3c;" horiz-adv-x="1705" 
d="M1442 1194v-219l-893 -365l893 -364v-219l-1178 485v199z" />
    <glyph glyph-name="equal" unicode="=" horiz-adv-x="1705" 
d="M254 926h1198v-199h-1198v199zM254 496h1198v-199h-1198v199z" />
    <glyph glyph-name="greater" unicode="&#x3e;" horiz-adv-x="1705" 
d="M264 1194l1178 -483v-199l-1178 -485v219l895 364l-895 365v219z" />
    <glyph glyph-name="question" unicode="?" horiz-adv-x="1142" 
d="M424 0v293h295v-293h-295zM438 428q0 10 -1 29t-1 28q0 83 18 142.5t62 113.5q32 38 95.5 87.5t82.5 70.5q36 41 53 76.5t17 83.5q0 95 -53 148t-148 53q-94 0 -149.5 -63t-59.5 -179h-282v31q0 211 133 336.5t360 125.5q233 0 368.5 -119.5t135.5 -316.5
q0 -139 -63 -227q-28 -40 -67 -75.5t-88.5 -73t-74.5 -60.5q-71 -68 -71 -176q0 -5 1 -17t1 -18h-269z" />
    <glyph glyph-name="at" unicode="@" horiz-adv-x="2048" 
d="M1217 700q-12 81 -57 123.5t-118 42.5q-114 0 -198 -123.5t-84 -298.5q0 -92 40.5 -140t117.5 -48q82 0 150.5 62t94.5 165zM1167 272q-55 -84 -127.5 -123.5t-169.5 -39.5q-159 0 -241 87t-82 253q0 159 64.5 288.5t175 202t243.5 72.5q161 0 236 -131l53 98h178
l-147 -598q-7 -28 -7 -41q0 -70 95 -70q82 0 161 76q175 161 175 422q0 237 -184 393t-480 156q-284 0 -483 -135q-169 -114 -261 -285.5t-92 -374.5q0 -307 207 -490.5t553 -183.5q331 0 604 191l82 -117q-308 -231 -682 -231q-387 0 -639 192q-309 239 -309 637
q0 339 207 594q148 180 355.5 273.5t463.5 93.5q171 0 320 -45.5t256 -128.5q268 -207 268 -543q0 -165 -65.5 -305t-188.5 -238q-142 -115 -324 -115q-212 0 -215 166z" />
    <glyph glyph-name="A" unicode="A" horiz-adv-x="1404" 
d="M524 1473h350l531 -1473h-318l-100 303h-571l-97 -303h-319zM700 1178l-204 -627h409z" />
    <glyph glyph-name="B" unicode="B" horiz-adv-x="1441" 
d="M152 0v1473h694q227 0 345 -96t118 -277q0 -222 -176 -303q227 -90 227 -348q0 -213 -139 -331t-398 -118h-671zM442 903h346q110 0 163 38t53 122t-53 119t-165 35h-344v-314zM442 266h359q126 0 184.5 45.5t58.5 145.5q0 105 -58.5 149.5t-186.5 44.5h-357v-385z" />
    <glyph glyph-name="C" unicode="C" horiz-adv-x="1523" 
d="M1434 506q-17 -250 -193.5 -398.5t-460.5 -148.5q-326 0 -508 203.5t-182 572.5q0 376 185 576t532 200q283 0 446.5 -138t178.5 -388h-299q-19 125 -102 190.5t-224 65.5q-200 0 -304 -129.5t-104 -376.5q0 -242 104 -372t294 -130q138 0 226 70.5t114 202.5h297z" />
    <glyph glyph-name="D" unicode="D" horiz-adv-x="1488" 
d="M152 0v1473h577q339 0 505.5 -182.5t166.5 -555.5q0 -204 -61.5 -357.5t-178.5 -246.5q-99 -80 -216.5 -105.5t-297.5 -25.5h-495zM449 266h243q211 0 305.5 110t94.5 359q0 246 -88 362.5t-275 116.5h-280v-948z" />
    <glyph glyph-name="E" unicode="E" horiz-adv-x="1337" 
d="M152 0v1473h1069v-256h-770v-314h704v-252h-704v-379h806v-272h-1105z" />
    <glyph glyph-name="F" unicode="F" horiz-adv-x="1224" 
d="M152 0v1473h1028v-256h-729v-334h639v-256h-639v-627h-299z" />
    <glyph glyph-name="G" unicode="G" horiz-adv-x="1591" 
d="M1212 174q-83 -112 -187.5 -163.5t-244.5 -51.5q-152 0 -280 55.5t-219 156t-142 246.5t-51 320q0 354 191 564t509 210q278 0 453 -132.5t207 -364.5h-309q-28 116 -114.5 175.5t-225.5 59.5q-183 0 -289.5 -134.5t-106.5 -375.5q0 -242 110.5 -377t301.5 -135
q143 0 240.5 85t120.5 233h-334v252h610v-797h-203z" />
    <glyph glyph-name="H" unicode="H" horiz-adv-x="1521" 
d="M152 0v1473h305v-549h608v549h305v-1473h-305v653h-608v-653h-305z" />
    <glyph glyph-name="I" unicode="I" horiz-adv-x="628" 
d="M162 0v1473h303v-1473h-303z" />
    <glyph glyph-name="J" unicode="J" horiz-adv-x="1132" 
d="M49 549h293v-178q0 -77 46 -117.5t132 -40.5q99 0 133.5 52.5t34.5 180.5v1027h303v-1041q0 -120 -12.5 -190.5t-58.5 -130.5q-118 -152 -396 -152q-252 0 -381 135q-44 45 -65.5 103t-25 104t-3.5 133v115z" />
    <glyph glyph-name="K" unicode="K" horiz-adv-x="1439" 
d="M152 0v1473h303v-605l575 605h379l-588 -596l641 -877h-370l-480 674l-157 -156v-518h-303z" />
    <glyph glyph-name="L" unicode="L" horiz-adv-x="1187" 
d="M152 0v1473h303v-1201h719v-272h-1022z" />
    <glyph glyph-name="M" unicode="M" horiz-adv-x="1785" 
d="M152 0v1473h448l293 -1121l289 1121h450v-1473h-284v1188l-299 -1188h-310l-303 1188v-1188h-284z" />
    <glyph glyph-name="N" unicode="N" horiz-adv-x="1517" 
d="M152 0v1473h317l598 -1012v1012h299v-1473h-313l-602 1012v-1012h-299z" />
    <glyph glyph-name="O" unicode="O" horiz-adv-x="1615" 
d="M88 735q0 356 194.5 566t524.5 210t525.5 -210t195.5 -566t-195.5 -566t-525.5 -210t-524.5 210t-194.5 566zM397 735q0 -244 108.5 -378t301.5 -134q195 0 304.5 134t109.5 378t-109.5 378t-304.5 134q-193 0 -301.5 -134t-108.5 -378z" />
    <glyph glyph-name="P" unicode="P" horiz-adv-x="1366" 
d="M455 524v-524h-303v1473h655q233 0 352 -121t119 -353q0 -228 -116.5 -351.5t-334.5 -123.5h-372zM455 791h295q118 0 172.5 50t54.5 163q0 213 -211 213h-311v-426z" />
    <glyph glyph-name="Q" unicode="Q" horiz-adv-x="1615" 
d="M1198 61q-151 -102 -391 -102q-330 0 -524.5 210t-194.5 566t194.5 566t524.5 210t525.5 -210t195.5 -566q0 -315 -158 -512l160 -153l-164 -172zM985 262l-156 152l166 172l160 -156q66 122 66 305q0 244 -109.5 378t-304.5 134q-193 0 -301.5 -134t-108.5 -378
t108.5 -378t301.5 -134q101 0 178 39z" />
    <glyph glyph-name="R" unicode="R" horiz-adv-x="1462" 
d="M152 0v1473h714q240 0 356.5 -102.5t116.5 -315.5q0 -135 -56.5 -224.5t-162.5 -123.5q100 -35 139 -108.5t44 -213.5l6 -174q1 -43 2 -60t6.5 -42.5t17 -39t31.5 -24.5v-45h-332q-32 60 -35 184l-4 156q-5 133 -50 183t-169 50h-321v-573h-303zM455 829h356
q116 0 170.5 47t54.5 148q0 195 -211 195h-370v-390z" />
    <glyph glyph-name="S" unicode="S" horiz-adv-x="1366" 
d="M84 455h299q17 -122 100 -180t236 -58q266 0 266 186q0 93 -80 132t-313 92q-8 2 -49 11t-52.5 12t-45 11.5t-49.5 14.5t-42.5 15.5t-47 20t-40.5 23.5q-160 102 -160 334q0 215 145.5 329.5t422.5 114.5q259 0 404 -122t153 -344h-291q-8 107 -82.5 163t-210.5 56
q-119 0 -183.5 -47t-64.5 -132q0 -23 3.5 -41.5t13.5 -33t20.5 -25.5t31.5 -21t38.5 -16.5t49 -14.5t56.5 -14t68 -16t76 -18q90 -23 135.5 -35.5t106.5 -34t104 -45.5q180 -101 180 -330t-154 -356t-438 -127q-280 0 -437 130t-169 366z" />
    <glyph glyph-name="T" unicode="T" horiz-adv-x="1216" 
d="M457 0v1210h-437v263h1174v-263h-434v-1210h-303z" />
    <glyph glyph-name="U" unicode="U" horiz-adv-x="1468" 
d="M143 1477h306v-924q0 -168 67 -248t217 -80q152 0 219.5 79.5t67.5 248.5v924h303v-957q0 -273 -152 -417t-436 -144q-287 0 -439.5 144t-152.5 417v957z" />
    <glyph glyph-name="V" unicode="V" horiz-adv-x="1280" 
d="M498 0l-508 1473h336l313 -1102l319 1102h332l-502 -1473h-290z" />
    <glyph glyph-name="W" unicode="W" horiz-adv-x="1912" 
d="M438 0l-422 1473h314l252 -1039l213 1039h323l213 -1039l252 1039h311l-421 -1473h-289l-228 1128l-229 -1128h-289z" />
    <glyph glyph-name="X" unicode="X" horiz-adv-x="1282" 
d="M-10 0l463 752l-463 721h350l301 -515l299 515h352l-463 -719l463 -754h-350l-301 510l-301 -510h-350z" />
    <glyph glyph-name="Y" unicode="Y" horiz-adv-x="1273" 
d="M811 0h-303v549l-535 924h371l315 -635l291 635h346l-485 -924v-549z" />
    <glyph glyph-name="Z" unicode="Z" horiz-adv-x="1230" 
d="M37 0v256l801 950h-785v267h1153v-256l-803 -951h785v-266h-1151z" />
    <glyph glyph-name="bracketleft" unicode="[" horiz-adv-x="782" 
d="M238 1473h505v-213h-235v-1483h235v-213h-505v1909z" />
    <glyph glyph-name="backslash" unicode="\" horiz-adv-x="649" 
d="M504 -190l-496 1701h135l498 -1701h-137z" />
    <glyph glyph-name="bracketright" unicode="]" horiz-adv-x="782" 
d="M557 1473v-1909h-506v213h236v1483h-236v213h506z" />
    <glyph glyph-name="asciicircum" unicode="^" horiz-adv-x="2048" 
d="M897 1460h252l481 -561h-235l-371 371l-373 -371h-235z" />
    <glyph glyph-name="underscore" unicode="_" 
d="M0 -279h1024v-204h-1024v204z" />
    <glyph glyph-name="grave" unicode="`" 
d="M219 1587h258l197 -370h-142z" />
    <glyph glyph-name="a" unicode="a" horiz-adv-x="1150" 
d="M745 535q-49 -23 -99.5 -37t-98 -23t-62.5 -14q-72 -21 -104.5 -53t-32.5 -93q0 -60 39 -95.5t105 -35.5q118 0 185.5 66t67.5 182v103zM750 135q-111 -174 -351 -174q-157 0 -243 89.5t-86 256.5q0 157 87 236.5t281 109.5q39 6 87 12t72.5 9.5t53.5 9t42.5 11.5
t26.5 17t17 26.5t4 37.5q0 67 -41.5 95t-136.5 28q-89 0 -135.5 -35t-46.5 -100v-16h-272v20q0 167 117 262.5t327 95.5q229 0 350 -79.5t121 -227.5v-618q0 -64 13 -99t48 -53v-49h-303q-29 56 -32 135z" />
    <glyph glyph-name="b" unicode="b" horiz-adv-x="1255" 
d="M895 551q0 151 -64 236t-172 85q-116 0 -179.5 -83t-63.5 -238q0 -167 60.5 -252.5t176.5 -85.5q117 0 179.5 86.5t62.5 251.5zM133 1473h283v-521q110 172 321 172q194 0 320.5 -160.5t126.5 -424.5q0 -259 -125.5 -417.5t-325.5 -158.5q-105 0 -182.5 44t-140.5 140
v-147h-277v1473z" />
    <glyph glyph-name="c" unicode="c" horiz-adv-x="1128" 
d="M784 410h287q-19 -207 -151.5 -327t-341.5 -120q-236 0 -371 154t-135 428q0 273 138 427t378 154q212 0 339 -112.5t142 -311.5h-289q-12 86 -61 132.5t-129 46.5q-215 0 -215 -340q0 -158 56 -242t159 -84q164 0 194 195z" />
    <glyph glyph-name="d" unicode="d" horiz-adv-x="1259" 
d="M365 551q0 -165 62 -251.5t179 -86.5q116 0 177 86t61 252q0 154 -64 237.5t-180 83.5q-108 0 -171.5 -85t-63.5 -236zM1126 1473v-1473h-276v147q-63 -95 -141.5 -139.5t-184.5 -44.5q-199 0 -324.5 158.5t-125.5 417.5q0 264 126 424.5t320 160.5q214 0 324 -172v521
h282z" />
    <glyph glyph-name="e" unicode="e" horiz-adv-x="1167" 
d="M373 657h428q-3 110 -58.5 168t-156.5 58q-94 0 -149 -58t-64 -168zM797 330h290q-45 -171 -178 -269t-325 -98q-234 0 -373 157.5t-139 430.5q0 267 136.5 421t371.5 154q250 0 386 -151.5t136 -431.5q0 -49 -2 -76h-727q12 -258 225 -258q146 0 199 121z" />
    <glyph glyph-name="f" unicode="f" horiz-adv-x="663" 
d="M178 0v883h-155v204h155v101q0 153 79 224t247 71q62 0 139 -6v-232h-76q-62 0 -84 -15.5t-22 -66.5v-76h182v-204h-180v-883h-285z" />
    <glyph glyph-name="g" unicode="g" horiz-adv-x="1249" 
d="M102 -104h318q27 -109 174 -109q142 0 193 60.5t51 209.5v97q-89 -154 -303 -154q-211 0 -338 150.5t-127 400.5q0 266 125.5 420.5t334.5 154.5q216 0 314 -170v131h276v-1015q0 -159 -29 -253t-112 -159q-132 -104 -399 -104q-219 0 -344 89.5t-134 250.5zM365 561
q0 -153 61.5 -235t175.5 -82q115 0 175.5 82t60.5 239q0 150 -63 231t-177 81q-110 0 -171.5 -82.5t-61.5 -233.5z" />
    <glyph glyph-name="h" unicode="h" horiz-adv-x="1232" 
d="M133 0v1473h289v-506q119 149 323 149q96 0 173.5 -33.5t125.5 -93.5q39 -50 49.5 -109t10.5 -155v-20v-705h-289v569q0 46 -0.5 71.5t-2.5 60.5t-7 53.5t-13 41.5t-20.5 35t-30 23t-41.5 15.5t-55 4.5q-102 0 -162.5 -61.5t-60.5 -167.5v-645h-289z" />
    <glyph glyph-name="i" unicode="i" horiz-adv-x="557" 
d="M133 0v1087h291v-1087h-291zM133 1208v265h291v-265h-291z" />
    <glyph glyph-name="j" unicode="j" horiz-adv-x="555" 
d="M6 -444v243h57q37 0 53.5 18t16.5 56v1214h291v-1261q0 -151 -85.5 -210.5t-277.5 -59.5h-55zM133 1208v262h291v-262h-291z" />
    <glyph glyph-name="k" unicode="k" horiz-adv-x="1134" 
d="M133 0v1473h283v-773l346 387h350l-379 -403l402 -684h-349l-260 463l-110 -119v-344h-283z" />
    <glyph glyph-name="l" unicode="l" horiz-adv-x="563" 
d="M137 0v1473h291v-1473h-291z" />
    <glyph glyph-name="m" unicode="m" horiz-adv-x="1796" 
d="M127 0v1087h276v-120q121 151 302 151q103 0 176 -38.5t127 -121.5q117 160 309 160q164 0 260 -96t96 -262v-760h-287v700q0 79 -42.5 122.5t-118.5 43.5q-84 0 -134.5 -55.5t-50.5 -151.5v-659h-284v698q0 81 -42 124.5t-116 43.5q-84 0 -134 -56t-50 -153v-657h-287z
" />
    <glyph glyph-name="n" unicode="n" horiz-adv-x="1222" 
d="M127 0v1087h285v-129q125 158 329 158q359 0 359 -375v-741h-291v657q0 113 -38 165t-130 52q-102 0 -162.5 -61.5t-60.5 -167.5v-645h-291z" />
    <glyph glyph-name="o" unicode="o" horiz-adv-x="1245" 
d="M72 545q0 271 147 426t404 155t404 -155t147 -426t-147 -426.5t-404 -155.5t-404 155.5t-147 426.5zM367 545q0 -162 67 -250t189 -88t188 88t66 250t-66 249t-188 87t-189 -87t-67 -249z" />
    <glyph glyph-name="p" unicode="p" horiz-adv-x="1255" 
d="M133 -436v1523h277v-147q63 96 140.5 140t182.5 44q200 0 325.5 -158t125.5 -417q0 -264 -126.5 -425t-320.5 -161q-211 0 -321 172v-571h-283zM895 537q0 165 -62 251t-180 86q-116 0 -176.5 -85t-60.5 -252q0 -155 63.5 -238.5t179.5 -83.5q108 0 172 85.5t64 236.5z
" />
    <glyph glyph-name="q" unicode="q" horiz-adv-x="1255" 
d="M1124 1087v-1523h-284v577q-118 -178 -318 -178q-199 0 -324.5 158.5t-125.5 417.5q0 264 126 424.5t320 160.5q215 0 326 -176v139h280zM360 551q0 -165 62.5 -251.5t179.5 -86.5q116 0 177 86t61 252q0 154 -64 237.5t-180 83.5q-108 0 -172 -85t-64 -236z" />
    <glyph glyph-name="r" unicode="r" horiz-adv-x="786" 
d="M127 0v1087h270v-186q57 112 133 164.5t181 52.5q29 0 43 -2v-295h-97q-239 0 -239 -246v-575h-291z" />
    <glyph glyph-name="s" unicode="s" horiz-adv-x="1118" 
d="M66 354h290q6 -164 228 -164q87 0 132.5 28.5t45.5 80.5q0 20 -5 34.5t-18.5 25.5t-28 18t-42 14.5t-51.5 12.5t-65.5 14t-76.5 18q-201 52 -289 123.5t-88 204.5q0 166 119.5 264t327.5 98q219 0 343 -97.5t132 -272.5h-283q-3 69 -52 107t-138 38q-164 0 -164 -100
q0 -46 54 -70q34 -15 190 -51q29 -6 53 -12q101 -24 166 -48.5t115 -62t72 -90t22 -125.5q0 -185 -130 -282t-380 -97q-226 0 -352.5 101.5t-126.5 277.5v12z" />
    <glyph glyph-name="t" unicode="t" horiz-adv-x="651" 
d="M610 -8q-41 -1 -96 -3.5t-70 -2.5q-91 0 -147 15.5t-88 54.5t-43.5 94t-11.5 145v588h-144v204h144v297h288v-297h168v-204h-168v-602q0 -43 19 -56.5t78 -13.5h71v-219z" />
    <glyph glyph-name="u" unicode="u" horiz-adv-x="1222" 
d="M1096 1087v-1087h-285v129q-125 -158 -330 -158q-358 0 -358 375v741h291v-657q0 -113 38 -164t130 -51q102 0 162.5 61.5t60.5 167.5v643h291z" />
    <glyph glyph-name="v" unicode="v" horiz-adv-x="1085" 
d="M395 0l-391 1087h322l223 -780l225 780h307l-389 -1087h-297z" />
    <glyph glyph-name="w" unicode="w" horiz-adv-x="1566" 
d="M322 0l-308 1087h295l178 -753l150 753h297l158 -753l178 753h282l-305 -1087h-291l-174 778l-168 -778h-292z" />
    <glyph glyph-name="x" unicode="x" horiz-adv-x="1056" 
d="M-8 0l366 555l-350 532h332l192 -327l191 327h321l-342 -528l363 -559h-340l-201 344l-198 -344h-334z" />
    <glyph glyph-name="y" unicode="y" horiz-adv-x="1099" 
d="M170 -436v235q27 -4 68 -4q172 0 172 162q0 13 -7 31l-391 1099h320l229 -784l223 784h306l-447 -1282q-48 -141 -122 -195t-228 -54q-55 0 -123 8z" />
    <glyph glyph-name="z" unicode="z" horiz-adv-x="1036" 
d="M35 0v223l596 633h-561v231h909v-237l-588 -608h608v-242h-964z" />
    <glyph glyph-name="braceleft" unicode="{" 
d="M883 1477v-209q-8 0 -24 1t-23 1q-107 0 -139.5 -42t-32.5 -159v-240q0 -141 -42 -206t-165 -93q123 -28 165 -92.5t42 -204.5v-241q0 -117 32.5 -158t139.5 -41q7 0 23 1t24 1v-209q-14 0 -39 -1t-37 -1q-191 0 -281 49q-66 38 -85 102t-19 189v252q0 136 -50.5 194
t-172.5 58q-6 0 -20 -1t-21 -1v209q7 0 21 -1t20 -1q122 0 172.5 59t50.5 195v250q0 125 19 190t85 103q90 49 281 49q12 0 37 -1t39 -1z" />
    <glyph glyph-name="bar" unicode="|" 
d="M410 1565h206v-2048h-206v2048z" />
    <glyph glyph-name="braceright" unicode="}" 
d="M143 1477h68q202 0 289 -50q65 -37 84.5 -102t19.5 -188v-252q0 -136 50.5 -194t172.5 -58q6 0 20 1t21 1v-209h-37q-125 0 -176 -56.5t-51 -193.5v-252q0 -125 -19 -189.5t-85 -101.5q-90 -49 -281 -49q-12 0 -37 1t-39 1v209q8 0 24 -1t23 -1q106 0 139 41.5t33 157.5
v239q0 141 41.5 206t165.5 93q-123 28 -165 93t-42 206v242q0 116 -33 157.5t-139 41.5q-7 0 -23 -1t-24 -1v209z" />
    <glyph glyph-name="asciitilde" unicode="~" horiz-adv-x="1705" 
d="M1530 803v-221q-204 -138 -379 -138q-89 0 -184 31q-20 7 -80 27.5t-87 29t-73.5 21t-85.5 17.5t-78 5q-165 0 -385 -157v221q213 143 387 143q55 0 112.5 -10t91.5 -20t91 -29q17 -6 56.5 -20t61.5 -21t55 -16t62.5 -13t59.5 -4q164 0 375 154z" />
    <glyph glyph-name="exclamdown" unicode="&#xa1;" horiz-adv-x="675" 
d="M414 1063l78 -666v-397h-308v397l78 666h152zM485 1473v-295h-297v295h297z" />
    <glyph glyph-name="cent" unicode="&#xa2;" horiz-adv-x="1161" 
d="M297 -246l68 244q-149 63 -226.5 201.5t-77.5 343.5q0 275 138 429t376 154q53 0 105 -8l45 166h109l-54 -190q126 -38 197.5 -138t81.5 -254h-281q-9 95 -73 148l-179 -639q36 -4 52 -4q88 0 137.5 49.5t66.5 153.5h281q-15 -208 -147 -328.5t-338 -120.5q-53 0 -113 8
l-59 -215h-109zM621 885q-32 4 -50 4q-106 0 -161.5 -88t-55.5 -260q0 -199 88 -287z" />
    <glyph glyph-name="sterling" unicode="&#xa3;" horiz-adv-x="1161" 
d="M70 166q115 80 168 150t53 153q0 78 -47 170h-176v111h108q-84 168 -84 282q0 175 129 286.5t346 111.5q232 0 364 -118.5t144 -338.5h-276q-7 114 -64.5 173.5t-156.5 59.5q-95 0 -145 -49.5t-50 -140.5q0 -24 9 -56t18.5 -55t33 -75.5t35.5 -79.5h285v-111h-244
q17 -80 17 -129q0 -76 -47 -148t-148 -163q127 59 213 59q52 0 141.5 -23.5t128.5 -23.5q100 0 195 65l88 -217q-166 -100 -301 -100q-75 0 -204.5 40t-188.5 40q-121 0 -230 -80z" />
    <glyph glyph-name="currency" unicode="&#xa4;" horiz-adv-x="1241" 
d="M172 1438l205 -203q108 78 244 78q138 0 247 -78l203 203l105 -107l-203 -205q76 -109 76 -241t-76 -242l203 -205l-105 -104l-203 203q-108 -78 -245 -78q-140 0 -246 78l-205 -203l-104 104l202 205q-75 106 -75 242q0 134 75 241l-202 205zM623 1161
q-114 0 -195.5 -81.5t-81.5 -194.5q0 -114 81 -194.5t196 -80.5q114 0 195 80.5t81 194.5q0 113 -81 194.5t-195 81.5z" />
    <glyph glyph-name="yen" unicode="&#xa5;" horiz-adv-x="1228" 
d="M776 0h-289v518l-20 35h-449v113h383l-73 127h-310v112h244l-278 486h325l322 -631l299 631h305l-256 -486h233v-112h-292l-68 -127h360v-113h-419l-17 -35v-518z" />
    <glyph glyph-name="brokenbar" unicode="&#xa6;" 
d="M410 1432h206v-758h-206v758zM410 408h206v-758h-206v758z" />
    <glyph glyph-name="section" unicode="&#xa7;" 
d="M115 160h247q15 -154 156 -154q67 0 105.5 32t38.5 85q0 49 -33 80.5t-111 70.5l-239 121q-226 113 -226 297q0 181 172 269q-98 88 -98 217q0 150 103 241.5t274 91.5q177 0 276.5 -90t102.5 -250h-236q-2 66 -39.5 102t-107.5 36q-62 0 -95.5 -27.5t-33.5 -75.5
q0 -42 41.5 -76.5t140.5 -80.5l168 -78q128 -60 189 -134.5t61 -172.5q0 -91 -45 -158.5t-131 -104.5q116 -101 116 -249q0 -151 -108.5 -253t-284.5 -102q-190 0 -292 92t-111 271zM659 487q80 47 80 111q0 44 -27 71t-91 60l-265 137q-80 -49 -80 -114q0 -44 36 -74.5
t124 -75.5z" />
    <glyph glyph-name="dieresis" unicode="&#xa8;" 
d="M225 1276v246h226v-246h-226zM573 1276v246h226v-246h-226z" />
    <glyph glyph-name="copyright" unicode="&#xa9;" horiz-adv-x="1705" 
d="M852 1479q311 0 530 -219q104 -104 159.5 -240t55.5 -287q0 -308 -215 -520q-111 -108 -247.5 -165.5t-282.5 -57.5q-147 0 -280.5 56.5t-241.5 164.5q-106 106 -162.5 240.5t-56.5 281.5q0 148 56 284.5t163 244.5q214 217 522 217zM854 1356q-261 0 -438 -180
q-89 -91 -136 -204.5t-47 -236.5q0 -255 183 -438q89 -89 201.5 -135.5t236.5 -46.5q255 0 442 184q179 176 179 436q0 258 -181 439q-182 182 -440 182zM1212 897h-188q-7 70 -52.5 108.5t-119.5 38.5q-90 0 -142.5 -80.5t-52.5 -228.5q0 -147 52 -224t151 -77
q72 0 116.5 42t53.5 120h193q-8 -138 -109 -222.5t-260 -84.5q-185 0 -293 117.5t-108 322.5q0 208 110 329.5t293 121.5q153 0 250.5 -78t105.5 -205z" />
    <glyph glyph-name="ordfeminine" unicode="&#xaa;" horiz-adv-x="864" 
d="M778 1290v-432q0 -43 10 -66.5t37 -35.5v-45h-243q-24 41 -27 80q-74 -107 -254 -107q-123 0 -190.5 64t-67.5 184q0 108 65 168.5t201 79.5q32 4 69 8.5t57 6.5t42.5 5.5t33 7.5t20.5 11t13 16.5t3 24.5q0 43 -28 60t-95 17q-127 0 -127 -88v-16h-225v18q0 122 91 191
t253 69q177 0 269.5 -57t92.5 -164zM551 1079q-38 -13 -80.5 -23.5t-69.5 -16t-54 -14t-42 -18t-24 -27t-9 -42.5q0 -40 26 -62t73 -22q84 0 132 44.5t48 121.5v59zM100 549h668v-125h-668v125z" />
    <glyph glyph-name="guillemotleft" unicode="&#xab;" horiz-adv-x="915" 
d="M72 416v256l336 289v-238l-205 -178l205 -178v-240zM504 416v256l334 289v-238l-205 -178l205 -178v-240z" />
    <glyph glyph-name="logicalnot" unicode="&#xac;" horiz-adv-x="1705" 
d="M254 864h1198v-502h-199v306h-999v196z" />
    <glyph glyph-name="registered" unicode="&#xae;" horiz-adv-x="1705" 
d="M852 1479q153 0 289.5 -57.5t244.5 -166.5q103 -104 157 -238.5t54 -283.5q0 -153 -56.5 -288t-162.5 -238q-108 -105 -244.5 -161t-281.5 -56q-149 0 -285 58t-243 167q-104 105 -158.5 239t-54.5 279q0 205 108 387q100 169 266.5 264t366.5 95zM854 1356
q-256 0 -432 -176q-91 -91 -140 -206.5t-49 -238.5q0 -255 179 -434q89 -91 203 -139.5t237 -48.5q121 0 234 47t206 135q88 85 135.5 196.5t47.5 231.5q0 266 -177 446q-184 187 -444 187zM545 1161h323q353 0 353 -237q0 -82 -48 -139.5t-133 -79.5l185 -369h-224
l-157 338h-99v-338h-200v825zM745 1034v-239h99q87 0 128.5 27.5t41.5 88.5q0 64 -44 93.5t-136 29.5h-89z" />
    <glyph glyph-name="macron" unicode="&#xaf;" 
d="M225 1321v156h574v-156h-574z" />
    <glyph glyph-name="degree" unicode="&#xb0;" horiz-adv-x="673" 
d="M338 1464q126 0 214.5 -89.5t88.5 -215.5q0 -125 -89 -214t-216 -89q-126 0 -213.5 88t-87.5 215t88.5 216t214.5 89zM338 1335q-72 0 -124 -51t-52 -123q0 -73 51 -124.5t125 -51.5q73 0 123.5 52.5t50.5 123.5q0 72 -51 123t-123 51z" />
    <glyph glyph-name="plusminus" unicode="&#xb1;" horiz-adv-x="1705" 
d="M752 1223h202v-326h498v-199h-498v-325h-202v325h-498v199h498v326zM254 197h1198v-199h-1198v199z" />
    <glyph glyph-name="twosuperior" unicode="&#xb2;" horiz-adv-x="765" 
d="M31 557q3 122 58.5 201t182.5 157q18 11 56 32.5t53 30.5t42 27t38 30.5t25 31t19 38.5t5 44q0 57 -36.5 90t-102.5 33q-71 0 -110.5 -40t-39.5 -116v-8h-174q0 148 87.5 227.5t248.5 79.5q147 0 233 -72.5t86 -191.5q0 -50 -13.5 -89.5t-44 -74.5t-67.5 -63t-96 -64
q-30 -19 -76.5 -46.5t-68.5 -41.5t-43.5 -33t-28.5 -37h430v-145h-663z" />
    <glyph glyph-name="threesuperior" unicode="&#xb3;" horiz-adv-x="765" 
d="M37 819h182q3 -145 150 -145q71 0 110 34t39 97q0 129 -180 129h-29v119h21q83 0 122.5 28t39.5 88q0 51 -34 80t-91 29q-62 0 -96.5 -33.5t-34.5 -95.5v-6h-179q3 131 85.5 201.5t232.5 70.5q143 0 225 -63t82 -170q0 -113 -113 -168q148 -60 148 -201
q0 -130 -93 -205.5t-255 -75.5q-158 0 -245 74t-87 209v4z" />
    <glyph glyph-name="acute" unicode="&#xb4;" 
d="M805 1587l-313 -370h-142l197 370h258z" />
    <glyph glyph-name="paragraph" unicode="&#xb6;" 
d="M983 1479v-111h-113v-1368h-151v1368h-160v-1368h-151v784q-168 6 -267.5 101.5t-99.5 244.5q0 156 106 252.5t285 96.5h551z" />
    <glyph glyph-name="periodcentered" unicode="&#xb7;" horiz-adv-x="581" 
d="M135 702q0 64 45.5 110t110.5 46t110 -45t45 -111q0 -65 -44.5 -110t-110.5 -45t-111 44.5t-45 110.5z" />
    <glyph glyph-name="cedilla" unicode="&#xb8;" 
d="M283 -438v129q162 -43 256 -43q52 0 76 17.5t24 55.5t-28.5 54t-92.5 16q-37 0 -57 -2v211h102v-90h15q235 0 235 -191q0 -200 -264 -200q-106 0 -266 43z" />
    <glyph glyph-name="onesuperior" unicode="&#xb9;" horiz-adv-x="765" 
d="M334 557v588h-228v121h17q121 0 178.5 33.5t67.5 115.5h151v-858h-186z" />
    <glyph glyph-name="ordmasculine" unicode="&#xba;" horiz-adv-x="933" 
d="M467 1511q198 0 311 -110.5t113 -302.5q0 -193 -113 -303.5t-311 -110.5t-310 110t-112 304q0 192 112 302.5t310 110.5zM467 1325q-87 0 -133.5 -58.5t-46.5 -168.5t46 -169t134 -59q87 0 134.5 59t47.5 169q0 109 -48 168t-134 59zM106 549h723v-125h-723v125z" />
    <glyph glyph-name="guillemotright" unicode="&#xbb;" horiz-adv-x="915" 
d="M408 672v-256l-336 -289v238l204 180l-204 176v240zM838 672v-256l-334 -289v238l205 180l-205 176v240z" />
    <glyph glyph-name="onequarter" unicode="&#xbc;" horiz-adv-x="1806" 
d="M317 612v549h-215v113h15q116 0 170.5 31t64.5 108h144v-801h-179zM385 -41l870 1493h164l-872 -1493h-162zM1483 0v174h-381v139l334 465h223v-477h104v-127h-104v-174h-176zM1487 297v342l-244 -342h244z" />
    <glyph glyph-name="onehalf" unicode="&#xbd;" horiz-adv-x="1806" 
d="M317 612v549h-215v113h15q116 0 170.5 31t64.5 108h144v-801h-179zM385 -41l870 1493h164l-872 -1493h-162zM1102 0q3 114 56.5 188t174.5 146q20 12 54 31t50 28.5t40.5 25.5t36 28t24.5 29t18 36t5 41q0 53 -35.5 84t-98.5 31q-68 0 -105.5 -38t-37.5 -108v-8h-166
q0 139 83.5 213t236.5 74q140 0 223.5 -67.5t83.5 -178.5q0 -89 -49.5 -146.5t-163.5 -125.5q-25 -15 -60.5 -35.5t-55 -31.5t-40.5 -25.5t-33 -27t-18 -26.5h410v-137h-633z" />
    <glyph glyph-name="threequarters" unicode="&#xbe;" horiz-adv-x="1804" 
d="M37 856h172q3 -135 143 -135q68 0 105 31.5t37 91.5q0 121 -172 121q-4 0 -13 -1t-14 -1v112h20q154 0 154 109q0 47 -32.5 74.5t-86.5 27.5q-60 0 -92.5 -31.5t-32.5 -89.5v-6h-172q3 123 81.5 188.5t223.5 65.5q136 0 214.5 -59t78.5 -158q0 -107 -108 -158
q141 -56 141 -188q0 -119 -89 -189.5t-243 -70.5q-152 0 -233.5 68t-81.5 196v2zM385 -41l870 1493h164l-872 -1493h-162zM1483 0v174h-381v139l334 465h223v-477h104v-127h-104v-174h-176zM1487 297v342l-244 -342h244z" />
    <glyph glyph-name="questiondown" unicode="&#xbf;" horiz-adv-x="1142" 
d="M705 1044q0 -10 1 -29t1 -28q0 -83 -18 -142.5t-62 -113.5q-32 -38 -95.5 -87.5t-82.5 -70.5q-36 -41 -53 -77t-17 -84q0 -95 52 -148t147 -53q94 0 149 63t59 179h285v-31q0 -211 -133 -337t-360 -126q-232 0 -368 120.5t-136 317.5q0 143 61 228q28 40 68 75t89 71
t75 60q71 68 71 179q0 5 -1 16.5t-1 17.5h269zM719 1473v-295h-297v295h297z" />
    <glyph glyph-name="Agrave" unicode="&#xc0;" horiz-adv-x="1404" 
d="M524 1473h350l531 -1473h-318l-100 303h-571l-97 -303h-319zM700 1178l-204 -627h409zM410 1972h258l196 -370h-141z" />
    <glyph glyph-name="Aacute" unicode="&#xc1;" horiz-adv-x="1404" 
d="M524 1473h350l531 -1473h-318l-100 303h-571l-97 -303h-319zM700 1178l-204 -627h409zM995 1972l-313 -370h-141l196 370h258z" />
    <glyph glyph-name="Acircumflex" unicode="&#xc2;" horiz-adv-x="1404" 
d="M524 1473h350l531 -1473h-318l-100 303h-571l-97 -303h-319zM700 1178l-204 -627h409zM387 1602l197 370h237l197 -370h-141l-175 217l-176 -217h-139z" />
    <glyph glyph-name="Atilde" unicode="&#xc3;" horiz-adv-x="1404" 
d="M524 1473h350l531 -1473h-318l-100 303h-571l-97 -303h-319zM700 1178l-204 -627h409zM1020 1923q-26 -124 -77 -184t-132 -60q-37 0 -74 11l-88 26q-38 10 -65 10q-66 0 -88 -77h-111q25 121 74.5 178t130.5 57q40 0 86 -14l92 -25q24 -8 55 -8q65 0 86 86h111z" />
    <glyph glyph-name="Adieresis" unicode="&#xc4;" horiz-adv-x="1404" 
d="M524 1473h350l531 -1473h-318l-100 303h-571l-97 -303h-319zM700 1178l-204 -627h409zM416 1661v246h225v-246h-225zM764 1661v246h225v-246h-225z" />
    <glyph glyph-name="Aring" unicode="&#xc5;" horiz-adv-x="1404" 
d="M700 1178l-204 -627h409zM508 1413h385l512 -1413h-318l-100 303h-571l-97 -303h-319zM700 1972q107 0 182.5 -74.5t75.5 -181.5t-75.5 -181.5t-182.5 -74.5t-180.5 74.5t-73.5 181.5t73.5 181.5t180.5 74.5zM700 1835q-49 0 -82.5 -35.5t-33.5 -85.5t33.5 -83.5
t82.5 -33.5q50 0 85.5 34t35.5 83q0 50 -35.5 85.5t-85.5 35.5z" />
    <glyph glyph-name="AE" unicode="&#xc6;" horiz-adv-x="2052" 
d="M-14 0l581 1473h1366v-256h-723v-314h658v-252h-658v-379h760v-272h-1052v303h-500l-111 -303h-321zM504 541h414v682h-166z" />
    <glyph glyph-name="Ccedilla" unicode="&#xc7;" horiz-adv-x="1523" 
d="M1434 506q-17 -250 -193.5 -398.5t-460.5 -148.5q-326 0 -508 203.5t-182 572.5q0 376 185 576t532 200q283 0 446.5 -138t178.5 -388h-299q-19 125 -102 190.5t-224 65.5q-200 0 -304 -129.5t-104 -376.5q0 -242 104 -372t294 -130q138 0 226 70.5t114 202.5h297z
M559 -438v129q162 -43 256 -43q52 0 76 17.5t24 55.5t-28 54t-92 16q-38 0 -58 -2v211h103v-90h14q236 0 236 -191q0 -200 -265 -200q-106 0 -266 43z" />
    <glyph glyph-name="Egrave" unicode="&#xc8;" horiz-adv-x="1337" 
d="M152 0v1473h1069v-256h-770v-314h704v-252h-704v-379h806v-272h-1105zM395 1972h258l197 -370h-141z" />
    <glyph glyph-name="Eacute" unicode="&#xc9;" horiz-adv-x="1337" 
d="M152 0v1473h1069v-256h-770v-314h704v-252h-704v-379h806v-272h-1105zM981 1972l-313 -370h-142l197 370h258z" />
    <glyph glyph-name="Ecircumflex" unicode="&#xca;" horiz-adv-x="1337" 
d="M152 0v1473h1069v-256h-770v-314h704v-252h-704v-379h806v-272h-1105zM373 1602l196 370h238l197 -370h-142l-174 217l-176 -217h-139z" />
    <glyph glyph-name="Edieresis" unicode="&#xcb;" horiz-adv-x="1337" 
d="M152 0v1473h1069v-256h-770v-314h704v-252h-704v-379h806v-272h-1105zM401 1661v246h226v-246h-226zM750 1661v246h225v-246h-225z" />
    <glyph glyph-name="Igrave" unicode="&#xcc;" horiz-adv-x="628" 
d="M162 0v1473h303v-1473h-303zM23 1972h258l196 -370h-141z" />
    <glyph glyph-name="Iacute" unicode="&#xcd;" horiz-adv-x="628" 
d="M162 0v1473h303v-1473h-303zM608 1972l-313 -370h-141l196 370h258z" />
    <glyph glyph-name="Icircumflex" unicode="&#xce;" horiz-adv-x="628" 
d="M162 0v1473h303v-1473h-303zM0 1602l197 370h237l197 -370h-142l-174 217l-176 -217h-139z" />
    <glyph glyph-name="Idieresis" unicode="&#xcf;" horiz-adv-x="628" 
d="M162 0v1473h303v-1473h-303zM29 1661v246h225v-246h-225zM377 1661v246h225v-246h-225z" />
    <glyph glyph-name="Eth" unicode="&#xd0;" horiz-adv-x="1497" 
d="M158 0v696h-160v191h160v586h579q338 0 504 -182.5t166 -555.5q0 -204 -61 -357.5t-177 -246.5q-99 -80 -217.5 -105.5t-298.5 -25.5h-495zM455 266h243q211 0 306.5 110.5t95.5 358.5q0 246 -89 362.5t-276 116.5h-280v-327h323v-191h-323v-430z" />
    <glyph glyph-name="Ntilde" unicode="&#xd1;" horiz-adv-x="1517" 
d="M152 0v1473h317l598 -1012v1012h299v-1473h-313l-602 1012v-1012h-299zM1085 1923q-27 -124 -77 -184t-131 -60q-37 0 -74 11l-88 26q-38 10 -66 10q-66 0 -88 -77h-110q25 121 74 178t130 57q40 0 86 -14l93 -25q24 -8 55 -8q65 0 86 86h110z" />
    <glyph glyph-name="Ograve" unicode="&#xd2;" horiz-adv-x="1615" 
d="M88 735q0 356 194.5 566t524.5 210t525.5 -210t195.5 -566t-195.5 -566t-525.5 -210t-524.5 210t-194.5 566zM397 735q0 -244 108.5 -378t301.5 -134q195 0 304.5 134t109.5 378t-109.5 378t-304.5 134q-193 0 -301.5 -134t-108.5 -378zM516 1972h258l197 -370h-142z" />
    <glyph glyph-name="Oacute" unicode="&#xd3;" horiz-adv-x="1615" 
d="M88 735q0 356 194.5 566t524.5 210t525.5 -210t195.5 -566t-195.5 -566t-525.5 -210t-524.5 210t-194.5 566zM397 735q0 -244 108.5 -378t301.5 -134q195 0 304.5 134t109.5 378t-109.5 378t-304.5 134q-193 0 -301.5 -134t-108.5 -378zM1102 1972l-314 -370h-141
l197 370h258z" />
    <glyph glyph-name="Ocircumflex" unicode="&#xd4;" horiz-adv-x="1615" 
d="M88 735q0 356 194.5 566t524.5 210t525.5 -210t195.5 -566t-195.5 -566t-525.5 -210t-524.5 210t-194.5 566zM397 735q0 -244 108.5 -378t301.5 -134q195 0 304.5 134t109.5 378t-109.5 378t-304.5 134q-193 0 -301.5 -134t-108.5 -378zM494 1602l196 370h238l196 -370
h-141l-174 217l-176 -217h-139z" />
    <glyph glyph-name="Otilde" unicode="&#xd5;" horiz-adv-x="1615" 
d="M88 735q0 356 194.5 566t524.5 210t525.5 -210t195.5 -566t-195.5 -566t-525.5 -210t-524.5 210t-194.5 566zM397 735q0 -244 108.5 -378t301.5 -134q195 0 304.5 134t109.5 378t-109.5 378t-304.5 134q-193 0 -301.5 -134t-108.5 -378zM1126 1923q-27 -124 -77 -184
t-131 -60q-37 0 -74 11l-88 26q-38 10 -66 10q-66 0 -88 -77h-110q25 121 74 178t130 57q40 0 86 -14l92 -25q24 -8 56 -8q65 0 86 86h110z" />
    <glyph glyph-name="Odieresis" unicode="&#xd6;" horiz-adv-x="1615" 
d="M88 735q0 356 194.5 566t524.5 210t525.5 -210t195.5 -566t-195.5 -566t-525.5 -210t-524.5 210t-194.5 566zM397 735q0 -244 108.5 -378t301.5 -134q195 0 304.5 134t109.5 378t-109.5 378t-304.5 134q-193 0 -301.5 -134t-108.5 -378zM522 1661v246h226v-246h-226z
M870 1661v246h226v-246h-226z" />
    <glyph glyph-name="multiply" unicode="&#xd7;" horiz-adv-x="1705" 
d="M416 1202l450 -450l451 450l141 -139l-450 -453l450 -450l-141 -140l-451 451l-450 -451l-140 140l451 450l-451 453z" />
    <glyph glyph-name="Oslash" unicode="&#xd8;" horiz-adv-x="1615" 
d="M55 23l183 204q-150 205 -150 508q0 356 194.5 566t524.5 210q275 0 461 -147l147 166l98 -88l-155 -168q170 -208 170 -539q0 -357 -195 -566.5t-526 -209.5q-295 0 -483 170l-172 -195zM449 449l632 696q-105 102 -274 102q-193 0 -301.5 -134t-108.5 -378
q0 -174 52 -286zM512 348q116 -125 295 -125q195 0 304.5 134t109.5 378q0 199 -70 320z" />
    <glyph glyph-name="Ugrave" unicode="&#xd9;" horiz-adv-x="1468" 
d="M143 1477h306v-924q0 -168 67 -248t217 -80q152 0 219.5 79.5t67.5 248.5v924h303v-957q0 -273 -152 -417t-436 -144q-287 0 -439.5 144t-152.5 417v957zM442 1972h258l197 -370h-141z" />
    <glyph glyph-name="Uacute" unicode="&#xda;" horiz-adv-x="1468" 
d="M143 1477h306v-924q0 -168 67 -248t217 -80q152 0 219.5 79.5t67.5 248.5v924h303v-957q0 -273 -152 -417t-436 -144q-287 0 -439.5 144t-152.5 417v957zM1028 1972l-313 -370h-142l197 370h258z" />
    <glyph glyph-name="Ucircumflex" unicode="&#xdb;" horiz-adv-x="1468" 
d="M143 1477h306v-924q0 -168 67 -248t217 -80q152 0 219.5 79.5t67.5 248.5v924h303v-957q0 -273 -152 -417t-436 -144q-287 0 -439.5 144t-152.5 417v957zM420 1602l196 370h238l197 -370h-142l-174 217l-176 -217h-139z" />
    <glyph glyph-name="Udieresis" unicode="&#xdc;" horiz-adv-x="1468" 
d="M143 1477h306v-924q0 -168 67 -248t217 -80q152 0 219.5 79.5t67.5 248.5v924h303v-957q0 -273 -152 -417t-436 -144q-287 0 -439.5 144t-152.5 417v957zM449 1661v246h225v-246h-225zM797 1661v246h225v-246h-225z" />
    <glyph glyph-name="Yacute" unicode="&#xdd;" horiz-adv-x="1273" 
d="M811 0h-303v549l-535 924h371l315 -635l291 635h346l-485 -924v-549zM930 1972l-314 -370h-141l197 370h258z" />
    <glyph glyph-name="Thorn" unicode="&#xde;" horiz-adv-x="1345" 
d="M451 600h294q118 0 173 47t55 152q0 196 -213 196h-309v-395zM451 1243h344q228 0 345 -112.5t117 -331.5q0 -213 -114 -329t-328 -116h-364v-354h-299v1473h299v-230z" />
    <glyph glyph-name="germandbls" unicode="&#xdf;" horiz-adv-x="1228" 
d="M127 0v1112q0 163 127.5 267t345.5 104q221 0 344 -101t123 -274q0 -211 -149 -283q237 -95 237 -362q0 -226 -130 -363t-337 -137q-58 0 -141 12v234q25 -4 67 -4q118 0 182 66t64 186q0 117 -69.5 178t-202.5 61h-27v205q12 -2 35 -2q89 0 135.5 44.5t46.5 129.5
t-48.5 129.5t-141.5 44.5q-86 0 -131 -49.5t-45 -144.5v-1053h-285z" />
    <glyph glyph-name="agrave" unicode="&#xe0;" horiz-adv-x="1150" 
d="M745 535q-49 -23 -99.5 -37t-98 -23t-62.5 -14q-72 -21 -104.5 -53t-32.5 -93q0 -60 39 -95.5t105 -35.5q118 0 185.5 66t67.5 182v103zM750 135q-111 -174 -351 -174q-157 0 -243 89.5t-86 256.5q0 157 87 236.5t281 109.5q39 6 87 12t72.5 9.5t53.5 9t42.5 11.5
t26.5 17t17 26.5t4 37.5q0 67 -41.5 95t-136.5 28q-89 0 -135.5 -35t-46.5 -100v-16h-272v20q0 167 117 262.5t327 95.5q229 0 350 -79.5t121 -227.5v-618q0 -64 13 -99t48 -53v-49h-303q-29 56 -32 135zM268 1587h258l197 -370h-141z" />
    <glyph glyph-name="aacute" unicode="&#xe1;" horiz-adv-x="1150" 
d="M745 535q-49 -23 -99.5 -37t-98 -23t-62.5 -14q-72 -21 -104.5 -53t-32.5 -93q0 -60 39 -95.5t105 -35.5q118 0 185.5 66t67.5 182v103zM750 135q-111 -174 -351 -174q-157 0 -243 89.5t-86 256.5q0 157 87 236.5t281 109.5q39 6 87 12t72.5 9.5t53.5 9t42.5 11.5
t26.5 17t17 26.5t4 37.5q0 67 -41.5 95t-136.5 28q-89 0 -135.5 -35t-46.5 -100v-16h-272v20q0 167 117 262.5t327 95.5q229 0 350 -79.5t121 -227.5v-618q0 -64 13 -99t48 -53v-49h-303q-29 56 -32 135zM854 1587l-313 -370h-142l197 370h258z" />
    <glyph glyph-name="acircumflex" unicode="&#xe2;" horiz-adv-x="1150" 
d="M745 535q-49 -23 -99.5 -37t-98 -23t-62.5 -14q-72 -21 -104.5 -53t-32.5 -93q0 -60 39 -95.5t105 -35.5q118 0 185.5 66t67.5 182v103zM750 135q-111 -174 -351 -174q-157 0 -243 89.5t-86 256.5q0 157 87 236.5t281 109.5q39 6 87 12t72.5 9.5t53.5 9t42.5 11.5
t26.5 17t17 26.5t4 37.5q0 67 -41.5 95t-136.5 28q-89 0 -135.5 -35t-46.5 -100v-16h-272v20q0 167 117 262.5t327 95.5q229 0 350 -79.5t121 -227.5v-618q0 -64 13 -99t48 -53v-49h-303q-29 56 -32 135zM246 1217l196 370h238l197 -370h-142l-174 217l-176 -217h-139z" />
    <glyph glyph-name="atilde" unicode="&#xe3;" horiz-adv-x="1150" 
d="M745 535q-49 -23 -99.5 -37t-98 -23t-62.5 -14q-72 -21 -104.5 -53t-32.5 -93q0 -60 39 -95.5t105 -35.5q118 0 185.5 66t67.5 182v103zM750 135q-111 -174 -351 -174q-157 0 -243 89.5t-86 256.5q0 157 87 236.5t281 109.5q39 6 87 12t72.5 9.5t53.5 9t42.5 11.5
t26.5 17t17 26.5t4 37.5q0 67 -41.5 95t-136.5 28q-89 0 -135.5 -35t-46.5 -100v-16h-272v20q0 167 117 262.5t327 95.5q229 0 350 -79.5t121 -227.5v-618q0 -64 13 -99t48 -53v-49h-303q-29 56 -32 135zM879 1538q-26 -124 -77 -184t-132 -60q-37 0 -74 11l-88 26
q-38 10 -66 10q-66 0 -88 -77h-110q25 121 74.5 178t130.5 57q40 0 86 -14l92 -25q24 -8 55 -8q65 0 86 86h111z" />
    <glyph glyph-name="adieresis" unicode="&#xe4;" horiz-adv-x="1150" 
d="M745 535q-49 -23 -99.5 -37t-98 -23t-62.5 -14q-72 -21 -104.5 -53t-32.5 -93q0 -60 39 -95.5t105 -35.5q118 0 185.5 66t67.5 182v103zM750 135q-111 -174 -351 -174q-157 0 -243 89.5t-86 256.5q0 157 87 236.5t281 109.5q39 6 87 12t72.5 9.5t53.5 9t42.5 11.5
t26.5 17t17 26.5t4 37.5q0 67 -41.5 95t-136.5 28q-89 0 -135.5 -35t-46.5 -100v-16h-272v20q0 167 117 262.5t327 95.5q229 0 350 -79.5t121 -227.5v-618q0 -64 13 -99t48 -53v-49h-303q-29 56 -32 135zM274 1276v246h226v-246h-226zM623 1276v246h225v-246h-225z" />
    <glyph glyph-name="aring" unicode="&#xe5;" horiz-adv-x="1150" 
d="M750 135q-111 -174 -351 -174q-157 0 -243 89.5t-86 256.5q0 157 87 236.5t281 109.5q39 6 87 12t72.5 9.5t53.5 9t42.5 11.5t26.5 17t17 26.5t4 37.5q0 67 -41.5 95t-136.5 28q-89 0 -135.5 -35t-46.5 -100v-16h-272v20q0 167 117 262.5t327 95.5q229 0 350 -79.5
t121 -227.5v-618q0 -64 13 -99t48 -53v-49h-303q-29 56 -32 135zM311 1430q0 107 74.5 181.5t181.5 74.5t181.5 -74.5t74.5 -181.5t-74.5 -181.5t-181.5 -74.5t-181.5 74.5t-74.5 181.5zM449 1427q0 -49 34 -82.5t84 -33.5t84.5 33.5t34.5 82.5q0 50 -35 85.5t-84 35.5
t-83.5 -35.5t-34.5 -85.5zM745 535q-49 -23 -99.5 -37t-98 -23t-62.5 -14q-72 -21 -104.5 -53t-32.5 -93q0 -60 39 -95.5t105 -35.5q118 0 185.5 66t67.5 182v103z" />
    <glyph glyph-name="ae" unicode="&#xe6;" horiz-adv-x="1810" 
d="M850 154q-134 -191 -440 -191q-165 0 -252.5 89t-87.5 255q0 291 333 340q36 5 79 10.5t67.5 8.5t53.5 7.5t44 8t32.5 9.5t25.5 13t15.5 17t10 23t2.5 30q0 70 -38.5 95.5t-141.5 25.5q-82 0 -126 -35.5t-44 -103.5v-8h-274v22q0 167 120 261.5t336 94.5q229 0 348 -116
q119 116 322 116q240 0 374 -151.5t134 -431.5q0 -49 -2 -76h-740q1 -128 63 -198t171 -70q140 0 205 133h291q-40 -172 -177 -270.5t-340 -98.5q-251 0 -364 191zM739 530q-72 -32 -177.5 -54t-133.5 -36q-76 -36 -76 -129q0 -62 40.5 -95.5t115.5 -33.5q98 0 164.5 62.5
t66.5 146.5v139zM1001 659h441v7q0 107 -59.5 168t-163.5 61q-96 0 -155.5 -64t-62.5 -172z" />
    <glyph glyph-name="ccedilla" unicode="&#xe7;" horiz-adv-x="1128" 
d="M784 410h287q-19 -207 -151.5 -327t-341.5 -120q-236 0 -371 154t-135 428q0 273 138 427t378 154q212 0 339 -112.5t142 -311.5h-289q-12 86 -61 132.5t-129 46.5q-215 0 -215 -340q0 -158 56 -242t159 -84q164 0 194 195zM358 -438v129q162 -43 256 -43q53 0 77 17.5
t24 55.5t-28.5 54t-92.5 16q-37 0 -57 -2v211h102v-90h14q236 0 236 -191q0 -200 -264 -200q-107 0 -267 43z" />
    <glyph glyph-name="egrave" unicode="&#xe8;" horiz-adv-x="1167" 
d="M373 657h428q-3 110 -58.5 168t-156.5 58q-94 0 -149 -58t-64 -168zM797 330h290q-45 -171 -178 -269t-325 -98q-234 0 -373 157.5t-139 430.5q0 267 136.5 421t371.5 154q250 0 386 -151.5t136 -431.5q0 -49 -2 -76h-727q12 -258 225 -258q146 0 199 121zM291 1587h258
l196 -370h-141z" />
    <glyph glyph-name="eacute" unicode="&#xe9;" horiz-adv-x="1167" 
d="M373 657h428q-3 110 -58.5 168t-156.5 58q-94 0 -149 -58t-64 -168zM797 330h290q-45 -171 -178 -269t-325 -98q-234 0 -373 157.5t-139 430.5q0 267 136.5 421t371.5 154q250 0 386 -151.5t136 -431.5q0 -49 -2 -76h-727q12 -258 225 -258q146 0 199 121zM877 1587
l-314 -370h-141l196 370h259z" />
    <glyph glyph-name="ecircumflex" unicode="&#xea;" horiz-adv-x="1167" 
d="M373 657h428q-3 110 -58.5 168t-156.5 58q-94 0 -149 -58t-64 -168zM797 330h290q-45 -171 -178 -269t-325 -98q-234 0 -373 157.5t-139 430.5q0 267 136.5 421t371.5 154q250 0 386 -151.5t136 -431.5q0 -49 -2 -76h-727q12 -258 225 -258q146 0 199 121zM268 1217
l197 370h237l197 -370h-141l-174 217l-176 -217h-140z" />
    <glyph glyph-name="edieresis" unicode="&#xeb;" horiz-adv-x="1167" 
d="M373 657h428q-3 110 -58.5 168t-156.5 58q-94 0 -149 -58t-64 -168zM797 330h290q-45 -171 -178 -269t-325 -98q-234 0 -373 157.5t-139 430.5q0 267 136.5 421t371.5 154q250 0 386 -151.5t136 -431.5q0 -49 -2 -76h-727q12 -258 225 -258q146 0 199 121zM297 1276v246
h225v-246h-225zM645 1276v246h225v-246h-225z" />
    <glyph glyph-name="igrave" unicode="&#xec;" horiz-adv-x="557" 
d="M133 0v1087h291v-1087h-291zM-14 1587h258l196 -370h-141z" />
    <glyph glyph-name="iacute" unicode="&#xed;" horiz-adv-x="557" 
d="M133 0v1087h291v-1087h-291zM571 1587l-313 -370h-141l196 370h258z" />
    <glyph glyph-name="icircumflex" unicode="&#xee;" horiz-adv-x="557" 
d="M133 0v1087h291v-1087h-291zM-37 1217l197 370h237l197 -370h-141l-174 217l-177 -217h-139z" />
    <glyph glyph-name="idieresis" unicode="&#xef;" horiz-adv-x="557" 
d="M133 0v1087h291v-1087h-291zM-8 1276v246h225v-246h-225zM340 1276v246h225v-246h-225z" />
    <glyph glyph-name="eth" unicode="&#xf0;" horiz-adv-x="1247" 
d="M367 520q0 -151 67 -232t189 -81t188 80.5t66 232.5q0 150 -66 230.5t-188 80.5t-189 -80.5t-67 -230.5zM721 1004q-72 94 -201 180l-289 -144l-57 117l219 109q-52 32 -192 98l80 145q165 -51 352 -147l289 141l57 -114l-223 -111q422 -300 422 -758
q0 -260 -147.5 -408.5t-407.5 -148.5q-259 0 -405 144.5t-146 398.5q0 120 37 221t101.5 169.5t153 107t189.5 38.5q91 0 168 -38z" />
    <glyph glyph-name="ntilde" unicode="&#xf1;" horiz-adv-x="1222" 
d="M127 0v1087h285v-129q125 158 329 158q359 0 359 -375v-741h-291v657q0 113 -38 165t-130 52q-102 0 -162.5 -61.5t-60.5 -167.5v-645h-291zM944 1538q-26 -124 -77 -184t-132 -60q-36 0 -73 11l-89 26q-38 10 -65 10q-66 0 -88 -77h-111q25 121 74.5 178t130.5 57
q40 0 86 -14l92 -25q24 -8 56 -8q65 0 86 86h110z" />
    <glyph glyph-name="ograve" unicode="&#xf2;" horiz-adv-x="1245" 
d="M72 545q0 271 147 426t404 155t404 -155t147 -426t-147 -426.5t-404 -155.5t-404 155.5t-147 426.5zM367 545q0 -162 67 -250t189 -88t188 88t66 250t-66 249t-188 87t-189 -87t-67 -249zM330 1587h258l196 -370h-141z" />
    <glyph glyph-name="oacute" unicode="&#xf3;" horiz-adv-x="1245" 
d="M72 545q0 271 147 426t404 155t404 -155t147 -426t-147 -426.5t-404 -155.5t-404 155.5t-147 426.5zM367 545q0 -162 67 -250t189 -88t188 88t66 250t-66 249t-188 87t-189 -87t-67 -249zM915 1587l-313 -370h-141l196 370h258z" />
    <glyph glyph-name="ocircumflex" unicode="&#xf4;" horiz-adv-x="1245" 
d="M72 545q0 271 147 426t404 155t404 -155t147 -426t-147 -426.5t-404 -155.5t-404 155.5t-147 426.5zM367 545q0 -162 67 -250t189 -88t188 88t66 250t-66 249t-188 87t-189 -87t-67 -249zM307 1217l197 370h237l197 -370h-141l-174 217l-177 -217h-139z" />
    <glyph glyph-name="otilde" unicode="&#xf5;" horiz-adv-x="1245" 
d="M72 545q0 271 147 426t404 155t404 -155t147 -426t-147 -426.5t-404 -155.5t-404 155.5t-147 426.5zM367 545q0 -162 67 -250t189 -88t188 88t66 250t-66 249t-188 87t-189 -87t-67 -249zM940 1538q-26 -124 -77 -184t-132 -60q-37 0 -74 11l-88 26q-38 10 -65 10
q-66 0 -88 -77h-111q25 121 74.5 178t130.5 57q40 0 86 -14l92 -25q24 -8 55 -8q65 0 86 86h111z" />
    <glyph glyph-name="odieresis" unicode="&#xf6;" horiz-adv-x="1245" 
d="M72 545q0 271 147 426t404 155t404 -155t147 -426t-147 -426.5t-404 -155.5t-404 155.5t-147 426.5zM367 545q0 -162 67 -250t189 -88t188 88t66 250t-66 249t-188 87t-189 -87t-67 -249zM336 1276v246h225v-246h-225zM684 1276v246h225v-246h-225z" />
    <glyph glyph-name="divide" unicode="&#xf7;" horiz-adv-x="1705" 
d="M854 1155q62 0 107 -44t45 -107q0 -62 -44 -107t-108 -45q-63 0 -107.5 44.5t-44.5 107.5q0 64 45 107.5t107 43.5zM254 711h1198v-199h-1198v199zM854 369q62 0 107 -44.5t45 -107.5q0 -60 -44.5 -104.5t-107.5 -44.5t-107.5 43t-44.5 106q0 64 45 108t107 44z" />
    <glyph glyph-name="oslash" unicode="&#xf8;" horiz-adv-x="1245" 
d="M39 10l145 152q-114 155 -114 383q0 270 150.5 426.5t408.5 156.5q208 0 360 -122l135 145l78 -74l-141 -149q113 -144 113 -387q0 -268 -149.5 -424t-403.5 -156q-224 0 -365 121l-139 -148zM809 811q-75 78 -176 78q-135 0 -205 -89t-70 -263q0 -85 29 -170zM434 281
q70 -82 184 -82q130 0 198.5 89.5t68.5 260.5q0 91 -27 174z" />
    <glyph glyph-name="ugrave" unicode="&#xf9;" horiz-adv-x="1222" 
d="M1096 1087v-1087h-285v129q-125 -158 -330 -158q-358 0 -358 375v741h291v-657q0 -113 38 -164t130 -51q102 0 162.5 61.5t60.5 167.5v643h291zM319 1587h259l196 -370h-141z" />
    <glyph glyph-name="uacute" unicode="&#xfa;" horiz-adv-x="1222" 
d="M1096 1087v-1087h-285v129q-125 -158 -330 -158q-358 0 -358 375v741h291v-657q0 -113 38 -164t130 -51q102 0 162.5 61.5t60.5 167.5v643h291zM905 1587l-313 -370h-141l196 370h258z" />
    <glyph glyph-name="ucircumflex" unicode="&#xfb;" horiz-adv-x="1222" 
d="M1096 1087v-1087h-285v129q-125 -158 -330 -158q-358 0 -358 375v741h291v-657q0 -113 38 -164t130 -51q102 0 162.5 61.5t60.5 167.5v643h291zM297 1217l197 370h237l197 -370h-142l-174 217l-176 -217h-139z" />
    <glyph glyph-name="udieresis" unicode="&#xfc;" horiz-adv-x="1222" 
d="M1096 1087v-1087h-285v129q-125 -158 -330 -158q-358 0 -358 375v741h291v-657q0 -113 38 -164t130 -51q102 0 162.5 61.5t60.5 167.5v643h291zM326 1276v246h225v-246h-225zM674 1276v246h225v-246h-225z" />
    <glyph glyph-name="yacute" unicode="&#xfd;" horiz-adv-x="1099" 
d="M170 -436v235q27 -4 68 -4q172 0 172 162q0 13 -7 31l-391 1099h320l229 -784l223 784h306l-447 -1282q-48 -141 -122 -195t-228 -54q-55 0 -123 8zM844 1587l-314 -370h-141l197 370h258z" />
    <glyph glyph-name="thorn" unicode="&#xfe;" horiz-adv-x="1255" 
d="M133 -436v1909h283v-527q60 91 137.5 134.5t179.5 43.5q200 0 325.5 -158t125.5 -417q0 -264 -126.5 -425t-320.5 -161q-211 0 -321 172v-571h-283zM895 537q0 165 -62 251t-180 86q-116 0 -176.5 -85t-60.5 -252q0 -155 63.5 -238.5t179.5 -83.5q108 0 172 85.5
t64 236.5z" />
    <glyph glyph-name="ydieresis" unicode="&#xff;" horiz-adv-x="1099" 
d="M170 -436v235q27 -4 68 -4q172 0 172 162q0 13 -7 31l-391 1099h320l229 -784l223 784h306l-447 -1282q-48 -141 -122 -195t-228 -54q-55 0 -123 8zM264 1276v246h225v-246h-225zM612 1276v246h226v-246h-226z" />
    <glyph glyph-name="dotlessi" unicode="&#x131;" horiz-adv-x="557" 
d="M133 0v1087h291v-1087h-291z" />
    <glyph glyph-name="Lslash" unicode="&#x141;" horiz-adv-x="1196" 
d="M162 0v547l-115 -80l-110 160l225 155v691h303v-510l336 235l112 -158l-448 -313v-455h719v-272h-1022z" />
    <glyph glyph-name="lslash" unicode="&#x142;" horiz-adv-x="575" 
d="M143 0v559l-104 -78l-102 135l206 156v701h291v-527l103 78l104 -135l-207 -154v-735h-291z" />
    <glyph glyph-name="OE" unicode="&#x152;" horiz-adv-x="2310" 
d="M1130 346v778q-142 136 -323 136q-204 0 -307 -132.5t-103 -392.5q0 -258 103.5 -390t306.5 -132q184 0 323 133zM1130 0v102q-174 -143 -393 -143q-142 0 -262 55t-205.5 155t-133.5 245.5t-48 320.5q0 353 180.5 565.5t470.5 212.5q217 0 391 -143v103h1063v-256h-770
v-314h705v-252h-705v-379h807v-272h-1100z" />
    <glyph glyph-name="oe" unicode="&#x153;" horiz-adv-x="1947" 
d="M995 123q-132 -160 -383 -160q-255 0 -396.5 154t-141.5 436q0 269 144.5 421t397.5 152q265 0 392 -161q61 84 151 122.5t219 38.5q235 0 366.5 -152t131.5 -431q0 -49 -2 -76h-737q0 -126 59.5 -197t161.5 -71q156 0 215 125h289q-31 -162 -171 -261.5t-339 -99.5
q-116 0 -202 38.5t-155 121.5zM362 553q0 -167 67.5 -260.5t184.5 -93.5q128 0 198.5 92t70.5 264q0 160 -68.5 250t-189.5 90q-126 0 -194.5 -89t-68.5 -253zM1137 659h444q-3 115 -61.5 175.5t-163.5 60.5q-95 0 -156.5 -64.5t-62.5 -171.5z" />
    <glyph glyph-name="Scaron" unicode="&#x160;" horiz-adv-x="1366" 
d="M84 455h299q17 -122 100 -180t236 -58q266 0 266 186q0 93 -80 132t-313 92q-8 2 -49 11t-52.5 12t-45 11.5t-49.5 14.5t-42.5 15.5t-47 20t-40.5 23.5q-160 102 -160 334q0 215 145.5 329.5t422.5 114.5q259 0 404 -122t153 -344h-291q-8 107 -82.5 163t-210.5 56
q-119 0 -183.5 -47t-64.5 -132q0 -23 3.5 -41.5t13.5 -33t20.5 -25.5t31.5 -21t38.5 -16.5t49 -14.5t56.5 -14t68 -16t76 -18q90 -23 135.5 -35.5t106.5 -34t104 -45.5q180 -101 180 -330t-154 -356t-438 -127q-280 0 -437 130t-169 366zM369 1972h139l176 -219l174 219h141
l-196 -370h-238z" />
    <glyph glyph-name="scaron" unicode="&#x161;" horiz-adv-x="1118" 
d="M66 354h290q6 -164 228 -164q87 0 132.5 28.5t45.5 80.5q0 20 -5 34.5t-18.5 25.5t-28 18t-42 14.5t-51.5 12.5t-65.5 14t-76.5 18q-201 52 -289 123.5t-88 204.5q0 166 119.5 264t327.5 98q219 0 343 -97.5t132 -272.5h-283q-3 69 -52 107t-138 38q-164 0 -164 -100
q0 -46 54 -70q34 -15 190 -51q29 -6 53 -12q101 -24 166 -48.5t115 -62t72 -90t22 -125.5q0 -185 -130 -282t-380 -97q-226 0 -352.5 101.5t-126.5 277.5v12zM244 1587h139l176 -219l174 219h141l-196 -370h-238z" />
    <glyph glyph-name="Ydieresis" unicode="&#x178;" horiz-adv-x="1273" 
d="M811 0h-303v549l-535 924h371l315 -635l291 635h346l-485 -924v-549zM350 1661v246h225v-246h-225zM698 1661v246h226v-246h-226z" />
    <glyph glyph-name="Zcaron" unicode="&#x17d;" horiz-adv-x="1230" 
d="M37 0v256l801 950h-785v267h1153v-256l-803 -951h785v-266h-1151zM301 1972h139l176 -219l175 219h141l-197 -370h-237z" />
    <glyph glyph-name="zcaron" unicode="&#x17e;" horiz-adv-x="1036" 
d="M35 0v223l596 633h-561v231h909v-237l-588 -608h608v-242h-964zM203 1587h139l176 -219l174 219h142l-197 -370h-238z" />
    <glyph glyph-name="florin" unicode="&#x192;" horiz-adv-x="1161" 
d="M-10 -389l61 229q65 -30 105 -30q64 0 92.5 41.5t44.5 142.5l127 790h-242v197h277l22 125q39 215 124 310t251 95q100 0 213 -43l-57 -219q-63 29 -109 29q-67 0 -98 -42t-45 -140l-19 -115h256v-197h-280l-97 -602q-55 -355 -114 -450q-54 -87 -125 -127.5t-172 -40.5
q-103 0 -215 47z" />
    <glyph glyph-name="circumflex" unicode="&#x2c6;" 
d="M197 1217l196 370h238l196 -370h-141l-174 217l-176 -217h-139z" />
    <glyph glyph-name="caron" unicode="&#x2c7;" 
d="M197 1587h139l176 -219l174 219h141l-196 -370h-238z" />
    <glyph glyph-name="breve" unicode="&#x2d8;" 
d="M203 1552h123q6 -77 51 -112t135 -35t134 35t50 112h123q-10 -157 -84.5 -230t-222.5 -73t-223.5 74t-85.5 229z" />
    <glyph glyph-name="dotaccent" unicode="&#x2d9;" 
d="M395 1270v258h236v-258h-236z" />
    <glyph glyph-name="ring" unicode="&#x2da;" 
d="M248 1442q0 111 76 188.5t188 77.5t190 -77.5t78 -188.5q0 -112 -77.5 -189t-190.5 -77q-112 0 -188 76.5t-76 189.5zM391 1442q0 -53 34.5 -88t86.5 -35t88.5 36t36.5 87t-37 87t-88 36q-52 0 -86.5 -35t-34.5 -88z" />
    <glyph glyph-name="ogonek" unicode="&#x2db;" 
d="M627 0q-127 -103 -127 -205q0 -80 82 -80h102v-174h-106q-238 0 -238 185q0 73 46 138t144 136h97z" />
    <glyph glyph-name="tilde" unicode="&#x2dc;" 
d="M829 1538q-27 -124 -77 -184t-131 -60q-37 0 -74 11l-88 26q-38 10 -66 10q-66 0 -88 -77h-110q25 121 74 178t130 57q40 0 86 -14l93 -25q24 -8 55 -8q65 0 86 86h110z" />
    <glyph glyph-name="hungarumlaut" unicode="&#x2dd;" 
d="M295 1217l115 370h221l-232 -370h-104zM563 1217l154 370h229l-270 -370h-113z" />
    <glyph glyph-name="mu" unicode="&#x3bc;" horiz-adv-x="1249" 
d="M205 1092h289l-76 -435q-31 -167 -31 -268q0 -94 42 -139t128 -45q104 0 158.5 87t89.5 286l90 514h289l-193 -1092h-268l18 117q-42 -77 -93.5 -113.5t-121.5 -36.5q-132 0 -213 121l-90 -526h-286z" />
    <glyph glyph-name="endash" unicode="&#x2013;" 
d="M0 434v221h1024v-221h-1024z" />
    <glyph glyph-name="emdash" unicode="&#x2014;" horiz-adv-x="2048" 
d="M0 655h2048v-221h-2048v221z" />
    <glyph glyph-name="quoteleft" unicode="&#x2018;" horiz-adv-x="532" 
d="M406 1214v-264h-279v258q0 126 78 211.5t201 91.5v-102q-150 -37 -150 -182v-13h150z" />
    <glyph glyph-name="quoteright" unicode="&#x2019;" horiz-adv-x="532" 
d="M127 1208v265h279v-261q0 -126 -78 -211.5t-201 -91.5v103q149 37 149 184v12h-149z" />
    <glyph glyph-name="quotesinglbase" unicode="&#x201a;" horiz-adv-x="532" 
d="M127 0v264h279v-258q0 -126 -78 -211.5t-201 -91.5v102q149 40 149 183v12h-149z" />
    <glyph glyph-name="quotedblleft" unicode="&#x201c;" horiz-adv-x="901" 
d="M369 1214v-264h-279v258q0 126 78 211.5t201 91.5v-102q-150 -37 -150 -182v-13h150zM809 1214v-264h-279v258q0 126 78 211.5t201 91.5v-102q-150 -37 -150 -178v-17h150z" />
    <glyph glyph-name="quotedblright" unicode="&#x201d;" horiz-adv-x="901" 
d="M90 1208v265h279v-261q0 -126 -78 -211.5t-201 -91.5v103q150 37 150 184v12h-150zM530 1208v265h279v-261q0 -126 -78 -211.5t-201 -91.5v103q150 38 150 180v16h-150z" />
    <glyph glyph-name="quotedblbase" unicode="&#x201e;" horiz-adv-x="901" 
d="M90 0v264h279v-258q0 -126 -78 -211.5t-201 -91.5v102q150 41 150 183v12h-150zM530 0v264h279v-258q0 -126 -78 -211.5t-201 -91.5v102q150 37 150 183v12h-150z" />
    <glyph glyph-name="dagger" unicode="&#x2020;" 
d="M393 -217v1069h-334v188h334v433h238v-433h334v-188h-334v-1069h-238z" />
    <glyph glyph-name="daggerdbl" unicode="&#x2021;" 
d="M393 -217v377h-334v190h334v551h-334v191h334v381h238v-381h334v-191h-334v-551h334v-190h-334v-377h-238z" />
    <glyph glyph-name="bullet" unicode="&#x2022;" horiz-adv-x="1208" 
d="M307 762q0 123 87 209t210 86q122 0 208.5 -86t86.5 -209q0 -122 -87 -209.5t-210 -87.5t-209 87t-86 210z" />
    <glyph glyph-name="ellipsis" unicode="&#x2026;" horiz-adv-x="2048" 
d="M190 0v301h302v-301h-302zM872 0v301h302v-301h-302zM1556 0v301h302v-301h-302z" />
    <glyph glyph-name="perthousand" unicode="&#x2030;" horiz-adv-x="2631" 
d="M66 1059q0 157 107.5 265t264.5 108q154 0 262.5 -109.5t108.5 -263.5t-108.5 -262.5t-262.5 -108.5q-157 0 -264.5 107t-107.5 264zM283 1059q0 -66 44.5 -111t110.5 -45q64 0 110 45.5t46 110.5q0 64 -45.5 109.5t-110.5 45.5q-66 0 -110.5 -44.5t-44.5 -110.5z
M371 -41l854 1473h161l-854 -1473h-161zM952 332q0 156 108 263t265 107q154 0 262.5 -108t108.5 -262t-108.5 -263.5t-262.5 -109.5q-157 0 -265 108t-108 265zM1169 332q0 -66 45 -112t111 -46q64 0 110 46.5t46 111.5q0 64 -45.5 109.5t-110.5 45.5q-66 0 -111 -44.5
t-45 -110.5zM1823 332q0 157 107.5 263.5t264.5 106.5q154 0 262.5 -108t108.5 -262t-108.5 -263.5t-262.5 -109.5q-157 0 -264.5 108t-107.5 265zM2040 332q0 -66 44.5 -112t110.5 -46q64 0 110 46.5t46 111.5q0 64 -45.5 109.5t-110.5 45.5q-66 0 -110.5 -44.5
t-44.5 -110.5z" />
    <glyph glyph-name="guilsinglleft" unicode="&#x2039;" horiz-adv-x="485" 
d="M72 416v256l336 289v-238l-205 -178l205 -178v-240z" />
    <glyph glyph-name="guilsinglright" unicode="&#x203a;" horiz-adv-x="485" 
d="M412 672v-256l-334 -289v238l205 180l-205 176v240z" />
    <glyph glyph-name="fraction" unicode="&#x2044;" horiz-adv-x="342" 
d="M-346 -41l870 1493h164l-872 -1493h-162z" />
    <glyph glyph-name="trademark" unicode="&#x2122;" horiz-adv-x="1705" 
d="M207 1462h485v-112h-168v-435h-149v435h-168v112zM803 1462h196l127 -332l123 332h197v-547h-135v410l-154 -410h-61l-158 410v-410h-135v547z" />
    <glyph glyph-name="minus" unicode="&#x2212;" horiz-adv-x="1705" 
d="M254 713h1198v-203h-1198v203z" />
    <glyph glyph-name="fi" unicode="&#xfb01;" horiz-adv-x="1196" 
d="M178 0v883h-155v204h155v101q0 153 79 224t247 71q62 0 139 -6v-232h-76q-62 0 -84 -15.5t-22 -66.5v-76h182v-204h-180v-883h-285zM776 0v1087h285v-1087h-285zM776 1208v265h285v-265h-285z" />
    <glyph glyph-name="fl" unicode="&#xfb02;" horiz-adv-x="1193" 
d="M178 0v883h-155v204h155v101q0 153 79 224t247 71q62 0 139 -6v-232h-76q-62 0 -84 -15.5t-22 -66.5v-76h182v-204h-180v-883h-285zM776 0v1473h285v-1473h-285z" />
    </font>
</defs>
</svg>
