<?xml version="1.0" standalone="no"?>
<!DOCTYPE svg PUBLIC "-//W3C//DTD SVG 1.1//EN" "http://www.w3.org/Graphics/SVG/1.1/DTD/svg11.dtd" >
<svg xmlns="http://www.w3.org/2000/svg" xmlns:xlink="http://www.w3.org/1999/xlink" version="1.1">
<metadata>
Created by FontForge 20170731 at Tue Jun 29 17:22:40 2021
 By Aleksey,,,
Copyright 1990 as an unpublished work by Bitstream Inc.  All rights reserved.  Confidential.
</metadata>
<defs>
<font id="Swiss721BT-RomanExtended" horiz-adv-x="1374" >
  <font-face 
    font-family="Swiss 721"
    font-weight="400"
    font-stretch="normal"
    units-per-em="2048"
    panose-1="2 0 5 3 0 0 0 0 0 0"
    ascent="1638"
    descent="-410"
    x-height="1096"
    cap-height="1479"
    bbox="-430 -483 2503 1956"
    underline-thickness="131"
    underline-position="-325"
    unicode-range="U+0020-FFFD"
  />
<missing-glyph horiz-adv-x="681" 
 />
    <glyph glyph-name=".notdef" unicode="&#xfffd;" horiz-adv-x="681" 
 />
    <glyph glyph-name=".null" horiz-adv-x="0" 
 />
    <glyph glyph-name="nonmarkingreturn" horiz-adv-x="682" 
 />
    <glyph glyph-name="space" unicode=" " horiz-adv-x="681" 
 />
    <glyph glyph-name="exclam" unicode="!" horiz-adv-x="663" 
d="M270 369l-47 571v539h217v-533l-47 -577h-123zM209 0v246h246v-246h-246z" />
    <glyph glyph-name="quotedbl" unicode="&#x22;" horiz-adv-x="614" 
d="M229 1436v-555h-139v555h139zM524 1436v-555h-139v555h139z" />
    <glyph glyph-name="numbersign" unicode="#" horiz-adv-x="1574" 
d="M924 1458l-162 -454h256l164 454h164l-160 -454h301l-51 -146h-303l-93 -264h322l-51 -145h-322l-162 -453h-165l161 453h-258l-162 -453h-165l159 453h-309l53 145h310l92 264h-330l51 146h332l162 454h166zM969 858h-260l-93 -264h261z" />
    <glyph glyph-name="dollar" unicode="$" horiz-adv-x="1366" 
d="M68 457h211q8 -132 96 -205t252 -82v487q-269 40 -393.5 134t-124.5 264q0 168 135.5 272.5t382.5 114.5v157h118v-155q239 -9 376.5 -114t146.5 -279h-209q-30 206 -314 221v-455q148 -24 248.5 -56t170 -79.5t101 -114t31.5 -157.5q0 -187 -142 -294t-409 -114v-174
h-118v174q-260 6 -409.5 130t-149.5 325zM745 170q342 12 342 227q0 103 -78.5 154.5t-263.5 83.5v-465zM627 842v438q-149 -7 -229.5 -65.5t-80.5 -153.5q0 -93 76 -146t234 -73z" />
    <glyph glyph-name="percent" unicode="%" horiz-adv-x="1759" 
d="M86 1087q0 190 91 291t263 101t264.5 -101t92.5 -291t-92.5 -291.5t-264.5 -101.5t-263 101t-91 292zM233 1087q0 -270 207 -270q209 0 209 270q0 269 -209 269q-207 0 -207 -269zM338 -39l932 1518h149l-932 -1518h-149zM961 354q0 190 92 292t264 102t264 -102t92 -292
t-92 -291.5t-264 -101.5t-264 101.5t-92 291.5zM1108 354q0 -133 53 -201.5t156 -68.5q207 0 207 270q0 271 -207 271q-103 0 -156 -69t-53 -202z" />
    <glyph glyph-name="ampersand" unicode="&#x26;" horiz-adv-x="1611" 
d="M1686 0h-275l-194 182q-105 -113 -242 -167t-316 -54q-246 0 -399.5 123t-153.5 305q0 316 400 461q-91 78 -134.5 153t-43.5 158q0 143 103 231.5t280 88.5q176 0 275 -82.5t99 -222.5q0 -228 -278 -357l387 -360q62 106 68 231h182q0 -202 -113 -358zM1087 303
l-466 436q-160 -75 -232 -146t-72 -167q0 -121 110.5 -205t283.5 -84q215 0 376 166zM686 926q108 48 158.5 102.5t50.5 126.5q0 74 -49 117t-137 43q-82 0 -133.5 -44t-51.5 -108q0 -59 38 -111t124 -126z" />
    <glyph glyph-name="quotesingle" unicode="'" horiz-adv-x="317" 
d="M229 1436v-555h-139v555h139z" />
    <glyph glyph-name="parenleft" unicode="(" horiz-adv-x="663" 
d="M657 1479q-319 -429 -319 -934t319 -934h-151q-197 238 -292 463.5t-95 470.5t95 470.5t292 463.5h151z" />
    <glyph glyph-name="parenright" unicode=")" horiz-adv-x="663" 
d="M6 -389q320 430 320 934t-320 934h152q197 -238 292 -463.5t95 -470.5t-95 -470.5t-292 -463.5h-152z" />
    <glyph glyph-name="asterisk" unicode="*" horiz-adv-x="1064" 
d="M459 1241v277h147v-277l262 86l45 -139l-262 -86l162 -223l-119 -86l-162 223l-161 -223l-119 86l160 223l-260 86l45 139z" />
    <glyph glyph-name="plus" unicode="+" horiz-adv-x="1705" 
d="M924 1221v-541h528v-139h-528v-541h-142v541h-528v139h528v541h142z" />
    <glyph glyph-name="comma" unicode="," horiz-adv-x="681" 
d="M209 0v246h246v-246q0 -138 -54 -213.5t-192 -126.5v133q64 25 92.5 66t28.5 110q0 5 -1 15.5t-1 15.5h-119z" />
    <glyph glyph-name="hyphen" unicode="-" horiz-adv-x="948" 
d="M98 457v180h752v-180h-752z" />
    <glyph glyph-name="period" unicode="." horiz-adv-x="681" 
d="M217 0v246h248v-246h-248z" />
    <glyph glyph-name="slash" unicode="/" horiz-adv-x="569" 
d="M113 -190h-136l560 1708h135z" />
    <glyph glyph-name="zero" unicode="0" horiz-adv-x="1366" 
d="M90 721q0 366 154 562t438 196t439 -195.5t155 -562.5t-155 -563.5t-439 -196.5q-283 0 -437.5 197t-154.5 563zM303 721q0 -569 381 -569q193 0 286 141t93 428t-93 428t-286 141q-381 0 -381 -569z" />
    <glyph glyph-name="one" unicode="1" horiz-adv-x="1366" 
d="M641 0v1040h-440v170h32q220 0 330 64.5t123 204.5h156v-1479h-201z" />
    <glyph glyph-name="two" unicode="2" horiz-adv-x="1366" 
d="M90 0v27q0 111 44 201t127 163t220 152q55 31 146 76.5t161.5 85t124.5 81.5q54 41 83.5 101.5t29.5 128.5q0 122 -95.5 201t-248.5 79q-165 0 -254 -87.5t-92 -254.5h-221v15q0 246 147.5 378t421.5 132q260 0 408.5 -125t148.5 -336q0 -149 -90 -268
q-31 -40 -66.5 -73.5t-87.5 -65.5t-83 -49.5t-101 -53.5q-35 -18 -114.5 -57.5t-114.5 -59t-88 -53t-87 -67t-59 -72.5h867v-199h-1127z" />
    <glyph glyph-name="three" unicode="3" horiz-adv-x="1366" 
d="M102 459h207q2 -156 93.5 -236t269.5 -80q179 0 279 72t100 195q0 256 -408 256q-57 0 -88 -2v170q43 -3 80 -3q360 0 360 218q0 110 -82.5 175.5t-228.5 65.5q-160 0 -249 -78.5t-89 -218.5v-8h-213v14q0 229 143 354.5t404 125.5q242 0 386 -113.5t144 -290.5
q0 -120 -67 -199.5t-197 -113.5q158 -15 242 -101.5t84 -232.5q0 -212 -157.5 -339.5t-434.5 -127.5q-291 0 -434.5 120.5t-143.5 367.5v10z" />
    <glyph glyph-name="four" unicode="4" horiz-adv-x="1366" 
d="M283 543h548l13 680zM831 0v362h-751v195l772 885h192v-899h244v-181h-244v-362h-213z" />
    <glyph glyph-name="five" unicode="5" horiz-adv-x="1366" 
d="M94 397h211q41 -245 346 -245q176 0 283.5 92t107.5 239q0 142 -105 233t-275 91q-226 0 -324 -156h-205l129 791h887v-187h-729l-70 -407q131 131 369 131q190 0 323 -86q103 -66 160.5 -170t57.5 -225q0 -236 -166 -386.5t-441 -150.5q-241 0 -388.5 115.5
t-170.5 320.5z" />
    <glyph glyph-name="six" unicode="6" horiz-adv-x="1366" 
d="M330 463q0 -134 99.5 -219.5t266.5 -85.5q179 0 284 86t105 223q0 139 -103 226t-275 87q-167 0 -272 -89.5t-105 -227.5zM303 731q170 225 473 225q234 0 377 -132.5t143 -344.5q0 -229 -166 -373.5t-438 -144.5q-294 0 -452 185.5t-158 533.5q0 386 167.5 592.5
t477.5 206.5q212 0 344 -95t160 -266h-209q-59 182 -295 182q-424 0 -424 -569z" />
    <glyph glyph-name="seven" unicode="7" horiz-adv-x="1366" 
d="M389 0q89 399 253.5 716t393.5 535h-930v191h1108v-197q-472 -568 -585 -1245h-240z" />
    <glyph glyph-name="eight" unicode="8" horiz-adv-x="1366" 
d="M418 793q-130 34 -198 110.5t-68 186.5q0 179 144 284t402 105q239 0 379 -107.5t140 -281.5q0 -109 -68.5 -186t-198.5 -111q324 -68 324 -375q0 -210 -155.5 -333.5t-434.5 -123.5q-278 0 -435 125.5t-157 331.5q0 152 84.5 249.5t241.5 125.5zM1057 436
q0 125 -98 195.5t-279 70.5q-183 0 -281 -70t-98 -196q0 -129 100 -205.5t273 -76.5q183 0 283 75t100 207zM999 1090q0 101 -80.5 157t-228.5 56q-158 0 -240.5 -55t-82.5 -158q0 -101 84.5 -162.5t232.5 -61.5t231.5 61t83.5 163z" />
    <glyph glyph-name="nine" unicode="9" horiz-adv-x="1366" 
d="M1067 711q-171 -226 -471 -226q-234 0 -377 132t-143 344q0 223 153 364q171 154 433 154q309 0 468.5 -182t159.5 -535q0 -386 -168.5 -594.5t-478.5 -208.5q-211 0 -343.5 97t-158.5 268h207q29 -91 105 -139t192 -48q422 0 422 565v9zM1042 979q0 134 -99.5 219.5
t-266.5 85.5q-179 0 -285 -86t-106 -223q0 -140 104.5 -226.5t276.5 -86.5q168 0 272 89t104 228z" />
    <glyph glyph-name="colon" unicode=":" horiz-adv-x="663" 
d="M209 848v248h246v-248h-246zM209 0v246h246v-246h-246z" />
    <glyph glyph-name="semicolon" unicode=";" horiz-adv-x="663" 
d="M201 0v246h248v-246q0 -138 -54.5 -213.5t-193.5 -126.5v133q64 25 92.5 66t28.5 110q0 5 -1.5 15.5t-1.5 15.5h-118zM201 848v248h248v-248h-248z" />
    <glyph glyph-name="less" unicode="&#x3c;" horiz-adv-x="1705" 
d="M1442 1006l-969 -396l969 -393v-154l-1178 484v129l1178 483v-153z" />
    <glyph glyph-name="equal" unicode="=" horiz-adv-x="1705" 
d="M1452 879v-140h-1198v140h1198zM1452 481v-139h-1198v139h1198z" />
    <glyph glyph-name="greater" unicode="&#x3e;" horiz-adv-x="1705" 
d="M1442 676v-129l-1178 -484v154l971 393l-971 396v153z" />
    <glyph glyph-name="question" unicode="?" horiz-adv-x="1214" 
d="M444 0v246h238v-246h-238zM461 387q0 6 -1 18.5t-1 18.5q0 92 35.5 151.5t117.5 126.5q23 18 94 69.5t109 84.5q98 85 98 209q0 120 -84 192t-233 72q-154 0 -237.5 -80.5t-86.5 -232.5h-219q8 235 157 368.5t408 133.5q231 0 373 -123.5t142 -323.5q0 -136 -72 -240
q-27 -39 -66.5 -76t-70 -58t-83.5 -56.5t-77 -52.5q-96 -68 -96 -172q0 -5 1 -14.5t1 -14.5h-209z" />
    <glyph glyph-name="at" unicode="@" horiz-adv-x="2048" 
d="M1190 475l59 236q-17 89 -68.5 136.5t-129.5 47.5q-90 0 -165 -59.5t-118 -163t-43 -226.5q0 -106 48.5 -162.5t137.5 -56.5q96 0 173.5 68t105.5 180zM1284 854l57 115h132l-146 -576q-8 -33 -8 -59q0 -94 100 -94q101 0 209 102q79 75 124.5 185.5t45.5 234.5
q0 257 -189 419t-501 162q-266 0 -457 -114t-296 -299.5t-105 -409.5q0 -177 61.5 -307.5t192.5 -230.5q99 -75 234.5 -117.5t289.5 -42.5q169 0 329 49t292 141l55 -82q-296 -223 -664 -223q-382 0 -628 187q-306 236 -306 628q0 335 203 582q145 177 350.5 269.5
t456.5 92.5q166 0 312.5 -46t250.5 -126q129 -100 197 -231t68 -283q0 -175 -63 -315.5t-185 -235.5q-139 -112 -316 -112q-200 0 -200 157v19q-108 -174 -301 -174q-152 0 -233 85.5t-81 246.5q0 156 63.5 283t172.5 198.5t241 71.5q170 0 242 -150z" />
    <glyph glyph-name="A" unicode="A" horiz-adv-x="1570" 
d="M-12 0l702 1479h219l658 -1479h-217l-189 422h-755l-197 -422h-221zM494 614h581l-282 631z" />
    <glyph glyph-name="B" unicode="B" horiz-adv-x="1591" 
d="M993 1479q217 0 333 -97.5t116 -275.5q0 -234 -234 -326q140 -28 214.5 -118t74.5 -232q0 -221 -129 -325.5t-395 -104.5h-803v1479h823zM950 1292h-571v-428h526q173 0 250.5 47t77.5 168q0 114 -68 163.5t-215 49.5zM954 672h-575v-471h545q182 0 267 51.5t85 171.5
q0 131 -78 189.5t-244 58.5z" />
    <glyph glyph-name="C" unicode="C" horiz-adv-x="1720" 
d="M1647 571q-29 -278 -232.5 -444t-517.5 -166q-375 0 -592 211t-217 567q0 176 56 320.5t159.5 246t256 157t339.5 55.5q309 0 508.5 -159t222.5 -417h-217q-31 177 -167.5 278t-348.5 101q-280 0 -436 -154.5t-156 -427.5q0 -272 157 -426.5t437 -154.5q217 0 361 113
t170 300h217z" />
    <glyph glyph-name="D" unicode="D" horiz-adv-x="1751" 
d="M889 1294h-510v-1108h510q138 0 231.5 23t159.5 80q76 65 121 184t45 268t-45 267.5t-121 183.5q-66 57 -159 79.5t-232 22.5zM821 1479q217 0 350 -25t246 -113q246 -192 246 -602t-246 -602q-60 -47 -126 -75.5t-147 -41.5t-148 -16.5t-175 -3.5h-651v1479h651z" />
    <glyph glyph-name="E" unicode="E" horiz-adv-x="1456" 
d="M170 0v1479h1176v-189h-967v-436h907v-195h-907v-460h981v-199h-1190z" />
    <glyph glyph-name="F" unicode="F" horiz-adv-x="1320" 
d="M170 0v1479h1128v-189h-919v-436h817v-201h-817v-653h-209z" />
    <glyph glyph-name="G" unicode="G" horiz-adv-x="1763" 
d="M1360 1012q-41 148 -172 228.5t-332 80.5q-258 0 -407.5 -156.5t-149.5 -425.5q0 -268 149 -424.5t402 -156.5q228 0 375.5 120t167.5 320h-469v195h663v-793h-145l-21 248q-87 -140 -233 -213.5t-340 -73.5q-228 0 -400.5 96.5t-266 273t-93.5 408.5q0 357 210 568
t574 211q287 0 483 -143t218 -363h-213z" />
    <glyph glyph-name="H" unicode="H" horiz-adv-x="1658" 
d="M170 0v1479h209v-596h901v596h209v-1479h-209v688h-901v-688h-209z" />
    <glyph glyph-name="I" unicode="I" horiz-adv-x="577" 
d="M184 0v1479h209v-1479h-209z" />
    <glyph glyph-name="J" unicode="J" horiz-adv-x="1165" 
d="M39 500h211v-33q0 -164 66 -238.5t214 -74.5q97 0 158.5 29.5t97.5 97.5q19 34 25 101t6 187v910h211v-979q0 -133 -16 -216t-68 -149q-134 -174 -401 -174q-504 0 -504 475v64z" />
    <glyph glyph-name="K" unicode="K" horiz-adv-x="1517" 
d="M170 0v1479h209v-760l864 760h268l-702 -615l704 -864h-245l-600 739l-289 -247v-492h-209z" />
    <glyph glyph-name="L" unicode="L" horiz-adv-x="1312" 
d="M170 0v1479h209v-1280h905v-199h-1114z" />
    <glyph glyph-name="M" unicode="M" horiz-adv-x="2123" 
d="M170 0v1479h315l572 -1289l585 1289h312v-1479h-205l12 1325l-598 -1325h-213l-588 1325l13 -1325h-205z" />
    <glyph glyph-name="N" unicode="N" horiz-adv-x="1759" 
d="M170 0v1479h283l931 -1262v1262h203v-1479h-282l-930 1262v-1262h-205z" />
    <glyph glyph-name="O" unicode="O" horiz-adv-x="1796" 
d="M88 739q0 176 56 320.5t159.5 246t256 157t339.5 55.5q375 0 592 -211.5t217 -567.5t-217 -567t-594 -211q-375 0 -592 211t-217 567zM305 739q0 -273 156.5 -427t437.5 -154t436.5 154.5t155.5 426.5q0 273 -156.5 427.5t-437.5 154.5q-280 0 -436 -154.5t-156 -427.5z
" />
    <glyph glyph-name="P" unicode="P" horiz-adv-x="1460" 
d="M170 0v1479h682q275 0 409 -107t134 -330t-134 -329.5t-409 -106.5h-473v-606h-209zM379 780h389q224 0 321 54t97 202q0 149 -94 203.5t-310 54.5h-403v-514z" />
    <glyph glyph-name="Q" unicode="Q" horiz-adv-x="1796" 
d="M1303 45q-149 -84 -406 -84q-375 0 -592 211t-217 567q0 176 56 320.5t159.5 246t256 157t339.5 55.5q375 0 592 -211.5t217 -567.5q0 -184 -62.5 -334.5t-179.5 -252.5l201 -160l-117 -150zM1128 190l-155 125l114 146l218 -176q90 71 138 187.5t48 266.5
q0 273 -156.5 427.5t-437.5 154.5q-280 0 -436 -154.5t-156 -427.5q0 -276 157.5 -428.5t448.5 -152.5q139 0 217 32z" />
    <glyph glyph-name="R" unicode="R" horiz-adv-x="1615" 
d="M170 0v1479h778q257 0 391 -103.5t134 -300.5q0 -283 -254 -362q114 -17 166 -83t61 -198l18 -239q6 -68 16 -111t38 -82h-244q-20 50 -27 154l-18 219q-12 151 -73.5 206.5t-223.5 55.5h-555v-635h-207zM848 1300h-471v-483h489q211 0 304.5 52t93.5 190q0 60 -16.5 102
t-47 69.5t-83.5 42.5t-115.5 21t-153.5 6z" />
    <glyph glyph-name="S" unicode="S" horiz-adv-x="1517" 
d="M102 500h222q6 -175 120.5 -259.5t343.5 -84.5q198 0 304 66t106 184q0 90 -60 137t-194 71l-366 66q-219 39 -323.5 132.5t-104.5 258.5q0 212 160 329.5t464 117.5q283 0 435 -121.5t155 -347.5h-209q-10 142 -107 209t-290 67q-190 0 -288.5 -60.5t-98.5 -174.5
q0 -87 60.5 -130t201.5 -71l325 -64q244 -46 351.5 -134t107.5 -267q0 -218 -166 -340.5t-475 -122.5q-331 0 -500 136t-174 403z" />
    <glyph glyph-name="T" unicode="T" horiz-adv-x="1312" 
d="M760 1286v-1286h-209v1286h-561v193h1333v-193h-563z" />
    <glyph glyph-name="U" unicode="U" horiz-adv-x="1646" 
d="M1473 1479v-928q0 -289 -166.5 -439.5t-487.5 -150.5t-487 150.5t-166 439.5v928h209v-840q0 -244 107.5 -360.5t336.5 -116.5q230 0 337.5 116.5t107.5 360.5v840h209z" />
    <glyph glyph-name="V" unicode="V" horiz-adv-x="1517" 
d="M635 0l-647 1479h223l547 -1291l545 1291h227l-653 -1479h-242z" />
    <glyph glyph-name="W" unicode="W" horiz-adv-x="2328" 
d="M504 0l-498 1479h221l412 -1295l403 1295h242l404 -1295l411 1295h221l-497 -1479h-248l-414 1276l-409 -1276h-248z" />
    <glyph glyph-name="X" unicode="X" horiz-adv-x="1472" 
d="M10 0l608 758l-548 721h262l413 -561l447 561h252l-578 -719l594 -760h-266l-459 608l-456 -608h-269z" />
    <glyph glyph-name="Y" unicode="Y" horiz-adv-x="1464" 
d="M631 0v616l-662 863h254l510 -688l514 688h250l-657 -863v-616h-209z" />
    <glyph glyph-name="Z" unicode="Z" horiz-adv-x="1413" 
d="M35 0v205l1063 1085h-996v189h1258v-207l-1049 -1067h1067v-205h-1343z" />
    <glyph glyph-name="bracketleft" unicode="[" horiz-adv-x="663" 
d="M135 -389v1868h488v-160h-291v-1546h291v-162h-488z" />
    <glyph glyph-name="backslash" unicode="\" horiz-adv-x="569" 
d="M457 -190l-559 1708h135l559 -1708h-135z" />
    <glyph glyph-name="bracketright" unicode="]" horiz-adv-x="663" 
d="M528 1479v-1868h-487v162h291v1546h-291v160h487z" />
    <glyph glyph-name="asciicircum" unicode="^" horiz-adv-x="2048" 
d="M1116 1458l510 -557h-180l-422 420l-424 -420h-180l510 557h186z" />
    <glyph glyph-name="underscore" unicode="_" horiz-adv-x="1024" 
d="M1024 -340v-143h-1024v143h1024z" />
    <glyph glyph-name="grave" unicode="`" horiz-adv-x="1024" 
d="M508 1243l-287 305h250l182 -305h-145z" />
    <glyph glyph-name="a" unicode="a" 
d="M981 563q-79 -49 -332 -76q-64 -8 -99.5 -13t-79.5 -14t-67 -20.5t-45 -29t-30.5 -42t-8.5 -57.5q0 -79 63 -124.5t177 -45.5q185 0 303.5 76t118.5 182v164zM987 170q-74 -96 -191.5 -146.5t-269.5 -50.5q-204 0 -314 87.5t-110 242.5q0 170 158 266q46 27 127.5 43
t224.5 31q30 3 84 9q45 4 66.5 6.5t56 7.5t49.5 9.5t38 12t32.5 16.5t20.5 22.5t14.5 30.5t3.5 38q0 89 -67.5 127.5t-217.5 38.5q-168 0 -248.5 -50t-87.5 -166h-206q21 388 528 388q274 0 388 -82.5t114 -282.5v-442q0 -89 20.5 -125.5t77.5 -36.5q22 0 57 6v-160
q-79 -10 -153 -10q-87 0 -133.5 40.5t-61.5 129.5z" />
    <glyph glyph-name="b" unicode="b" horiz-adv-x="1433" 
d="M152 1479h198v-551q85 97 187.5 142.5t234.5 45.5q262 0 425 -158.5t163 -414.5t-163 -416t-423 -160q-261 0 -424 193v-160h-198v1479zM350 543q0 -183 108 -288t294 -105t292.5 104.5t106.5 288.5t-106.5 288.5t-292.5 104.5t-294 -105t-108 -288z" />
    <glyph glyph-name="c" unicode="c" horiz-adv-x="1312" 
d="M1008 733q-29 100 -114 157.5t-206 57.5q-188 0 -297.5 -107.5t-109.5 -293.5q0 -183 109 -291.5t284 -108.5q135 0 227.5 71.5t112.5 191.5h209q-35 -208 -184 -328.5t-373 -120.5q-262 0 -427 163t-165 423q0 261 165.5 423.5t430.5 162.5q216 0 362.5 -108t181.5 -292
h-206z" />
    <glyph glyph-name="d" unicode="d" horiz-adv-x="1433" 
d="M1284 1479v-1479h-201v160q-163 -193 -424 -193q-260 0 -422.5 160t-162.5 416t163 414.5t425 158.5q132 0 234 -45.5t187 -142.5v551h201zM1083 543q0 183 -107.5 288t-293.5 105t-292.5 -104.5t-106.5 -288.5t106.5 -288.5t292.5 -104.5t293.5 105t107.5 288z" />
    <glyph glyph-name="e" unicode="e" 
d="M295 508v-8q0 -156 109.5 -254.5t283.5 -98.5q130 0 222 52t126 143h232q-59 -180 -211 -280.5t-369 -100.5q-275 0 -438.5 160.5t-163.5 425.5q0 266 163.5 426t438.5 160q281 0 439.5 -156t158.5 -430v-39h-991zM301 649h772q-23 139 -125.5 219t-259.5 80
t-259.5 -79.5t-127.5 -219.5z" />
    <glyph glyph-name="f" unicode="f" horiz-adv-x="667" 
d="M227 0v924h-192v172h192v114q0 140 68 204.5t217 64.5q98 0 182 -17v-178q-71 14 -131 14q-76 0 -106.5 -28.5t-30.5 -100.5v-73h268v-172h-268v-924h-199z" />
    <glyph glyph-name="g" unicode="g" horiz-adv-x="1429" 
d="M1284 141q0 -278 -145.5 -404t-466.5 -126q-238 0 -373 91.5t-152 262.5h224q30 -176 303 -176q223 0 317 77.5t94 258.5v37q-87 -97 -189 -143t-234 -46q-261 0 -424.5 159t-163.5 415t163 415.5t422 159.5q291 0 426 -204v178h199v-955zM283 547q0 -187 109 -293.5
t298 -106.5t299.5 107t110.5 293q0 187 -110 294t-300 107q-189 0 -298 -107t-109 -294z" />
    <glyph glyph-name="h" unicode="h" horiz-adv-x="1351" 
d="M145 0v1479h199v-572q176 217 451 217q219 0 329 -125q55 -63 70.5 -144.5t15.5 -225.5v-629h-198v637q0 170 -58.5 244.5t-203.5 74.5q-178 0 -292 -109.5t-114 -289.5v-557h-199z" />
    <glyph glyph-name="i" unicode="i" horiz-adv-x="516" 
d="M160 0v1096h198v-1096h-198zM358 1239h-198v240h198v-240z" />
    <glyph glyph-name="j" unicode="j" horiz-adv-x="516" 
d="M358 1239h-198v240h198v-240zM160 1096h198v-1157q0 -184 -78 -257t-278 -73q-55 0 -86 2v186q25 -4 68 -4q176 0 176 154v1149z" />
    <glyph glyph-name="k" unicode="k" horiz-adv-x="1214" 
d="M160 0v1479h198v-863l576 480h295l-520 -418l559 -678h-269l-438 557l-203 -162v-395h-198z" />
    <glyph glyph-name="l" unicode="l" horiz-adv-x="516" 
d="M160 0v1479h198v-1479h-198z" />
    <glyph glyph-name="m" unicode="m" horiz-adv-x="2209" 
d="M342 907q179 217 453 217q154 0 255.5 -61t135.5 -174q97 122 210 178.5t259 56.5q220 0 330 -125q55 -63 70.5 -144.5t15.5 -225.5v-629h-199v637q0 170 -58.5 244.5t-203.5 74.5q-178 0 -292 -109.5t-114 -289.5v-557h-192v637q0 170 -58.5 244.5t-203.5 74.5
q-178 0 -292 -109.5t-114 -289.5v-557h-199v1096h197v-189z" />
    <glyph glyph-name="n" unicode="n" horiz-adv-x="1351" 
d="M145 0v1096h197v-189q179 217 453 217q219 0 329 -125q55 -63 70.5 -144.5t15.5 -225.5v-629h-198v637q0 170 -58.5 244.5t-203.5 74.5q-178 0 -292 -109.5t-114 -289.5v-557h-199z" />
    <glyph glyph-name="o" unicode="o" 
d="M74 547q0 265 166.5 425.5t447.5 160.5t446.5 -160t165.5 -426t-165.5 -426t-446.5 -160t-447.5 160.5t-166.5 425.5zM281 547q0 -186 109.5 -293t297.5 -107t297 107t109 293t-109 293.5t-297 107.5t-297.5 -107.5t-109.5 -293.5z" />
    <glyph glyph-name="p" unicode="p" horiz-adv-x="1433" 
d="M150 -389v1485h198v-164q158 190 424 190q260 0 424 -159.5t164 -415.5t-164 -415t-426 -159q-132 0 -234.5 46t-187.5 143v-551h-198zM348 547q0 -183 108 -288t294 -105q187 0 294 104.5t107 288.5t-107 288.5t-294 104.5q-186 0 -294 -105t-108 -288z" />
    <glyph glyph-name="q" unicode="q" horiz-adv-x="1433" 
d="M1282 -389h-199v551q-85 -97 -187 -143t-234 -46q-261 0 -424.5 159t-163.5 415t162.5 415.5t422.5 159.5q263 0 424 -190v164h199v-1485zM1083 547q0 183 -107.5 288t-293.5 105t-292.5 -104.5t-106.5 -288.5t106.5 -288.5t292.5 -104.5t293.5 105t107.5 288z" />
    <glyph glyph-name="r" unicode="r" horiz-adv-x="817" 
d="M145 0v1096h197v-185q75 109 178 165.5t225 56.5q52 0 89 -19v-209q-79 23 -142 23q-144 0 -246 -110t-102 -281v-537h-199z" />
    <glyph glyph-name="s" unicode="s" horiz-adv-x="1210" 
d="M63 356h218q14 -105 96.5 -162t224.5 -57q164 0 253 44.5t89 121.5q0 60 -45 88.5t-154 46.5l-245 43q-104 17 -169.5 37t-117.5 54t-75 85t-23 125q0 171 125 261t368 90q244 0 372 -93t128 -266v-8h-193q-10 102 -88.5 150.5t-228.5 48.5q-138 0 -210.5 -38.5
t-72.5 -109.5q0 -31 10.5 -53.5t27 -37t51 -26.5t67 -19t90.5 -17l238 -39q189 -32 269.5 -99t80.5 -211q0 -169 -140.5 -261.5t-406.5 -92.5q-255 0 -387.5 97t-151.5 298z" />
    <glyph glyph-name="t" unicode="t" horiz-adv-x="763" 
d="M459 270q0 -69 31 -99t104 -30q49 0 133 19v-180q-129 -19 -182 -19q-146 0 -215.5 62t-69.5 190v711h-190v172h190v278h199v-278h268v-172h-268v-654z" />
    <glyph glyph-name="u" unicode="u" horiz-adv-x="1351" 
d="M1210 1096v-1096h-196v186q-179 -217 -453 -217q-218 0 -330 127q-55 63 -70.5 145t-15.5 226v629h199v-637q0 -170 58.5 -245t203.5 -75q177 0 291.5 110t114.5 290v557h198z" />
    <glyph glyph-name="v" unicode="v" horiz-adv-x="1165" 
d="M477 0l-497 1096h237l373 -924l364 924h232l-488 -1096h-221z" />
    <glyph glyph-name="w" unicode="w" horiz-adv-x="1810" 
d="M410 0l-414 1096h242l282 -910l277 910h229l260 -910l295 910h234l-424 -1096h-226l-258 899l-270 -899h-227z" />
    <glyph glyph-name="x" unicode="x" horiz-adv-x="1214" 
d="M-8 0l487 557l-440 539h270l309 -418l324 418h266l-469 -539l490 -557h-277l-334 428l-366 -428h-260z" />
    <glyph glyph-name="y" unicode="y" horiz-adv-x="1165" 
d="M700 8q-63 -143 -110 -223t-94 -113q-82 -61 -244 -61q-56 0 -137 8v186q76 -12 116 -12q107 0 159.5 44.5t86.5 162.5l-497 1096h237l373 -924l364 924h232z" />
    <glyph glyph-name="z" unicode="z" horiz-adv-x="1214" 
d="M66 0v197l815 725h-772v174h1019v-174l-800 -746h821v-176h-1083z" />
    <glyph glyph-name="braceleft" unicode="{" horiz-adv-x="1024" 
d="M866 1327h-41q-125 0 -163.5 -46.5t-38.5 -182.5v-242q0 -150 -41 -222.5t-160 -103.5q121 -31 161 -102.5t40 -222.5v-242q0 -70 7.5 -110t29.5 -69t61.5 -39.5t105.5 -10.5h39v-148h-43q-98 0 -162 10t-110 39q-63 38 -81.5 107t-18.5 201v245q0 147 -54 209t-186 62
q-7 0 -21.5 -1t-21.5 -1v149q8 0 23 -1t22 -1q131 0 184.5 60.5t53.5 207.5v246q0 132 18.5 200.5t81.5 106.5q86 52 278 52h37v-150z" />
    <glyph glyph-name="bar" unicode="|" horiz-adv-x="1024" 
d="M588 1565v-2048h-150v2048h150z" />
    <glyph glyph-name="braceright" unicode="}" horiz-adv-x="1024" 
d="M575 1118v-246q0 -147 53.5 -207.5t184.5 -60.5q7 0 22 1t23 1v-149q-7 0 -22 1t-21 1q-134 0 -187 -61.5t-53 -209.5v-245q0 -132 -18.5 -201t-81.5 -107q-46 -29 -110 -39t-162 -10h-43v148h39q126 0 165 47.5t39 183.5v240q0 150 40.5 222t160.5 103
q-119 31 -160 103.5t-41 222.5v242q0 135 -39 182t-165 47h-39v150h37q194 0 278 -52q63 -38 81.5 -106.5t18.5 -200.5z" />
    <glyph glyph-name="asciitilde" unicode="~" horiz-adv-x="1705" 
d="M1530 614q-203 -141 -389 -141q-22 0 -43 2t-44.5 6.5t-39 8t-43 12.5t-38 12.5t-42.5 14.5t-39 14q-66 23 -99 33t-87.5 21t-102.5 11q-88 0 -180 -38.5t-205 -118.5v155q212 144 387 144q118 0 291 -62q10 -4 56.5 -20.5t63 -21.5t51.5 -15t61.5 -13.5t54.5 -3.5
q92 0 184 38.5t203 117.5v-156z" />
    <glyph glyph-name="exclamdown" unicode="&#xa1;" horiz-adv-x="663" 
d="M393 1110l47 -571v-539h-217v532l47 578h123zM455 1479v-246h-246v246h246z" />
    <glyph glyph-name="cent" unicode="&#xa2;" horiz-adv-x="1366" 
d="M1223 446q-34 -196 -166 -312.5t-340 -131.5v-203h-101v203q-243 12 -392.5 172.5t-149.5 409.5q0 248 146 405.5t396 177.5v189h101v-187q197 -9 328 -114.5t169 -284.5h-206q-60 198 -291 213v-797q125 15 202.5 83.5t94.5 176.5h209zM616 186v795
q-160 -23 -247.5 -127t-87.5 -270t86.5 -269t248.5 -129z" />
    <glyph glyph-name="sterling" unicode="&#xa3;" horiz-adv-x="1366" 
d="M86 643v137h141q-69 138 -69 244q0 127 88 244q164 211 518 211q255 0 394 -125t147 -359h-203q-11 153 -98 231.5t-246 78.5q-170 0 -274.5 -87t-104.5 -219q0 -88 61 -219h459v-137h-397q37 -78 37 -149q0 -159 -172 -306q121 41 215 41q59 0 178 -30.5t182 -30.5
q170 0 307 98l68 -186q-117 -117 -332 -117q-89 0 -258.5 41t-251.5 41q-138 0 -272 -84l-117 180q112 31 175 113t63 195q0 79 -48 194h-190z" />
    <glyph glyph-name="currency" unicode="&#xa4;" horiz-adv-x="1241" 
d="M367 1219q115 86 254 86q141 0 256 -86l204 204l82 -80l-205 -206q82 -110 82 -252q0 -143 -82 -252l205 -205l-82 -82l-204 205q-117 -86 -254 -86q-141 0 -256 86l-205 -205l-82 82l207 205q-84 106 -84 252q0 139 84 252l-207 206l82 80zM926 887q0 125 -88.5 214
t-214.5 89t-215 -89t-89 -214q0 -126 89 -215.5t215 -89.5t214.5 89.5t88.5 215.5z" />
    <glyph glyph-name="yen" unicode="&#xa5;" horiz-adv-x="1366" 
d="M1421 1442l-356 -469h272v-105h-354l-119 -157h473v-105h-557v-606h-190v606h-553v105h469l-121 157h-348v105h268l-362 469h247l498 -672l500 672h233z" />
    <glyph glyph-name="brokenbar" unicode="&#xa6;" horiz-adv-x="1024" 
d="M588 1432v-758h-150v758h150zM588 408v-758h-150v758h150z" />
    <glyph glyph-name="section" unicode="&#xa7;" horiz-adv-x="1359" 
d="M160 57h211v-8q0 -100 80 -153.5t233 -53.5q268 0 268 170q0 74 -55 113q-33 24 -79 42t-118.5 41.5t-115.5 39.5q-278 106 -342 149q-86 58 -122 115.5t-36 151.5q0 102 53 173.5t164 118.5q-96 86 -96 220q0 150 126.5 246t344.5 96q230 0 353.5 -96.5t123.5 -270.5
v-12h-205q-1 101 -71 148.5t-213 47.5q-123 0 -186.5 -40t-63.5 -117q0 -31 15.5 -57t41.5 -46.5t75.5 -43.5t100.5 -42.5t134 -49.5q13 -5 20 -7q26 -9 86 -30.5t81 -29.5t57 -22t55.5 -23t33.5 -18q88 -56 125 -119t37 -160q0 -192 -209 -284q100 -83 100 -221
q0 -172 -129 -267.5t-370 -95.5q-239 0 -369.5 102t-138.5 293zM961 315q120 67 120 187q0 63 -38 104t-123 72l-400 151q-9 3 -112 52q-65 -36 -96 -76.5t-31 -93.5q0 -75 53 -123.5t172 -93.5l321 -121q51 -17 134 -58z" />
    <glyph glyph-name="dieresis" unicode="&#xa8;" horiz-adv-x="1024" 
d="M371 1282h-199v227h199v-227zM852 1282h-199v227h199v-227z" />
    <glyph glyph-name="copyright" unicode="&#xa9;" horiz-adv-x="1705" 
d="M852 1464q309 0 524 -215q103 -103 159 -238t56 -284q0 -150 -55 -282t-158 -234q-109 -106 -245 -163.5t-281 -57.5q-146 0 -279 56.5t-239 162.5t-161.5 239t-55.5 279q0 147 56 281.5t163 242.5q103 103 235.5 158t280.5 55zM1493 727q0 130 -47.5 247t-136.5 206
q-188 188 -455 188q-264 0 -448 -184q-93 -93 -143 -211.5t-50 -245.5q0 -126 49 -242.5t141 -208.5q188 -188 451 -188q126 0 242.5 49t212.5 142q184 181 184 448zM1053 907q-12 77 -65.5 118.5t-139.5 41.5q-103 0 -164 -89t-61 -251q0 -158 62.5 -245t172.5 -87
q82 0 137 46.5t68 129.5h145q-9 -131 -107 -211.5t-249 -80.5q-181 0 -285 119.5t-104 334.5q0 201 109.5 323t285.5 122q142 0 236.5 -75.5t105.5 -195.5h-147z" />
    <glyph glyph-name="ordfeminine" unicode="&#xaa;" horiz-adv-x="1030" 
d="M735 1106q-62 -33 -248 -51q-58 -6 -88.5 -11t-66.5 -14t-52.5 -21t-28 -31.5t-11.5 -47.5q0 -55 47.5 -87t132.5 -32q138 0 226.5 53.5t88.5 126.5v115zM741 831q-115 -137 -346 -137q-153 0 -235 61.5t-82 170.5q0 118 117 186q23 13 66.5 22.5t80.5 14.5t117 14
q161 16 186 21q71 15 84 56q4 14 4 30q0 61 -51 87.5t-162 26.5q-127 0 -187.5 -34.5t-64.5 -114.5h-155q15 270 395 270q206 0 291.5 -57.5t85.5 -198.5v-309q0 -62 15.5 -87.5t57.5 -25.5q11 0 43 4v-112q-71 -6 -114 -6q-65 0 -100.5 28t-45.5 90z" />
    <glyph glyph-name="guillemotleft" unicode="&#xab;" horiz-adv-x="1138" 
d="M143 668l369 282v-217l-240 -186l240 -185v-217l-369 283v240zM618 668l367 282v-217l-240 -186l240 -185v-217l-367 283v240z" />
    <glyph glyph-name="logicalnot" unicode="&#xac;" horiz-adv-x="1705" 
d="M1452 860v-502h-137v363h-1061v139h1198z" />
    <glyph glyph-name="registered" unicode="&#xae;" horiz-adv-x="1705" 
d="M852 1464q151 0 285.5 -56t240.5 -163q102 -104 157.5 -237.5t55.5 -280.5q0 -309 -215 -518q-109 -106 -244 -162.5t-280 -56.5q-147 0 -280.5 57t-239.5 164q-105 106 -160 238t-55 278t58 282.5t165 245.5q206 209 512 209zM1493 721q0 275 -182 457
q-187 190 -457 190q-267 0 -446 -182q-94 -95 -144.5 -214t-50.5 -245q0 -257 188 -448q90 -92 206.5 -141.5t240.5 -49.5q265 0 459 188q90 87 138 202t48 243zM872 1159q349 0 349 -229q0 -89 -50 -147.5t-141 -77.5l187 -381h-177l-170 356h-155v-356h-158v835h315z
M844 1057h-129v-277h133q110 0 160.5 30.5t50.5 102.5q0 76 -52 110t-163 34z" />
    <glyph glyph-name="macron" unicode="&#xaf;" horiz-adv-x="1024" 
d="M905 1319h-786v154h786v-154z" />
    <glyph glyph-name="degree" unicode="&#xb0;" horiz-adv-x="673" 
d="M338 1456q119 0 203 -84.5t84 -204.5q0 -118 -83.5 -202t-205.5 -84q-121 0 -204 83t-83 203q0 121 85 205t204 84zM530 1169q0 80 -55.5 136.5t-136.5 56.5q-80 0 -137.5 -56t-57.5 -137q0 -82 56.5 -139t138.5 -57t137 57.5t55 138.5z" />
    <glyph glyph-name="plusminus" unicode="&#xb1;" horiz-adv-x="1705" 
d="M924 1192v-340h528v-139h-528v-340h-142v340h-528v139h528v340h142zM1452 170v-141h-1198v141h1198z" />
    <glyph glyph-name="twosuperior" unicode="&#xb2;" horiz-adv-x="901" 
d="M59 575v17q0 98 61.5 168.5t196.5 140.5q16 8 127 60t158 86q76 57 76 139q0 73 -63.5 120.5t-163.5 47.5q-109 0 -168 -52.5t-62 -152.5h-145v8q0 147 97.5 226t277.5 79q172 0 270 -74.5t98 -201.5q0 -92 -59 -160q-27 -32 -65.5 -59.5t-70 -43.5t-87.5 -42
q-22 -10 -64 -29.5t-63 -29.5t-53.5 -27t-51.5 -30.5t-39.5 -32t-34.5 -38.5h572v-119h-744z" />
    <glyph glyph-name="threesuperior" unicode="&#xb3;" horiz-adv-x="901" 
d="M68 850h137q0 -92 60 -140t177 -48q119 0 185.5 43t66.5 116q0 154 -270 154q-37 0 -57 -2v102h53q237 0 237 129q0 67 -54.5 106.5t-151.5 39.5q-104 0 -163 -47t-59 -132v-4h-141v9q0 136 94.5 211t266.5 75q160 0 255 -67.5t95 -173.5q0 -148 -174 -189
q104 -9 159.5 -61t55.5 -140q0 -126 -104 -202t-287 -76q-192 0 -286.5 72t-94.5 219v6z" />
    <glyph glyph-name="acute" unicode="&#xb4;" horiz-adv-x="1024" 
d="M369 1243l182 305h250l-287 -305h-145z" />
    <glyph glyph-name="paragraph" unicode="&#xb6;" horiz-adv-x="1024" 
d="M958 1393h-120v-1393h-111v1393h-178v-1393h-111v782q-172 7 -272 102t-100 246q0 156 106.5 252.5t286.5 96.5h499v-86z" />
    <glyph glyph-name="periodcentered" unicode="&#xb7;" horiz-adv-x="681" 
d="M190 721q0 63 44.5 106t107.5 43t106.5 -43t43.5 -106t-43.5 -107.5t-106.5 -44.5t-107.5 44.5t-44.5 107.5z" />
    <glyph glyph-name="cedilla" unicode="&#xb8;" horiz-adv-x="1024" 
d="M250 -403l39 86q121 -37 192 -37q123 0 123 78q0 73 -88 73q-41 0 -80 -16l-45 35l103 184h86l-72 -127q43 14 76 14q90 0 141 -45t51 -121q0 -176 -239 -176q-141 0 -287 52z" />
    <glyph glyph-name="onesuperior" unicode="&#xb9;" horiz-adv-x="901" 
d="M424 575v625h-291v103h23q145 0 217.5 37.5t81.5 121.5h102v-887h-133z" />
    <glyph glyph-name="ordmasculine" unicode="&#xba;" horiz-adv-x="1030" 
d="M55 1096q0 185 125 297t336 112t335 -111.5t124 -297.5q0 -187 -124 -298.5t-335 -111.5q-212 0 -336.5 111.5t-124.5 298.5zM211 1096q0 -130 82.5 -205.5t222.5 -75.5q141 0 223 75.5t82 205.5t-82 205t-223 75q-140 0 -222.5 -75t-82.5 -205z" />
    <glyph glyph-name="guillemotright" unicode="&#xbb;" horiz-adv-x="1138" 
d="M993 428l-366 -283v217l239 185l-239 186v217l366 -282v-240zM520 428l-368 -283v217l239 185l-239 186v217l368 -282v-240z" />
    <glyph glyph-name="onequarter" unicode="&#xbc;" horiz-adv-x="2156" 
d="M403 633v581h-278v97h22q137 0 206.5 36t78.5 113h98v-827h-127zM430 -39l1137 1518h159l-1136 -1518h-160zM1475 303h346l8 381zM1821 0v203h-473v108l485 496h121v-504h153v-100h-153v-203h-133z" />
    <glyph glyph-name="onehalf" unicode="&#xbd;" horiz-adv-x="2156" 
d="M403 633v581h-278v97h22q137 0 206.5 36t78.5 113h98v-827h-127zM430 -39l1137 1518h159l-1136 -1518h-160zM1354 0v14q0 92 58 158t187 131q16 8 121.5 57t151.5 80q72 50 72 129q0 68 -61 112t-157 44q-104 0 -160 -48t-59 -142h-139v8q0 136 93 210t265 74
q164 0 258.5 -70t94.5 -188q0 -82 -58 -149q-25 -30 -63 -56t-65.5 -39.5t-84.5 -39.5q-21 -10 -71.5 -32.5t-72 -33t-55 -29.5t-54.5 -38t-37 -41h544v-111h-708z" />
    <glyph glyph-name="threequarters" unicode="&#xbe;" horiz-adv-x="2156" 
d="M63 889h132q3 -176 229 -176q113 0 175.5 40.5t62.5 108.5q0 144 -256 144q-38 0 -56 -2v96q18 -2 49 -2q228 0 228 123q0 61 -52.5 98t-144.5 37q-100 0 -156.5 -44t-56.5 -122v-6h-133v8q0 129 89.5 198.5t254.5 69.5q153 0 243.5 -63t90.5 -162q0 -136 -166 -176
q99 -7 152 -56t53 -131q0 -119 -99 -190.5t-274 -71.5q-365 0 -365 275v4zM430 -39l1137 1518h159l-1136 -1518h-160zM1475 303h346l8 381zM1821 0v203h-473v108l485 496h121v-504h153v-100h-153v-203h-133z" />
    <glyph glyph-name="questiondown" unicode="&#xbf;" horiz-adv-x="1214" 
d="M786 1479v-246h-237v246h237zM770 1092q0 -6 1 -18.5t1 -18.5q0 -92 -36 -152t-118 -127q-23 -19 -93.5 -69.5t-108.5 -83.5q-99 -85 -99 -209q0 -120 84.5 -192t233.5 -72q154 0 237 81.5t86 233.5h220q-8 -236 -157.5 -370t-408.5 -134q-231 0 -372.5 124.5
t-141.5 324.5q0 135 72 239q27 39 66.5 75.5t70 58t83.5 56.5t77 52q96 68 96 172q0 5 -1 14.5t-1 14.5h209z" />
    <glyph glyph-name="Agrave" unicode="&#xc0;" horiz-adv-x="1570" 
d="M-12 0l702 1479h219l658 -1479h-217l-189 422h-755l-197 -422h-221zM494 614h581l-282 631zM797 1628l-287 305h250l182 -305h-145z" />
    <glyph glyph-name="Aacute" unicode="&#xc1;" horiz-adv-x="1570" 
d="M-12 0l702 1479h219l658 -1479h-217l-189 422h-755l-197 -422h-221zM494 614h581l-282 631zM657 1628l183 305h250l-287 -305h-146z" />
    <glyph glyph-name="Acircumflex" unicode="&#xc2;" horiz-adv-x="1570" 
d="M-12 0l702 1479h219l658 -1479h-217l-189 422h-755l-197 -422h-221zM494 614h581l-282 631zM801 1819l-174 -191h-211l274 305h221l275 -305h-211z" />
    <glyph glyph-name="Atilde" unicode="&#xc3;" horiz-adv-x="1570" 
d="M-12 0l702 1479h219l658 -1479h-217l-189 422h-755l-197 -422h-221zM494 614h581l-282 631zM408 1657q4 115 64.5 182.5t154.5 67.5q60 0 141 -35l94 -39q7 -3 29.5 -13t31 -13t23.5 -7t27 -4q74 0 92 109h127q-4 -116 -64 -183t-153 -67q-63 0 -144 35l-92 39
q-10 4 -30.5 12.5t-30 12.5t-23.5 7.5t-26 3.5q-76 0 -94 -108h-127z" />
    <glyph glyph-name="Adieresis" unicode="&#xc4;" horiz-adv-x="1570" 
d="M-12 0l702 1479h219l658 -1479h-217l-189 422h-755l-197 -422h-221zM494 614h581l-282 631zM659 1667h-198v227h198v-227zM1141 1667h-199v227h199v-227z" />
    <glyph glyph-name="Aring" unicode="&#xc5;" horiz-adv-x="1570" 
d="M-12 0l702 1479h219l658 -1479h-217l-189 422h-755l-197 -422h-221zM494 614h581l-282 631zM569 1751q0 95 63 150t175 55t174.5 -54.5t62.5 -150.5t-62.5 -150.5t-174.5 -54.5t-175 54.5t-63 150.5zM696 1751q0 -45 30 -72.5t81 -27.5t83 28.5t32 71.5q0 44 -31.5 71
t-83.5 27t-81.5 -26.5t-29.5 -71.5z" />
    <glyph glyph-name="AE" unicode="&#xc6;" horiz-adv-x="2365" 
d="M27 0l766 1479h1458v-189h-967v-436h907v-201h-907v-454h981v-199h-1190v422h-608l-221 -422h-219zM1075 614v676h-155l-355 -676h510z" />
    <glyph glyph-name="Ccedilla" unicode="&#xc7;" horiz-adv-x="1720" 
d="M1647 571q-29 -278 -232.5 -444t-517.5 -166q-375 0 -592 211t-217 567q0 176 56 320.5t159.5 246t256 157t339.5 55.5q309 0 508.5 -159t222.5 -417h-217q-31 177 -167.5 278t-348.5 101q-280 0 -436 -154.5t-156 -427.5q0 -272 157 -426.5t437 -154.5q217 0 361 113
t170 300h217zM621 -403l38 86q121 -37 193 -37q123 0 123 78q0 73 -88 73q-41 0 -80 -16l-45 35l102 184h86l-71 -127q43 14 75 14q90 0 141.5 -45t51.5 -121q0 -86 -61 -131t-179 -45q-140 0 -286 52z" />
    <glyph glyph-name="Egrave" unicode="&#xc8;" horiz-adv-x="1456" 
d="M170 0v1479h1176v-189h-967v-436h907v-195h-907v-460h981v-199h-1190zM778 1628l-286 305h249l183 -305h-146z" />
    <glyph glyph-name="Eacute" unicode="&#xc9;" horiz-adv-x="1456" 
d="M170 0v1479h1176v-189h-967v-436h907v-195h-907v-460h981v-199h-1190zM639 1628l182 305h250l-287 -305h-145z" />
    <glyph glyph-name="Ecircumflex" unicode="&#xca;" horiz-adv-x="1456" 
d="M170 0v1479h1176v-189h-967v-436h907v-195h-907v-460h981v-199h-1190zM782 1819l-174 -191h-211l275 305h221l274 -305h-211z" />
    <glyph glyph-name="Edieresis" unicode="&#xcb;" horiz-adv-x="1456" 
d="M170 0v1479h1176v-189h-967v-436h907v-195h-907v-460h981v-199h-1190zM641 1667h-199v227h199v-227zM1122 1667h-198v227h198v-227z" />
    <glyph glyph-name="Igrave" unicode="&#xcc;" horiz-adv-x="577" 
d="M184 0v1479h209v-1479h-209zM285 1628l-287 305h250l182 -305h-145z" />
    <glyph glyph-name="Iacute" unicode="&#xcd;" horiz-adv-x="577" 
d="M184 0v1479h209v-1479h-209zM145 1628l183 305h250l-287 -305h-146z" />
    <glyph glyph-name="Icircumflex" unicode="&#xce;" horiz-adv-x="577" 
d="M184 0v1479h209v-1479h-209zM289 1819l-174 -191h-211l274 305h221l275 -305h-211z" />
    <glyph glyph-name="Idieresis" unicode="&#xcf;" horiz-adv-x="577" 
d="M184 0v1479h209v-1479h-209zM147 1667h-198v227h198v-227zM629 1667h-199v227h199v-227z" />
    <glyph glyph-name="Eth" unicode="&#xd0;" horiz-adv-x="1761" 
d="M831 1479q217 0 350 -25t246 -113q246 -192 246 -602t-246 -602q-60 -47 -126 -75.5t-147 -41.5t-148 -16.5t-175 -3.5h-651v721h-180v133h180v625h651zM895 1294h-506v-440h506v-133h-506v-535h506q139 0 233 23t160 80q76 65 122 184.5t46 267.5t-46 267t-122 184
q-66 57 -160 79.5t-233 22.5z" />
    <glyph glyph-name="Ntilde" unicode="&#xd1;" horiz-adv-x="1759" 
d="M170 0v1479h283l931 -1262v1262h203v-1479h-282l-930 1262v-1262h-205zM487 1657q4 115 65 182.5t155 67.5q60 0 141 -35l94 -39q7 -3 29.5 -13t31 -13t23.5 -7t27 -4q74 0 92 109h127q-4 -116 -64 -183t-153 -67q-63 0 -144 35l-92 39q-10 4 -30.5 12.5t-30 12.5
t-23.5 7.5t-26 3.5q-77 0 -95 -108h-127z" />
    <glyph glyph-name="Ograve" unicode="&#xd2;" horiz-adv-x="1796" 
d="M88 739q0 176 56 320.5t159.5 246t256 157t339.5 55.5q375 0 592 -211.5t217 -567.5t-217 -567t-594 -211q-375 0 -592 211t-217 567zM305 739q0 -273 156.5 -427t437.5 -154t436.5 154.5t155.5 426.5q0 273 -156.5 427.5t-437.5 154.5q-280 0 -436 -154.5t-156 -427.5z
M895 1628l-287 305h250l182 -305h-145z" />
    <glyph glyph-name="Oacute" unicode="&#xd3;" horiz-adv-x="1796" 
d="M88 739q0 176 56 320.5t159.5 246t256 157t339.5 55.5q375 0 592 -211.5t217 -567.5t-217 -567t-594 -211q-375 0 -592 211t-217 567zM305 739q0 -273 156.5 -427t437.5 -154t436.5 154.5t155.5 426.5q0 273 -156.5 427.5t-437.5 154.5q-280 0 -436 -154.5t-156 -427.5z
M756 1628l182 305h250l-287 -305h-145z" />
    <glyph glyph-name="Ocircumflex" unicode="&#xd4;" horiz-adv-x="1796" 
d="M88 739q0 176 56 320.5t159.5 246t256 157t339.5 55.5q375 0 592 -211.5t217 -567.5t-217 -567t-594 -211q-375 0 -592 211t-217 567zM305 739q0 -273 156.5 -427t437.5 -154t436.5 154.5t155.5 426.5q0 273 -156.5 427.5t-437.5 154.5q-280 0 -436 -154.5t-156 -427.5z
M899 1819l-174 -191h-211l274 305h222l274 -305h-211z" />
    <glyph glyph-name="Otilde" unicode="&#xd5;" horiz-adv-x="1796" 
d="M88 739q0 176 56 320.5t159.5 246t256 157t339.5 55.5q375 0 592 -211.5t217 -567.5t-217 -567t-594 -211q-375 0 -592 211t-217 567zM305 739q0 -273 156.5 -427t437.5 -154t436.5 154.5t155.5 426.5q0 273 -156.5 427.5t-437.5 154.5q-280 0 -436 -154.5t-156 -427.5z
M506 1657q4 115 64.5 182.5t154.5 67.5q60 0 141 -35l95 -39q8 -4 29.5 -13t30.5 -12.5t23.5 -7.5t26.5 -4q74 0 92 109h127q-4 -116 -64 -183t-153 -67q-62 0 -143 35l-92 39q-10 4 -31 13t-30.5 12.5t-23.5 7t-26 3.5q-76 0 -94 -108h-127z" />
    <glyph glyph-name="Odieresis" unicode="&#xd6;" horiz-adv-x="1796" 
d="M88 739q0 176 56 320.5t159.5 246t256 157t339.5 55.5q375 0 592 -211.5t217 -567.5t-217 -567t-594 -211q-375 0 -592 211t-217 567zM305 739q0 -273 156.5 -427t437.5 -154t436.5 154.5t155.5 426.5q0 273 -156.5 427.5t-437.5 154.5q-280 0 -436 -154.5t-156 -427.5z
M758 1667h-199v227h199v-227zM1239 1667h-199v227h199v-227z" />
    <glyph glyph-name="multiply" unicode="&#xd7;" horiz-adv-x="1705" 
d="M860 709l469 469l98 -99l-469 -469l469 -469l-98 -96l-469 467l-469 -467l-98 96l469 469l-469 469l98 99z" />
    <glyph glyph-name="Oslash" unicode="&#xd8;" horiz-adv-x="1796" 
d="M270 213q-182 213 -182 526q0 176 56 320.5t159.5 246t256 157t339.5 55.5q365 0 549 -175l184 179l78 -78l-184 -178q182 -203 182 -527q0 -356 -217 -567t-594 -211q-348 0 -549 174l-182 -174l-76 80zM1374 1118l-876 -835q129 -129 399 -129q277 0 435.5 157
t158.5 428q0 226 -117 379zM420 362l876 838q-133 121 -399 121q-280 0 -436 -154.5t-156 -427.5q0 -240 115 -377z" />
    <glyph glyph-name="Ugrave" unicode="&#xd9;" horiz-adv-x="1646" 
d="M1473 1479v-928q0 -289 -166.5 -439.5t-487.5 -150.5t-487 150.5t-166 439.5v928h209v-840q0 -244 107.5 -360.5t336.5 -116.5q230 0 337.5 116.5t107.5 360.5v840h209zM819 1628l-287 305h250l183 -305h-146z" />
    <glyph glyph-name="Uacute" unicode="&#xda;" horiz-adv-x="1646" 
d="M1473 1479v-928q0 -289 -166.5 -439.5t-487.5 -150.5t-487 150.5t-166 439.5v928h209v-840q0 -244 107.5 -360.5t336.5 -116.5q230 0 337.5 116.5t107.5 360.5v840h209zM680 1628l182 305h250l-287 -305h-145z" />
    <glyph glyph-name="Ucircumflex" unicode="&#xdb;" horiz-adv-x="1646" 
d="M1473 1479v-928q0 -289 -166.5 -439.5t-487.5 -150.5t-487 150.5t-166 439.5v928h209v-840q0 -244 107.5 -360.5t336.5 -116.5q230 0 337.5 116.5t107.5 360.5v840h209zM823 1819l-174 -191h-211l275 305h221l274 -305h-211z" />
    <glyph glyph-name="Udieresis" unicode="&#xdc;" horiz-adv-x="1646" 
d="M1473 1479v-928q0 -289 -166.5 -439.5t-487.5 -150.5t-487 150.5t-166 439.5v928h209v-840q0 -244 107.5 -360.5t336.5 -116.5q230 0 337.5 116.5t107.5 360.5v840h209zM682 1667h-199v227h199v-227zM1163 1667h-198v227h198v-227z" />
    <glyph glyph-name="Yacute" unicode="&#xdd;" horiz-adv-x="1464" 
d="M631 0v616l-662 863h254l510 -688l514 688h250l-657 -863v-616h-209zM590 1628l182 305h250l-287 -305h-145z" />
    <glyph glyph-name="Thorn" unicode="&#xde;" horiz-adv-x="1460" 
d="M170 0v1479h209v-289h473q275 0 409 -106.5t134 -329.5t-134 -330t-409 -107h-473v-317h-209zM379 492h389q224 0 321 54t97 202q0 149 -94 203.5t-310 54.5h-403v-514z" />
    <glyph glyph-name="germandbls" unicode="&#xdf;" horiz-adv-x="1310" 
d="M145 0v1024q0 455 498 455q254 0 388 -95.5t134 -269.5q0 -235 -223 -309q293 -56 293 -373q0 -201 -139.5 -329t-362.5 -128q-80 0 -186 25v166q78 -16 151 -16q157 0 244.5 77t87.5 213q0 147 -94 209t-299 62h-78v170h129q135 0 205 54.5t70 158.5q0 102 -77 158.5
t-222 56.5q-97 0 -159 -19.5t-98 -64t-49.5 -108t-13.5 -161.5v-956h-199z" />
    <glyph glyph-name="agrave" unicode="&#xe0;" 
d="M981 563q-79 -49 -332 -76q-64 -8 -99.5 -13t-79.5 -14t-67 -20.5t-45 -29t-30.5 -42t-8.5 -57.5q0 -79 63 -124.5t177 -45.5q185 0 303.5 76t118.5 182v164zM987 170q-74 -96 -191.5 -146.5t-269.5 -50.5q-204 0 -314 87.5t-110 242.5q0 170 158 266q46 27 127.5 43
t224.5 31q30 3 84 9q45 4 66.5 6.5t56 7.5t49.5 9.5t38 12t32.5 16.5t20.5 22.5t14.5 30.5t3.5 38q0 89 -67.5 127.5t-217.5 38.5q-168 0 -248.5 -50t-87.5 -166h-206q21 388 528 388q274 0 388 -82.5t114 -282.5v-442q0 -89 20.5 -125.5t77.5 -36.5q22 0 57 6v-160
q-79 -10 -153 -10q-87 0 -133.5 40.5t-61.5 129.5zM682 1243l-287 305h250l182 -305h-145z" />
    <glyph glyph-name="aacute" unicode="&#xe1;" 
d="M981 563q-79 -49 -332 -76q-64 -8 -99.5 -13t-79.5 -14t-67 -20.5t-45 -29t-30.5 -42t-8.5 -57.5q0 -79 63 -124.5t177 -45.5q185 0 303.5 76t118.5 182v164zM987 170q-74 -96 -191.5 -146.5t-269.5 -50.5q-204 0 -314 87.5t-110 242.5q0 170 158 266q46 27 127.5 43
t224.5 31q30 3 84 9q45 4 66.5 6.5t56 7.5t49.5 9.5t38 12t32.5 16.5t20.5 22.5t14.5 30.5t3.5 38q0 89 -67.5 127.5t-217.5 38.5q-168 0 -248.5 -50t-87.5 -166h-206q21 388 528 388q274 0 388 -82.5t114 -282.5v-442q0 -89 20.5 -125.5t77.5 -36.5q22 0 57 6v-160
q-79 -10 -153 -10q-87 0 -133.5 40.5t-61.5 129.5zM543 1243l182 305h250l-287 -305h-145z" />
    <glyph glyph-name="acircumflex" unicode="&#xe2;" 
d="M981 563q-79 -49 -332 -76q-64 -8 -99.5 -13t-79.5 -14t-67 -20.5t-45 -29t-30.5 -42t-8.5 -57.5q0 -79 63 -124.5t177 -45.5q185 0 303.5 76t118.5 182v164zM987 170q-74 -96 -191.5 -146.5t-269.5 -50.5q-204 0 -314 87.5t-110 242.5q0 170 158 266q46 27 127.5 43
t224.5 31q30 3 84 9q45 4 66.5 6.5t56 7.5t49.5 9.5t38 12t32.5 16.5t20.5 22.5t14.5 30.5t3.5 38q0 89 -67.5 127.5t-217.5 38.5q-168 0 -248.5 -50t-87.5 -166h-206q21 388 528 388q274 0 388 -82.5t114 -282.5v-442q0 -89 20.5 -125.5t77.5 -36.5q22 0 57 6v-160
q-79 -10 -153 -10q-87 0 -133.5 40.5t-61.5 129.5zM686 1434l-174 -191h-211l274 305h222l274 -305h-211z" />
    <glyph glyph-name="atilde" unicode="&#xe3;" 
d="M981 563q-79 -49 -332 -76q-64 -8 -99.5 -13t-79.5 -14t-67 -20.5t-45 -29t-30.5 -42t-8.5 -57.5q0 -79 63 -124.5t177 -45.5q185 0 303.5 76t118.5 182v164zM987 170q-74 -96 -191.5 -146.5t-269.5 -50.5q-204 0 -314 87.5t-110 242.5q0 170 158 266q46 27 127.5 43
t224.5 31q30 3 84 9q45 4 66.5 6.5t56 7.5t49.5 9.5t38 12t32.5 16.5t20.5 22.5t14.5 30.5t3.5 38q0 89 -67.5 127.5t-217.5 38.5q-168 0 -248.5 -50t-87.5 -166h-206q21 388 528 388q274 0 388 -82.5t114 -282.5v-442q0 -89 20.5 -125.5t77.5 -36.5q22 0 57 6v-160
q-79 -10 -153 -10q-87 0 -133.5 40.5t-61.5 129.5zM293 1272q4 115 64.5 182.5t154.5 67.5q60 0 141 -35l95 -39q8 -4 29.5 -13t30.5 -12.5t23.5 -7.5t26.5 -4q74 0 92 109h127q-4 -116 -64 -183t-153 -67q-62 0 -143 35l-92 38q-11 4 -31 13t-30 13t-24 7.5t-26 3.5
q-76 0 -94 -108h-127z" />
    <glyph glyph-name="adieresis" unicode="&#xe4;" 
d="M981 563q-79 -49 -332 -76q-64 -8 -99.5 -13t-79.5 -14t-67 -20.5t-45 -29t-30.5 -42t-8.5 -57.5q0 -79 63 -124.5t177 -45.5q185 0 303.5 76t118.5 182v164zM987 170q-74 -96 -191.5 -146.5t-269.5 -50.5q-204 0 -314 87.5t-110 242.5q0 170 158 266q46 27 127.5 43
t224.5 31q30 3 84 9q45 4 66.5 6.5t56 7.5t49.5 9.5t38 12t32.5 16.5t20.5 22.5t14.5 30.5t3.5 38q0 89 -67.5 127.5t-217.5 38.5q-168 0 -248.5 -50t-87.5 -166h-206q21 388 528 388q274 0 388 -82.5t114 -282.5v-442q0 -89 20.5 -125.5t77.5 -36.5q22 0 57 6v-160
q-79 -10 -153 -10q-87 0 -133.5 40.5t-61.5 129.5zM545 1282h-199v227h199v-227zM1026 1282h-199v227h199v-227z" />
    <glyph glyph-name="aring" unicode="&#xe5;" 
d="M981 563q-79 -49 -332 -76q-64 -8 -99.5 -13t-79.5 -14t-67 -20.5t-45 -29t-30.5 -42t-8.5 -57.5q0 -79 63 -124.5t177 -45.5q185 0 303.5 76t118.5 182v164zM987 170q-74 -96 -191.5 -146.5t-269.5 -50.5q-204 0 -314 87.5t-110 242.5q0 170 158 266q46 27 127.5 43
t224.5 31q30 3 84 9q45 4 66.5 6.5t56 7.5t49.5 9.5t38 12t32.5 16.5t20.5 22.5t14.5 30.5t3.5 38q0 89 -67.5 127.5t-217.5 38.5q-168 0 -248.5 -50t-87.5 -166h-206q21 388 528 388q274 0 388 -82.5t114 -282.5v-442q0 -89 20.5 -125.5t77.5 -36.5q22 0 57 6v-160
q-79 -10 -153 -10q-87 0 -133.5 40.5t-61.5 129.5zM459 1405q0 95 62.5 150t174.5 55t175 -54.5t63 -150.5t-63 -150.5t-175 -54.5t-174.5 54.5t-62.5 150.5zM586 1405q0 -45 30 -72.5t80 -27.5t81.5 28.5t31.5 71.5q0 45 -30.5 71.5t-82.5 26.5t-81 -26.5t-29 -71.5z" />
    <glyph glyph-name="ae" unicode="&#xe6;" horiz-adv-x="2269" 
d="M1075 205q-95 -121 -225 -177.5t-309 -56.5q-200 0 -311 88.5t-111 241.5q0 169 157 264q48 29 129.5 45t221.5 29q196 20 229 26q99 19 124 67q13 25 13 61q0 87 -67 125t-217 38q-168 0 -248.5 -50t-87.5 -165h-207q24 392 541 392q350 0 444 -168q83 89 186.5 128.5
t243.5 39.5q259 0 416 -142q89 -79 137.5 -188t48.5 -228q0 -17 -4 -67h-989v-8q0 -156 108.5 -255.5t282.5 -99.5q130 0 222 53t126 144h232q-59 -180 -211 -280.5t-369 -100.5q-169 0 -293 60t-213 184zM995 563q-79 -49 -331 -76q-64 -8 -99.5 -13t-79.5 -14t-67 -20.5
t-45 -29t-30.5 -42t-8.5 -57.5q0 -79 62 -122.5t177 -43.5q186 0 304 74t118 180v164zM1196 649h770q-23 139 -125.5 219t-259.5 80q-159 0 -263.5 -82t-121.5 -217z" />
    <glyph glyph-name="ccedilla" unicode="&#xe7;" horiz-adv-x="1312" 
d="M1008 733q-29 100 -114 157.5t-206 57.5q-188 0 -297.5 -107.5t-109.5 -293.5q0 -183 109 -291.5t284 -108.5q135 0 227.5 71.5t112.5 191.5h209q-35 -208 -184 -328.5t-373 -120.5q-262 0 -427 163t-165 423q0 261 165.5 423.5t430.5 162.5q216 0 362.5 -108t181.5 -292
h-206zM383 -403l39 86q121 -37 192 -37q123 0 123 78q0 73 -88 73q-41 0 -80 -16l-45 35l103 184h86l-72 -127q43 14 76 14q90 0 141 -45t51 -121q0 -176 -239 -176q-141 0 -287 52z" />
    <glyph glyph-name="egrave" unicode="&#xe8;" 
d="M295 508v-8q0 -156 109.5 -254.5t283.5 -98.5q130 0 222 52t126 143h232q-59 -180 -211 -280.5t-369 -100.5q-275 0 -438.5 160.5t-163.5 425.5q0 266 163.5 426t438.5 160q281 0 439.5 -156t158.5 -430v-39h-991zM301 649h772q-23 139 -125.5 219t-259.5 80
t-259.5 -79.5t-127.5 -219.5zM715 1243l-287 305h250l182 -305h-145z" />
    <glyph glyph-name="eacute" unicode="&#xe9;" 
d="M295 508v-8q0 -156 109.5 -254.5t283.5 -98.5q130 0 222 52t126 143h232q-59 -180 -211 -280.5t-369 -100.5q-275 0 -438.5 160.5t-163.5 425.5q0 266 163.5 426t438.5 160q281 0 439.5 -156t158.5 -430v-39h-991zM301 649h772q-23 139 -125.5 219t-259.5 80
t-259.5 -79.5t-127.5 -219.5zM575 1243l183 305h250l-287 -305h-146z" />
    <glyph glyph-name="ecircumflex" unicode="&#xea;" 
d="M295 508v-8q0 -156 109.5 -254.5t283.5 -98.5q130 0 222 52t126 143h232q-59 -180 -211 -280.5t-369 -100.5q-275 0 -438.5 160.5t-163.5 425.5q0 266 163.5 426t438.5 160q281 0 439.5 -156t158.5 -430v-39h-991zM301 649h772q-23 139 -125.5 219t-259.5 80
t-259.5 -79.5t-127.5 -219.5zM719 1434l-174 -191h-211l274 305h221l275 -305h-211z" />
    <glyph glyph-name="edieresis" unicode="&#xeb;" 
d="M295 508v-8q0 -156 109.5 -254.5t283.5 -98.5q130 0 222 52t126 143h232q-59 -180 -211 -280.5t-369 -100.5q-275 0 -438.5 160.5t-163.5 425.5q0 266 163.5 426t438.5 160q281 0 439.5 -156t158.5 -430v-39h-991zM301 649h772q-23 139 -125.5 219t-259.5 80
t-259.5 -79.5t-127.5 -219.5zM578 1282h-199v227h199v-227zM1059 1282h-199v227h199v-227z" />
    <glyph glyph-name="igrave" unicode="&#xec;" horiz-adv-x="516" 
d="M160 0v1096h198v-1096h-198zM254 1243l-287 305h250l182 -305h-145z" />
    <glyph glyph-name="iacute" unicode="&#xed;" horiz-adv-x="516" 
d="M160 0v1096h198v-1096h-198zM115 1243l182 305h250l-287 -305h-145z" />
    <glyph glyph-name="icircumflex" unicode="&#xee;" horiz-adv-x="516" 
d="M160 0v1096h198v-1096h-198zM258 1434l-174 -191h-211l274 305h222l274 -305h-211z" />
    <glyph glyph-name="idieresis" unicode="&#xef;" horiz-adv-x="516" 
d="M160 0v1096h198v-1096h-198zM117 1282h-199v227h199v-227zM598 1282h-199v227h199v-227z" />
    <glyph glyph-name="eth" unicode="&#xf0;" 
d="M281 500q0 -163 108.5 -258t298.5 -95t298 95t108 258t-109 258.5t-297 95.5q-189 0 -298 -95.5t-109 -258.5zM920 989q-70 113 -175 230l-378 -150l-39 98l338 140q-44 49 -123 116l110 113q89 -70 189 -170l274 113l41 -103l-235 -92q192 -220 285 -409.5t93 -374.5
q0 -244 -164.5 -391.5t-447.5 -147.5t-448.5 147.5t-165.5 391.5q0 237 161 382.5t427 145.5q140 0 258 -39z" />
    <glyph glyph-name="ntilde" unicode="&#xf1;" horiz-adv-x="1351" 
d="M145 0v1096h197v-189q179 217 453 217q219 0 329 -125q55 -63 70.5 -144.5t15.5 -225.5v-629h-198v637q0 170 -58.5 244.5t-203.5 74.5q-178 0 -292 -109.5t-114 -289.5v-557h-199zM283 1272q4 115 64.5 182.5t154.5 67.5q60 0 141 -35l94 -39q7 -3 29.5 -13t31 -13
t23.5 -7t27 -4q74 0 92 109h127q-4 -116 -64 -183t-153 -67q-62 0 -143 35l-93 38q-12 5 -31 13t-29.5 12.5t-24 8t-25.5 3.5q-76 0 -94 -108h-127z" />
    <glyph glyph-name="ograve" unicode="&#xf2;" 
d="M74 547q0 265 166.5 425.5t447.5 160.5t446.5 -160t165.5 -426t-165.5 -426t-446.5 -160t-447.5 160.5t-166.5 425.5zM281 547q0 -186 109.5 -293t297.5 -107t297 107t109 293t-109 293.5t-297 107.5t-297.5 -107.5t-109.5 -293.5zM684 1243l-287 305h250l182 -305h-145z
" />
    <glyph glyph-name="oacute" unicode="&#xf3;" 
d="M74 547q0 265 166.5 425.5t447.5 160.5t446.5 -160t165.5 -426t-165.5 -426t-446.5 -160t-447.5 160.5t-166.5 425.5zM281 547q0 -186 109.5 -293t297.5 -107t297 107t109 293t-109 293.5t-297 107.5t-297.5 -107.5t-109.5 -293.5zM545 1243l182 305h250l-287 -305h-145z
" />
    <glyph glyph-name="ocircumflex" unicode="&#xf4;" 
d="M74 547q0 265 166.5 425.5t447.5 160.5t446.5 -160t165.5 -426t-165.5 -426t-446.5 -160t-447.5 160.5t-166.5 425.5zM281 547q0 -186 109.5 -293t297.5 -107t297 107t109 293t-109 293.5t-297 107.5t-297.5 -107.5t-109.5 -293.5zM688 1434l-174 -191h-211l275 305h221
l274 -305h-211z" />
    <glyph glyph-name="otilde" unicode="&#xf5;" 
d="M74 547q0 265 166.5 425.5t447.5 160.5t446.5 -160t165.5 -426t-165.5 -426t-446.5 -160t-447.5 160.5t-166.5 425.5zM281 547q0 -186 109.5 -293t297.5 -107t297 107t109 293t-109 293.5t-297 107.5t-297.5 -107.5t-109.5 -293.5zM295 1272q4 115 64.5 182.5t154.5 67.5
q60 0 141 -35l95 -39q8 -4 29.5 -13t30.5 -12.5t23.5 -7.5t26.5 -4q74 0 92 109h127q-4 -116 -64 -183t-153 -67q-62 0 -143 35l-92 38q-11 4 -31 13t-30 13t-24 7.5t-26 3.5q-76 0 -94 -108h-127z" />
    <glyph glyph-name="odieresis" unicode="&#xf6;" 
d="M74 547q0 265 166.5 425.5t447.5 160.5t446.5 -160t165.5 -426t-165.5 -426t-446.5 -160t-447.5 160.5t-166.5 425.5zM281 547q0 -186 109.5 -293t297.5 -107t297 107t109 293t-109 293.5t-297 107.5t-297.5 -107.5t-109.5 -293.5zM547 1282h-199v227h199v-227z
M1028 1282h-199v227h199v-227z" />
    <glyph glyph-name="divide" unicode="&#xf7;" horiz-adv-x="1705" 
d="M854 1106q51 0 88 -37.5t37 -89.5q0 -51 -36.5 -88t-88.5 -37t-88.5 36t-36.5 89q0 52 37 89.5t88 37.5zM1452 680v-139h-1198v139h1198zM854 367q51 0 88 -36.5t37 -88.5q0 -51 -36.5 -88t-88.5 -37q-54 0 -89.5 36t-35.5 89q0 52 37 88.5t88 36.5z" />
    <glyph glyph-name="oslash" unicode="&#xf8;" 
d="M195 174q-121 143 -121 373q0 265 166.5 425.5t447.5 160.5q259 0 408 -125l157 145l76 -80l-155 -143q126 -148 126 -383q0 -266 -165.5 -426t-446.5 -160q-257 0 -416 135l-147 -139l-74 84zM1026 788l-608 -557q101 -84 270 -84q188 0 298 109.5t110 296.5
q0 128 -70 235zM342 313l608 559q-105 76 -262 76q-188 0 -298.5 -110t-110.5 -297q0 -125 63 -228z" />
    <glyph glyph-name="ugrave" unicode="&#xf9;" horiz-adv-x="1351" 
d="M1210 1096v-1096h-196v186q-179 -217 -453 -217q-218 0 -330 127q-55 63 -70.5 145t-15.5 226v629h199v-637q0 -170 58.5 -245t203.5 -75q177 0 291.5 110t114.5 290v557h198zM672 1243l-287 305h250l182 -305h-145z" />
    <glyph glyph-name="uacute" unicode="&#xfa;" horiz-adv-x="1351" 
d="M1210 1096v-1096h-196v186q-179 -217 -453 -217q-218 0 -330 127q-55 63 -70.5 145t-15.5 226v629h199v-637q0 -170 58.5 -245t203.5 -75q177 0 291.5 110t114.5 290v557h198zM532 1243l183 305h250l-287 -305h-146z" />
    <glyph glyph-name="ucircumflex" unicode="&#xfb;" horiz-adv-x="1351" 
d="M1210 1096v-1096h-196v186q-179 -217 -453 -217q-218 0 -330 127q-55 63 -70.5 145t-15.5 226v629h199v-637q0 -170 58.5 -245t203.5 -75q177 0 291.5 110t114.5 290v557h198zM676 1434l-174 -191h-211l274 305h221l275 -305h-211z" />
    <glyph glyph-name="udieresis" unicode="&#xfc;" horiz-adv-x="1351" 
d="M1210 1096v-1096h-196v186q-179 -217 -453 -217q-218 0 -330 127q-55 63 -70.5 145t-15.5 226v629h199v-637q0 -170 58.5 -245t203.5 -75q177 0 291.5 110t114.5 290v557h198zM535 1282h-199v227h199v-227zM1016 1282h-199v227h199v-227z" />
    <glyph glyph-name="yacute" unicode="&#xfd;" horiz-adv-x="1165" 
d="M700 8q-63 -143 -110 -223t-94 -113q-82 -61 -244 -61q-56 0 -137 8v186q76 -12 116 -12q107 0 159.5 44.5t86.5 162.5l-497 1096h237l373 -924l364 924h232zM440 1243l183 305h249l-286 -305h-146z" />
    <glyph glyph-name="thorn" unicode="&#xfe;" horiz-adv-x="1433" 
d="M150 -389v1868h198v-545q168 188 424 188q260 0 424 -159.5t164 -415.5t-164 -415t-426 -159q-132 0 -234.5 46t-187.5 143v-551h-198zM348 547q0 -183 108 -288t294 -105q187 0 294 104.5t107 288.5t-107 288.5t-294 104.5q-186 0 -294 -105t-108 -288z" />
    <glyph glyph-name="ydieresis" unicode="&#xff;" horiz-adv-x="1165" 
d="M700 8q-63 -143 -110 -223t-94 -113q-82 -61 -244 -61q-56 0 -137 8v186q76 -12 116 -12q107 0 159.5 44.5t86.5 162.5l-497 1096h237l373 -924l364 924h232zM442 1282h-198v227h198v-227zM924 1282h-199v227h199v-227z" />
    <glyph glyph-name="dotlessi" unicode="&#x131;" horiz-adv-x="516" 
d="M160 0v1096h198v-1096h-198z" />
    <glyph glyph-name="Lslash" unicode="&#x141;" horiz-adv-x="1323" 
d="M180 0v604l-153 -108l-74 102l227 158v723h209v-594l383 266l72 -102l-455 -318v-532h905v-199h-1114z" />
    <glyph glyph-name="lslash" unicode="&#x142;" horiz-adv-x="536" 
d="M170 0v623l-139 -105l-64 90l203 146v725h199v-598l137 92l61 -88l-198 -140v-745h-199z" />
    <glyph glyph-name="OE" unicode="&#x152;" horiz-adv-x="2594" 
d="M1315 422v635q-136 262 -438 262q-265 0 -418.5 -156t-153.5 -424q0 -267 153.5 -423t418.5 -156q302 0 438 262zM1315 1479h1169v-189h-966v-436h907v-201h-907v-454h981v-199h-1184v170q-55 -98 -178 -153.5t-297 -55.5q-344 0 -548 211t-204 567q0 349 206 564
t540 215q339 0 481 -209v170z" />
    <glyph glyph-name="oe" unicode="&#x153;" horiz-adv-x="2371" 
d="M281 547q0 -186 109.5 -293t297.5 -107t297 107t109 293t-109 293.5t-297 107.5t-297.5 -107.5t-109.5 -293.5zM1298 649h770q-23 139 -125.5 219t-259.5 80q-156 0 -258 -79.5t-127 -219.5zM1292 508v-8q0 -156 108.5 -254.5t282.5 -98.5q130 0 222.5 52t126.5 143h231
q-59 -180 -211 -280.5t-369 -100.5q-170 0 -296.5 59.5t-196.5 169.5q-156 -229 -502 -229q-281 0 -447.5 160.5t-166.5 425.5t166.5 425.5t447.5 160.5q339 0 504 -228q155 228 491 228q259 0 416 -142q89 -79 138 -188t49 -228q0 -5 -5 -67h-989z" />
    <glyph glyph-name="Scaron" unicode="&#x160;" horiz-adv-x="1517" 
d="M102 500h222q6 -175 120.5 -259.5t343.5 -84.5q198 0 304 66t106 184q0 90 -60 137t-194 71l-366 66q-219 39 -323.5 132.5t-104.5 258.5q0 212 160 329.5t464 117.5q283 0 435 -121.5t155 -347.5h-209q-10 142 -107 209t-290 67q-190 0 -288.5 -60.5t-98.5 -174.5
q0 -87 60.5 -130t201.5 -71l325 -64q244 -46 351.5 -134t107.5 -267q0 -218 -166 -340.5t-475 -122.5q-331 0 -500 136t-174 403zM760 1743l174 190h211l-275 -305h-221l-274 305h211z" />
    <glyph glyph-name="scaron" unicode="&#x161;" horiz-adv-x="1210" 
d="M63 356h218q14 -105 96.5 -162t224.5 -57q164 0 253 44.5t89 121.5q0 60 -45 88.5t-154 46.5l-245 43q-104 17 -169.5 37t-117.5 54t-75 85t-23 125q0 171 125 261t368 90q244 0 372 -93t128 -266v-8h-193q-10 102 -88.5 150.5t-228.5 48.5q-138 0 -210.5 -38.5
t-72.5 -109.5q0 -31 10.5 -53.5t27 -37t51 -26.5t67 -19t90.5 -17l238 -39q189 -32 269.5 -99t80.5 -211q0 -169 -140.5 -261.5t-406.5 -92.5q-255 0 -387.5 97t-151.5 298zM606 1358l174 190h211l-274 -305h-221l-275 305h211z" />
    <glyph glyph-name="Ydieresis" unicode="&#x178;" horiz-adv-x="1464" 
d="M631 0v616l-662 863h254l510 -688l514 688h250l-657 -863v-616h-209zM592 1667h-199v227h199v-227zM1073 1667h-199v227h199v-227z" />
    <glyph glyph-name="Zcaron" unicode="&#x17d;" horiz-adv-x="1413" 
d="M35 0v205l1063 1085h-996v189h1258v-207l-1049 -1067h1067v-205h-1343zM707 1743l174 190h211l-275 -305h-221l-274 305h210z" />
    <glyph glyph-name="zcaron" unicode="&#x17e;" horiz-adv-x="1214" 
d="M66 0v197l815 725h-772v174h1019v-174l-800 -746h821v-176h-1083zM608 1358l174 190h211l-274 -305h-221l-275 305h211z" />
    <glyph glyph-name="florin" unicode="&#x192;" horiz-adv-x="1366" 
d="M569 639h-221l27 139h221l74 367q20 96 41.5 155t57.5 102t88.5 61t131.5 18q63 0 168 -19l-35 -180q-86 14 -123 14q-56 0 -82 -26t-38 -92l-78 -400h237l-26 -139h-240l-141 -715q-19 -95 -41 -155t-58.5 -103.5t-89.5 -61.5t-131 -18q-53 0 -168 21l35 178
q74 -12 123 -12q56 0 82.5 26.5t38.5 91.5z" />
    <glyph glyph-name="circumflex" unicode="&#x2c6;" horiz-adv-x="1024" 
d="M512 1434l-174 -191h-211l274 305h222l274 -305h-211z" />
    <glyph glyph-name="caron" unicode="&#x2c7;" horiz-adv-x="1024" 
d="M512 1358l174 190h211l-274 -305h-222l-274 305h211z" />
    <glyph glyph-name="breve" unicode="&#x2d8;" horiz-adv-x="1024" 
d="M158 1542h139q9 -137 215 -137t215 137h139q-29 -293 -354 -293t-354 293z" />
    <glyph glyph-name="dotaccent" unicode="&#x2d9;" horiz-adv-x="1024" 
d="M406 1286v240h215v-240h-215z" />
    <glyph glyph-name="ring" unicode="&#x2da;" horiz-adv-x="1024" 
d="M274 1430q0 94 63 149t175 55t175 -54t63 -150t-63 -150.5t-175 -54.5t-175 54.5t-63 150.5zM399 1432q0 -45 30.5 -73t80.5 -28q52 0 83.5 28.5t31.5 72.5t-31.5 71t-83.5 27t-81.5 -26.5t-29.5 -71.5z" />
    <glyph glyph-name="ogonek" unicode="&#x2db;" horiz-adv-x="1024" 
d="M625 0q-67 -57 -99 -108t-32 -105q0 -43 20.5 -61.5t67.5 -18.5h94v-156h-96q-118 0 -175 44t-57 137q0 126 189 268h88z" />
    <glyph glyph-name="tilde" unicode="&#x2dc;" horiz-adv-x="1024" 
d="M119 1272q4 115 64.5 182.5t154.5 67.5q60 0 141 -35l94 -39q7 -3 29.5 -13t31 -13t23.5 -7t27 -4q74 0 92 109h127q-4 -116 -64 -183t-153 -67q-62 0 -143 35l-92 38q-11 4 -31 13t-30 13t-24 7.5t-26 3.5q-76 0 -94 -108h-127z" />
    <glyph glyph-name="hungarumlaut" unicode="&#x2dd;" horiz-adv-x="1024" 
d="M565 1243l162 303h197l-254 -303h-105zM305 1243l162 303h197l-254 -303h-105z" />
    <glyph glyph-name="mu" unicode="&#x3bc;" horiz-adv-x="1150" 
d="M385 1071l-129 -600q-14 -63 -14 -133q0 -99 52 -153t148 -54q135 0 211 96t121 308l115 536h178l-156 -731q-22 -108 -22 -133q0 -37 17 -52.5t55 -15.5q20 0 32 2l-30 -143q-49 -10 -109 -10q-64 0 -97 29.5t-52 99.5q-88 -131 -271 -131q-82 0 -143 27.5t-113 88.5
l-110 -530h-181l318 1499h180z" />
    <glyph glyph-name="endash" unicode="&#x2013;" horiz-adv-x="1024" 
d="M0 481v131h1024v-131h-1024z" />
    <glyph glyph-name="emdash" unicode="&#x2014;" horiz-adv-x="2048" 
d="M2048 612v-131h-2048v131h2048z" />
    <glyph glyph-name="quoteleft" unicode="&#x2018;" horiz-adv-x="616" 
d="M438 1178v-246h-245v246q0 138 53.5 214t191.5 126v-134q-64 -25 -92.5 -66.5t-28.5 -109.5q0 -4 1 -14.5t1 -15.5h119z" />
    <glyph glyph-name="quoteright" unicode="&#x2019;" horiz-adv-x="616" 
d="M178 1233v246h246v-246q0 -138 -54 -213.5t-192 -126.5v133q64 25 92.5 66.5t28.5 109.5q0 4 -1 15t-1 16h-119z" />
    <glyph glyph-name="quotesinglbase" unicode="&#x201a;" horiz-adv-x="616" 
d="M178 0v246h246v-246q0 -138 -54 -213.5t-192 -126.5v133q64 25 92.5 66t28.5 110q0 5 -1 15.5t-1 15.5h-119z" />
    <glyph glyph-name="quotedblleft" unicode="&#x201c;" horiz-adv-x="1009" 
d="M438 1178v-246h-245v246q0 138 53.5 214t191.5 126v-134q-64 -25 -92.5 -66.5t-28.5 -109.5q0 -4 1 -14.5t1 -15.5h119zM838 1178v-246h-248v246q0 138 54.5 213.5t193.5 126.5v-134q-64 -25 -92.5 -66.5t-28.5 -109.5q0 -4 1 -14.5t1 -15.5h119z" />
    <glyph glyph-name="quotedblright" unicode="&#x201d;" horiz-adv-x="1009" 
d="M178 1233v246h246v-246q0 -138 -54 -213.5t-192 -126.5v133q64 25 92.5 66.5t28.5 109.5q0 4 -1 15t-1 16h-119zM571 1233v246h246v-246q0 -138 -54 -213.5t-192 -126.5v133q64 25 92.5 66.5t28.5 109.5q0 4 -1 15t-1 16h-119z" />
    <glyph glyph-name="quotedblbase" unicode="&#x201e;" horiz-adv-x="1009" 
d="M178 0v246h246v-246q0 -138 -54 -213.5t-192 -126.5v133q64 25 92.5 66t28.5 110q0 5 -1 15.5t-1 15.5h-119zM571 0v246h246v-246q0 -138 -54 -213.5t-192 -126.5v133q64 25 92.5 66t28.5 110q0 5 -1 15.5t-1 15.5h-119z" />
    <glyph glyph-name="dagger" unicode="&#x2020;" horiz-adv-x="1359" 
d="M584 829h-463v181h463v469h194v-469h461v-181h-461v-1208h-194v1208z" />
    <glyph glyph-name="daggerdbl" unicode="&#x2021;" horiz-adv-x="1359" 
d="M586 860h-465v184h465v435h188v-435h465v-184h-465v-620h465v-185h-465v-434h-188v434h-465v185h465v620z" />
    <glyph glyph-name="bullet" unicode="&#x2022;" horiz-adv-x="1208" 
d="M307 762q0 123 87 209t210 86q122 0 208.5 -86t86.5 -209q0 -122 -87 -209.5t-210 -87.5t-209 87t-86 210z" />
    <glyph glyph-name="ellipsis" unicode="&#x2026;" horiz-adv-x="2048" 
d="M217 0v246h248v-246h-248zM899 0v246h248v-246h-248zM1583 0v246h248v-246h-248z" />
    <glyph glyph-name="perthousand" unicode="&#x2030;" horiz-adv-x="2588" 
d="M86 1087q0 190 91 291t263 101t264.5 -101t92.5 -291t-92.5 -291.5t-264.5 -101.5t-263 101t-91 292zM233 1087q0 -270 207 -270q209 0 209 270q0 269 -209 269q-207 0 -207 -269zM338 -39l932 1518h149l-932 -1518h-149zM961 354q0 190 92 292t264 102t264 -102t92 -292
t-92 -291.5t-264 -101.5t-264 101.5t-92 291.5zM1108 354q0 -133 53 -201.5t156 -68.5q207 0 207 270q0 271 -207 271q-103 0 -156 -69t-53 -202zM1792 354q0 191 91 292.5t263 101.5t264.5 -102t92.5 -292t-92.5 -291.5t-264.5 -101.5t-263 101t-91 292zM1939 354
q0 -270 207 -270q209 0 209 270q0 271 -209 271q-207 0 -207 -271z" />
    <glyph glyph-name="guilsinglleft" unicode="&#x2039;" horiz-adv-x="663" 
d="M143 668l369 282v-217l-240 -186l240 -185v-217l-369 283v240z" />
    <glyph glyph-name="guilsinglright" unicode="&#x203a;" horiz-adv-x="663" 
d="M520 428l-368 -283v217l239 185l-239 186v217l368 -282v-240z" />
    <glyph glyph-name="fraction" unicode="&#x2044;" horiz-adv-x="436" 
d="M-430 -39l1137 1518h159l-1136 -1518h-160z" />
    <glyph glyph-name="trademark" unicode="&#x2122;" horiz-adv-x="1705" 
d="M694 1458v-80h-172v-458h-108v458h-172v80h452zM963 1458l151 -385l141 385h150v-538h-98v444l-166 -444h-56l-174 444v-444h-98v538h150z" />
    <glyph glyph-name="minus" unicode="&#x2212;" horiz-adv-x="1705" 
d="M1452 682v-141h-1198v141h1198z" />
    <glyph glyph-name="fi" unicode="&#xfb01;" horiz-adv-x="1204" 
d="M1042 1239h-198v240h198v-240zM844 0v1096h198v-1096h-198zM227 0v924h-192v172h192v114q0 140 68 204.5t217 64.5q98 0 182 -17v-178q-71 14 -131 14q-76 0 -106.5 -28.5t-30.5 -100.5v-73h268v-172h-268v-924h-199z" />
    <glyph glyph-name="fl" unicode="&#xfb02;" horiz-adv-x="1204" 
d="M844 0v1479h198v-1479h-198zM227 0v924h-192v172h192v114q0 140 68 204.5t217 64.5q98 0 182 -17v-178q-71 14 -131 14q-76 0 -106.5 -28.5t-30.5 -100.5v-73h268v-172h-268v-924h-199z" />
    </font>
</defs>
</svg>
