<?xml version="1.0" encoding="utf-8"?>
<!-- Generator: Adobe Illustrator 25.4.1, SVG Export Plug-In . SVG Version: 6.00 Build 0)  -->
<svg version="1.1" id="Layer_1" xmlns="http://www.w3.org/2000/svg" xmlns:xlink="http://www.w3.org/1999/xlink" x="0px" y="0px"
	 viewBox="0 0 26 22" style="enable-background:new 0 0 26 22;" xml:space="preserve">
<style type="text/css">
	.st0{fill:#FFF3F0;}
</style>
<g id="Symbols">
	<g id="Boxes_x2F_Produkter" transform="translate(-48.000000, -369.000000)">
		<g id="Group-10" transform="translate(28.000000, 347.000000)">
			<g id="Arrow-Black-Right" transform="translate(21.506579, 24.000000)">
				<path class="st0" d="M13.1,19.5c-0.4,0-0.8-0.1-1.1-0.4c-0.6-0.6-0.6-1.5,0-2.1l6.5-6.4H0c-0.8,0-1.5-0.7-1.5-1.5
					S-0.8,7.5,0,7.5h18.6l-6.5-6.4c-0.3-0.3-0.4-0.7-0.4-1.1c0-0.4,0.1-0.8,0.4-1.1c0.6-0.6,1.5-0.6,2.1,0l9.1,9c0,0,0,0,0,0
					c0,0,0,0,0,0l0,0c0,0,0,0,0,0v0c0,0,0,0,0,0s0,0,0,0c0,0,0,0,0,0v0c0,0,0,0,0,0l0,0c0.2,0.2,0.3,0.4,0.4,0.7v0c0,0,0,0,0,0
					c0,0,0,0,0,0c0,0.1,0,0.1,0,0.2c0,0,0,0,0,0c0,0,0,0,0,0v0c0,0.2,0,0.5-0.1,0.8c0,0,0,0,0,0c0,0,0,0,0,0c0,0,0,0,0,0s0,0,0,0
					c0,0,0,0,0,0c0,0,0,0,0,0s0,0,0,0v0c0,0,0,0,0,0c0,0,0,0,0,0c0,0,0,0,0,0c0,0,0,0,0,0c0,0,0,0,0,0c0,0,0,0,0,0c0,0,0,0,0,0
					c-0.1,0.2-0.2,0.3-0.3,0.5l-9.1,9C13.9,19.4,13.5,19.5,13.1,19.5z"/>
			</g>
		</g>
	</g>
</g>
</svg>
