<?xml version="1.0" encoding="UTF-8"?>
<svg width="26px" height="26px" viewBox="0 0 26 26" version="1.1" xmlns="http://www.w3.org/2000/svg" xmlns:xlink="http://www.w3.org/1999/xlink">
    <title>Fill 1</title>
    <g id="Symbols" stroke="none" stroke-width="1" fill="none" fill-rule="evenodd">
        <g id="Old/CTA-White-Copy-2" transform="translate(-223.000000, -19.000000)" fill="#FFFFFF">
            <path d="M245.090764,35.7685125 C244.883222,35.5624416 244.496845,35.1788017 243.650998,35.1788017 C242.966744,35.1788017 242.067154,35.4317691 240.900778,35.9520914 C240.692778,36.0449736 240.472672,36.0939644 240.264122,36.0939644 C240.012927,36.0939644 239.786401,36.0258508 239.590874,35.8915359 C236.610185,33.8425731 234.052558,31.3029738 231.988976,28.3434014 C231.738606,27.984348 231.71632,27.5102846 231.927988,27.0426866 C233.053554,24.5552653 232.815931,23.5806397 232.112877,22.8824753 L228.810559,19.6036431 C228.418588,19.2143575 227.897304,19 227.342913,19 C226.788522,19 226.26733,19.2143575 225.875451,19.6035521 L224.2076,21.2595868 C223.235375,22.2249241 222.117514,24.871611 224.094062,28.6688533 L224.105618,28.6909811 L224.118824,28.7121983 C227.911061,34.7558235 233.1327,39.9405617 239.219354,43.7058416 L239.237788,43.7172242 L239.24916,43.7232342 C240.751381,44.5704654 242.141165,45 243.380359,45 C244.67614,45 245.80143,44.5349517 246.725231,43.6177856 L248.393173,41.9616598 C249.202337,41.1582289 249.202245,39.8508667 248.393082,39.0473447 L245.090764,35.7685125 Z" id="Fill-1"></path>
        </g>
    </g>
</svg>