<svg width="159px" height="32px" viewBox="0 0 159 32" version="1.1" xmlns="http://www.w3.org/2000/svg" xmlns:xlink="http://www.w3.org/1999/xlink">
    <title>A-One_Logo+Symbol_RGB_Hvit</title>
    <defs>
        <polygon id="path-1" points="0 0 33 0 33 30 0 30"></polygon>
        <polygon id="path-3" points="0 0 104 0 104 32 0 32"></polygon>
    </defs>
    <g id="Page-1" stroke="none" stroke-width="1" fill="none" fill-rule="evenodd">
        <g id="Artboard-Copy-6" transform="translate(-645.000000, -62.000000)">
            <g id="A-One_Logo+Symbol_RGB_Hvit" transform="translate(645.000000, 62.000000)">
                <g id="Group-3" transform="translate(0.000000, 1.000000)">
                    <mask id="mask-2" fill="white">
                        <use xlink:href="#path-1"></use>
                    </mask>
                    <g id="Clip-2"></g>
                    <path d="M7.88991889,17.6571429 L16.5148706,0.942857143 L25.0973349,17.6571429 L7.88991889,17.6571429 Z M15.4951719,0 L-0.0127462341,30 L1.51680185,30 L7.33758208,18.7287857 L25.6496717,18.7287857 L31.4704519,30 L33,30 L17.4920819,0 L15.4951719,0 L15.4951719,0 Z" id="Fill-1" fill="#FFFFFE" mask="url(#mask-2)"></path>
                </g>
                <polygon id="Fill-4" fill="#FFFFFE" points="34 17 47 17 47 16 34 16"></polygon>
                <polyline id="Fill-5" fill="#FFFFFE" points="122.616129 29.8428571 100.096774 1 98 1 98 31 99.383871 31 99.383871 2.15714286 121.903226 31 124 31 124 1 122.574194 1 122.616129 29.8428571"></polyline>
                <g id="Group-9" transform="translate(55.000000, 0.000000)">
                    <mask id="mask-4" fill="white">
                        <use xlink:href="#path-3"></use>
                    </mask>
                    <g id="Clip-7"></g>
                    <polyline id="Fill-6" fill="#FFFFFE" mask="url(#mask-4)" points="82.0373005 29.9810908 82.0373005 16.5061757 101.028762 16.5061757 101.028762 15.4760149 82.0373005 15.4760149 82.0373005 2.08671396 103.612419 2.08671396 103.612419 1.01385331 80.6161707 1.01385331 80.6161707 31.0539515 104 31.0539515 104 29.9810908 82.0373005 29.9810908"></polyline>
                    <path d="M16.6007338,8.53632304 L16.6007338,4.54785629 C18.187662,4.31783497 19.4490224,3.09091153 19.7304491,1.52710985 C23.6921714,2.52422653 27.0279505,5.0982338 29.0302363,8.53632304 L16.6007338,8.53632304 Z M29.6105309,9.63107004 C29.3426695,13.121944 26.5383067,15.8764065 23.1299638,15.8764065 C19.7209749,15.8764065 16.9166121,13.1208712 16.649612,9.62935347 L29.6096696,9.62935347 C29.609885,9.62999718 29.6103156,9.63042633 29.6105309,9.63107004 Z M31.0480252,16.0064372 C31.0480252,19.4955946 29.8376964,22.7066665 27.8177542,25.2517065 C27.8285203,25.1225341 27.8341187,24.9920742 27.8341187,24.8601124 C27.8341187,22.8268269 26.5490729,21.0892218 24.7519897,20.4240482 C25.2338819,19.9850336 25.5383481,19.3556935 25.5383481,18.6553301 C25.5383481,17.9129105 25.197923,17.2481661 24.6645687,16.8076495 C27.3505039,16.233669 29.5179422,14.1815012 30.3533942,11.5117948 C30.8038493,12.9309748 31.0480252,14.4407043 31.0480252,16.0064372 Z M21.8186486,18.6553301 C21.8186486,17.9347969 22.4069102,17.3485858 23.1299638,17.3485858 C23.8532327,17.3485858 24.4414943,17.9347969 24.4414943,18.6553301 C24.4414943,19.3760779 23.8532327,19.9622889 23.1299638,19.9622889 C22.4069102,19.9622889 21.8186486,19.3760779 21.8186486,18.6553301 Z M25.4767659,27.6139311 C25.3811626,27.6907479 25.2844827,27.7660627 25.1871568,27.8407338 C24.6029864,28.2509957 23.8945747,28.4934623 23.1299638,28.4934623 C21.1410281,28.4934623 19.522878,26.8635724 19.522878,24.8601124 C19.522878,22.856867 21.1410281,21.2274062 23.1299638,21.2274062 C25.1191149,21.2274062 26.7372649,22.856867 26.7372649,24.8601124 C26.7372649,25.961082 26.2469751,26.9470409 25.4767659,27.6139311 Z M19.7918161,30.4718173 L16.6007338,26.3464535 L16.6007338,13.109928 C17.6760553,14.9812115 19.475507,16.3544732 21.595359,16.8076495 C21.06222,17.2481661 20.7217948,17.9129105 20.7217948,18.6553301 C20.7217948,19.3556935 21.0262611,19.9850336 21.507938,20.4240482 C19.7110701,21.0894363 18.4260242,22.8268269 18.4260242,24.8601124 C18.4260242,27.2197621 20.1559268,29.1807368 22.4084175,29.5307039 C21.5744727,29.9207961 20.7002625,30.2390065 19.7918161,30.4718173 Z M16.062427,30.9400137 C15.1892935,30.9400137 14.3346777,30.8610511 13.5020249,30.7175024 L16.062427,27.4077273 L18.6226139,30.7175024 C17.789961,30.8610511 16.9355605,30.9400137 16.062427,30.9400137 Z M2.22622134,21.7383025 C3.74532294,23.3776335 5.90048779,24.4060778 8.29143098,24.4060778 C11.3864794,24.4060778 14.0902865,22.6862821 15.5241203,20.1425295 L15.5241203,26.3464535 L12.3328226,30.4716027 C7.75592344,29.2991806 4.01921341,26.0200893 2.22622134,21.7383025 Z M1.08974816,16.5276329 L15.5047412,16.5276329 C15.2299895,20.3201953 12.0998435,23.3207719 8.29143098,23.3207719 C4.53900239,23.3207719 1.4469685,20.4075261 1.09405461,16.6941408 C1.09147074,16.6387812 1.09168606,16.5829925 1.08974816,16.5276329 Z M2.04405834,10.7337562 C2.22837456,12.7003098 3.31446223,14.4091622 4.88782516,15.4421125 L1.09082477,15.4421125 C1.1528377,13.7905508 1.48421933,12.2070085 2.04405834,10.7337562 Z M8.38100523,4.86778334 C11.2986277,4.86778334 13.6721298,7.23301192 13.6721298,10.1404643 C13.6721298,13.0477021 11.2986277,15.4131452 8.38100523,15.4131452 C5.46359804,15.4131452 3.08988066,13.0477021 3.08988066,10.1404643 C3.08988066,7.23301192 5.46359804,4.86778334 8.38100523,4.86778334 Z M12.3941896,1.52710985 C12.6756164,3.09091153 13.9369767,4.31783497 15.5241203,4.54785629 L15.5241203,15.4421125 L11.8741853,15.4421125 C13.6040878,14.3063822 14.7487433,12.3546341 14.7487433,10.1404643 C14.7487433,6.64143656 11.8922724,3.79492269 8.38100523,3.79492269 C8.02184697,3.79492269 7.67000969,3.82646479 7.32700064,3.88375555 C8.83253692,2.80338488 10.5445677,1.9925168 12.3941896,1.52710985 Z M16.062427,1.07286065 C16.9558009,1.07286065 17.8295804,1.15568549 18.6803203,1.30567141 C18.4710267,2.55877265 17.378264,3.51812464 16.062427,3.51812464 C14.7463747,3.51812464 13.653612,2.55877265 13.4443184,1.30567141 C14.2950583,1.15568549 15.1690532,1.07286065 16.062427,1.07286065 Z M16.062427,0 C7.20555864,0 0,7.18044175 0,16.0064372 C0,24.832218 7.20555864,32.0128743 16.062427,32.0128743 C24.9192954,32.0128743 32.1246387,24.832218 32.1246387,16.0064372 C32.1246387,7.18044175 24.9192954,0 16.062427,0 L16.062427,0 Z" id="Fill-8" fill="#FFFFFE" mask="url(#mask-4)"></path>
                </g>
            </g>
        </g>
    </g>
</svg>