<?xml version="1.0" standalone="no"?>
<svg version="1.0" xmlns="http://www.w3.org/2000/svg" width="403.000000pt" height="327.000000pt" viewBox="0 0 403.000000 327.000000" preserveAspectRatio="xMidYMid meet">
    <g transform="translate(0.000000,327.000000) scale(0.100000,-0.100000)" fill="#000000" stroke="none">
        <path d="M1840 3140 c-188 -26 -341 -74 -511 -161 -403 -208 -682 -579 -780
        -1039 -33 -151 -33 -429 0 -580 98 -460 376 -830 781 -1039 132 -68 249 -110
        400 -142 151 -33 429 -33 580 0 151 32 268 74 400 142 405 209 683 579 781
        1039 33 151 33 429 0 580 -98 460 -376 830 -781 1039 -215 111 -403 159 -650
        166 -85 2 -184 0 -220 -5z m462 -120 c267 -56 486 -172 680 -359 217 -208 346
        -439 410 -734 31 -146 31 -408 0 -554 -59 -274 -173 -490 -361 -685 -208 -217
        -439 -346 -734 -410 -146 -31 -408 -31 -554 0 -295 64 -526 193 -734 410 -188
        195 -302 411 -361 685 -31 146 -31 408 0 554 59 273 173 490 359 684 228 237
        484 371 808 424 124 20 358 13 487 -15z"/>

        <path d="M1394 2306 c-18 -13 -19 -30 -22 -218 -3 -195 -2 -205 18 -231 21
        -26 24 -27 123 -27 56 0 119 5 139 10 95 27 178 135 178 231 0 100 -52 181
        -145 225 -43 21 -65 24 -161 24 -79 0 -116 -4 -130 -14z m231 -110 c62 -26 91
        -108 62 -178 -20 -49 -54 -69 -127 -75 l-60 -6 0 137 0 136 45 0 c25 0 61 -6
        80 -14z"/>

        <path d="M1987 1693 c-345 -346 -630 -638 -634 -651 -7 -28 21 -62 51 -62 26
        0 1274 1244 1283 1278 7 28 -21 62 -51 62 -14 0 -221 -201 -649 -627z"/>

        <path d="M2380 1571 c-111 -34 -179 -128 -180 -247 0 -177 174 -299 341 -236
        86 32 122 76 95 116 -22 34 -49 37 -100 10 -105 -56 -206 -1 -206 111 0 113
        96 166 205 113 42 -21 48 -21 73 -7 36 20 41 63 11 95 -41 43 -167 67 -239 45z"/>
    </g>
</svg>
