<svg xmlns="http://www.w3.org/2000/svg" xmlns:xlink="http://www.w3.org/1999/xlink" width="156" height="42" viewBox="0 0 156 42">
    <defs>
        <path id="u30mo6ezfa" d="M0 0v16.687h5.399v-5.752h2.238c.843 0 1.449.163 1.791.515.343.353.527.95.527 1.818v1.656c0 .162.026.407.079.705.053.299.132.651.237 1.058h5.504v-.624c-.29-.027-.447-.353-.474-1.03v-.055l-.079-2.334c-.026-1.14-.263-1.98-.685-2.55-.42-.597-1.106-.977-2.054-1.167.922-.407 1.607-.923 2.054-1.6.448-.652.66-1.493.66-2.524 0-1.71-.528-2.958-1.634-3.69C12.457.38 10.666 0 8.111 0H0zm5.399 4.07h2.317c.975 0 1.607.108 1.95.353.342.217.5.624.5 1.22 0 .57-.158.95-.5 1.195-.317.244-.922.352-1.792.352H5.4V4.07z"/>
        <path id="tz0ks8eutc" d="M0 0L0 16.687 14.022 16.687 14.022 12.638 5.497 12.638 5.497 10.056 12.429 10.056 12.429 6.224 5.497 6.224 5.497 3.995 13.677 3.995 13.677 0z"/>
        <path id="bkm9e4ysxe" d="M2.121 1.337C.879 2.211.259 3.445.259 5.014c0 .771.18 1.465.491 2.083.336.617.802 1.13 1.449 1.568.31.206.853.437 1.577.694.75.257 1.708.515 2.95.823.154.026.387.077.698.154 1.5.36 2.25.823 2.25 1.389 0 .36-.181.643-.543.848-.362.206-.854.309-1.475.309-.75 0-1.293-.129-1.68-.386-.363-.257-.622-.668-.777-1.234H0c.155 1.697.88 3.008 2.173 4.011 1.293.951 3.052 1.414 5.25 1.414 2.406 0 4.243-.488 5.536-1.414 1.293-.926 1.94-2.263 1.94-4.011 0-.823-.18-1.517-.518-2.108-.362-.592-.879-1.132-1.629-1.595-.595-.385-1.862-.797-3.802-1.26-.414-.102-.75-.18-.957-.23-.052-.027-.156-.052-.285-.078-1.474-.36-2.199-.797-2.199-1.311 0-.36.13-.643.414-.823.259-.18.699-.257 1.268-.257.646 0 1.138.103 1.5.334.336.206.57.566.647 1.028h5.07c-.156-1.594-.828-2.828-2.07-3.676C11.097.437 9.415 0 7.268 0 5.07 0 3.363.437 2.121 1.337z"/>
        <path id="07146suoog" d="M5.992 0L0 16.687h5.412l.66-2.198h5.411l.634 2.198h5.411L11.536 0H5.992zm2.772 5.21l1.69 5.779H7.022l1.742-5.78z"/>
        <path id="vjl8ck97ci" d="M0 0L0 16.687 5.588 16.687 5.588 10.817 11.608 10.817 11.608 6.794 5.588 6.794 5.588 4.213 13.146 4.213 13.146 0z"/>
        <path id="o8apn2tvzk" d="M0 0L0 16.687 14.022 16.687 14.022 12.638 5.497 12.638 5.497 10.056 12.429 10.056 12.429 6.224 5.497 6.224 5.497 3.995 13.677 3.995 13.677 0z"/>
        <path id="9pntq9abbm" d="M23.749 0L0 42.157 3.393 42.157 27.169 0z"/>
    </defs>
    <g fill="none" fill-rule="evenodd">
        <g>
            <g>
                <g>
                    <g>
                        <g>
                            <path fill="#231F20" d="M0 0L0 16.687 5.588 16.687 5.588 10.817 11.607 10.817 11.607 6.794 5.588 6.794 5.588 4.213 13.146 4.213 13.146 0z" transform="translate(-40.000000, -44.000000) translate(40.000000, 26.000000) translate(0.000000, 18.000000) translate(0.000000, 0.000000) translate(0.000000, 0.000000)"/>
                            <path fill="#231F20" d="M0 0L0 16.687 5.587 16.687 5.587 10.817 11.607 10.817 11.607 6.794 5.587 6.794 5.587 4.213 13.146 4.213 13.146 0zM17.528 16.687L22.787 16.687 22.787 0 17.528 0z" transform="translate(-40.000000, -44.000000) translate(40.000000, 26.000000) translate(0.000000, 18.000000) translate(0.000000, 0.000000) translate(0.000000, 0.000000)"/>
                            <path fill="#231F20" d="M17.528 16.687L22.787 16.687 22.787 0 17.528 0zM28.045 16.687V0h8.111c2.555 0 4.346.38 5.452 1.112 1.106.733 1.633 1.981 1.633 3.69 0 1.032-.21 1.873-.659 2.524-.447.678-1.132 1.194-2.054 1.601.948.19 1.633.57 2.054 1.167.422.57.659 1.41.685 2.55l.08 2.334v.054c.026.678.184 1.004.473 1.031v.624h-5.504c-.105-.407-.184-.76-.237-1.058-.053-.298-.079-.543-.079-.705v-1.656c0-.868-.184-1.465-.527-1.818-.342-.352-.948-.515-1.79-.515h-2.24v5.752h-5.398zm5.399-9.497h2.475c.87 0 1.475-.108 1.791-.352.343-.244.5-.624.5-1.194 0-.597-.157-1.004-.5-1.221-.342-.244-.974-.353-1.949-.353h-2.317v3.12z" transform="translate(-40.000000, -44.000000) translate(40.000000, 26.000000) translate(0.000000, 18.000000) translate(0.000000, 0.000000) translate(0.000000, 0.000000)"/>
                            <g transform="translate(-40.000000, -44.000000) translate(40.000000, 26.000000) translate(0.000000, 18.000000) translate(0.000000, 0.000000) translate(0.000000, 0.000000) translate(28.044944, 0.000000)">
                                <mask id="s0uxvtgjtb" fill="#fff">
                                    <use xlink:href="#u30mo6ezfa"/>
                                </mask>
                                <path fill="#231F20" d="M-4.161 20.974L19.989 20.974 19.989 -4.287 -4.161 -4.287z" mask="url(#s0uxvtgjtb)"/>
                            </g>
                            <path fill="#231F20" d="M48.202 16.687L48.202 0 61.879 0 61.879 3.995 53.7 3.995 53.7 6.224 60.631 6.224 60.631 10.056 53.7 10.056 53.7 12.638 62.225 12.638 62.225 16.687z" transform="translate(-40.000000, -44.000000) translate(40.000000, 26.000000) translate(0.000000, 18.000000) translate(0.000000, 0.000000) translate(0.000000, 0.000000)"/>
                            <g transform="translate(-40.000000, -44.000000) translate(40.000000, 26.000000) translate(0.000000, 18.000000) translate(0.000000, 0.000000) translate(0.000000, 0.000000) translate(48.202247, 0.000000)">
                                <mask id="joqmpdowud" fill="#fff">
                                    <use xlink:href="#tz0ks8eutc"/>
                                </mask>
                                <path fill="#231F20" d="M-4.196 20.981L18.219 20.981 18.219 -4.321 -4.196 -4.321z" mask="url(#joqmpdowud)"/>
                            </g>
                            <path fill="#231F20" d="M64.854 11.262h5.199c.155.566.414.977.776 1.234.388.257.931.386 1.681.386.621 0 1.113-.103 1.475-.309.362-.205.543-.488.543-.848 0-.566-.75-1.029-2.25-1.389-.31-.077-.544-.128-.699-.154-1.241-.308-2.198-.566-2.949-.823-.724-.257-1.267-.488-1.577-.694-.647-.437-1.113-.951-1.449-1.568-.31-.618-.491-1.312-.491-2.083 0-1.569.62-2.803 1.862-3.677C68.217.437 69.924 0 72.122 0c2.147 0 3.828.437 5.07 1.286 1.242.848 1.914 2.082 2.07 3.676h-5.07c-.078-.462-.31-.822-.647-1.028-.362-.231-.854-.334-1.5-.334-.57 0-1.01.077-1.268.257-.284.18-.414.463-.414.823 0 .514.725.951 2.199 1.311.13.026.233.051.285.077.206.052.543.129.957.232 1.94.462 3.207.874 3.802 1.26.75.462 1.267 1.002 1.63 1.594.336.591.517 1.285.517 2.108 0 1.748-.647 3.085-1.94 4.011-1.293.926-3.13 1.414-5.535 1.414-2.2 0-3.958-.463-5.251-1.414-1.294-1.003-2.018-2.314-2.173-4.011" transform="translate(-40.000000, -44.000000) translate(40.000000, 26.000000) translate(0.000000, 18.000000) translate(0.000000, 0.000000) translate(0.000000, 0.000000)"/>
                            <g transform="translate(-40.000000, -44.000000) translate(40.000000, 26.000000) translate(0.000000, 18.000000) translate(0.000000, 0.000000) translate(0.000000, 0.000000) translate(64.853933, 0.000000)">
                                <mask id="v5op7bz1uf" fill="#fff">
                                    <use xlink:href="#bkm9e4ysxe"/>
                                </mask>
                                <path fill="#231F20" d="M-4.113 20.698L18.96 20.698 18.96 -4.088 -4.113 -4.088z" mask="url(#v5op7bz1uf)"/>
                            </g>
                            <path fill="#231F20" d="M81.506 16.687L87.498 0h5.543l5.993 16.687h-5.412l-.633-2.198h-5.412l-.66 2.198h-5.411zm7.022-5.698h3.431l-1.69-5.78-1.741 5.78z" transform="translate(-40.000000, -44.000000) translate(40.000000, 26.000000) translate(0.000000, 18.000000) translate(0.000000, 0.000000) translate(0.000000, 0.000000)"/>
                            <g transform="translate(-40.000000, -44.000000) translate(40.000000, 26.000000) translate(0.000000, 18.000000) translate(0.000000, 0.000000) translate(0.000000, 0.000000) translate(81.505618, 0.000000)">
                                <mask id="r5n32hwqbh" fill="#fff">
                                    <use xlink:href="#07146suoog"/>
                                </mask>
                                <path fill="#231F20" d="M-4.197 20.974L21.646 20.974 21.646 -4.287 -4.197 -4.287z" mask="url(#r5n32hwqbh)"/>
                            </g>
                            <path fill="#231F20" d="M101.663 16.687L101.663 0 114.809 0 114.809 4.213 107.251 4.213 107.251 6.794 113.271 6.794 113.271 10.817 107.251 10.817 107.251 16.687z" transform="translate(-40.000000, -44.000000) translate(40.000000, 26.000000) translate(0.000000, 18.000000) translate(0.000000, 0.000000) translate(0.000000, 0.000000)"/>
                            <g transform="translate(-40.000000, -44.000000) translate(40.000000, 26.000000) translate(0.000000, 18.000000) translate(0.000000, 0.000000) translate(0.000000, 0.000000) translate(101.662921, 0.000000)">
                                <mask id="nrukix1a4j" fill="#fff">
                                    <use xlink:href="#vjl8ck97ci"/>
                                </mask>
                                <path fill="#231F20" d="M-4.292 20.981L17.411 20.981 17.411 -4.321 -4.292 -4.321z" mask="url(#nrukix1a4j)"/>
                            </g>
                            <path fill="#231F20" d="M119.191 16.687L119.191 0 132.868 0 132.868 3.995 124.688 3.995 124.688 6.224 131.62 6.224 131.62 10.056 124.688 10.056 124.688 12.638 133.213 12.638 133.213 16.687z" transform="translate(-40.000000, -44.000000) translate(40.000000, 26.000000) translate(0.000000, 18.000000) translate(0.000000, 0.000000) translate(0.000000, 0.000000)"/>
                            <g transform="translate(-40.000000, -44.000000) translate(40.000000, 26.000000) translate(0.000000, 18.000000) translate(0.000000, 0.000000) translate(0.000000, 0.000000) translate(119.191011, 0.000000)">
                                <mask id="xxv30u2cul" fill="#fff">
                                    <use xlink:href="#o8apn2tvzk"/>
                                </mask>
                                <path fill="#231F20" d="M-4.196 20.981L18.218 20.981 18.218 -4.321 -4.196 -4.321z" mask="url(#xxv30u2cul)"/>
                            </g>
                            <path fill="#231F20" d="M132.224 42.157L128.831 42.157 152.581 0 156 0z" transform="translate(-40.000000, -44.000000) translate(40.000000, 26.000000) translate(0.000000, 18.000000) translate(0.000000, 0.000000) translate(0.000000, 0.000000)"/>
                            <g transform="translate(-40.000000, -44.000000) translate(40.000000, 26.000000) translate(0.000000, 18.000000) translate(0.000000, 0.000000) translate(0.000000, 0.000000) translate(128.831461, 0.000000)">
                                <mask id="xjvf1whqwn" fill="#fff">
                                    <use xlink:href="#9pntq9abbm"/>
                                </mask>
                                <path fill="#231F20" d="M-0.289 42.343L27.195 42.343 27.195 -0.397 -0.289 -0.397z" mask="url(#xjvf1whqwn)"/>
                            </g>
                        </g>
                    </g>
                </g>
            </g>
        </g>
    </g>
</svg>
