<svg xmlns="http://www.w3.org/2000/svg" width="24" height="18" viewBox="0 0 24 18">
    <g fill="none" fill-rule="evenodd">
        <g fill="#1C7995">
            <g>
                <g>
                    <g>
                        <g>
                            <path d="M23 19c.552 0 1 .448 1 1s-.448 1-1 1H1c-.552 0-1-.448-1-1s.448-1 1-1h22zm0-8c.552 0 1 .448 1 1s-.448 1-1 1H1c-.552 0-1-.448-1-1s.448-1 1-1h22zm0-8c.552 0 1 .448 1 1s-.448 1-1 1H1c-.552 0-1-.448-1-1s.448-1 1-1h22z" transform="translate(-1307 -71) translate(96 40) translate(1015 28) translate(132) translate(64)"/>
                        </g>
                    </g>
                </g>
            </g>
        </g>
    </g>
</svg>
